Dirigible-Regular.ufo
<glyph name="exclam" format="2">
  <advance width="288"/>
  <unicode hex="0021"/>
  <outline>
    <contour>
      <point x="30.13265895843506" y="26.26936149597168"/>
      <point x="99.1333236694336" y="-44.73130416870117"/>
      <point x="145.1333236694336" y="-44.73130416870117" type="curve" smooth="yes"/>
      <point x="191.13333129882812" y="-44.73130416870117"/>
      <point x="258.598876953125" y="26.2675724029541"/>
      <point x="258.598876953125" y="70.26757049560547" type="curve" smooth="yes"/>
      <point x="258.598876953125" y="104.8329849243164"/>
      <point x="215.00350952148438" y="156.1561737060547"/>
      <point x="174.00738525390625" y="174.9606475830078" type="curve"/>
      <point x="192.95965576171875" y="191.11660766601562"/>
      <point x="210.88018798828125" y="217.93927001953125"/>
      <point x="212.19078063964844" y="237.59808349609375" type="curve" smooth="yes"/>
      <point x="243.82156372070312" y="640.3634643554688" type="line" smooth="yes"/>
      <point x="247.82156372070312" y="689.3634643554688"/>
      <point x="193.29815673828125" y="755.776611328125"/>
      <point x="145.29815673828125" y="755.776611328125" type="curve" smooth="yes"/>
      <point x="96.29815673828125" y="755.776611328125"/>
      <point x="40.16048622131348" y="689.592041015625"/>
      <point x="44.16048622131348" y="640.592041015625" type="curve" smooth="yes"/>
      <point x="75.83879470825195" y="237.2215576171875" type="line" smooth="yes"/>
      <point x="77.15039825439453" y="217.5475311279297"/>
      <point x="95.95362854003906" y="190.86048889160156"/>
      <point x="115.7934341430664" y="174.82003784179688" type="curve"/>
      <point x="74.496337890625" y="155.90184020996094"/>
      <point x="30.13265895843506" y="104.74888610839844"/>
      <point x="30.13265895843506" y="70.26936340332031" type="curve" smooth="yes"/>
    </contour>
  </outline>
</glyph>
<glyph name="numbersign" format="2">
  <advance width="640"/>
  <unicode hex="0023"/>
  <outline>
    <contour>
      <point x="74.27692794799805" y="5.554164409637451"/>
      <point x="109.86529541015625" y="-49.279354095458984"/>
      <point x="140.86529541015625" y="-49.279354095458984" type="curve" smooth="yes"/>
      <point x="167.86529541015625" y="-49.279354095458984"/>
      <point x="214.6105194091797" y="-9.926302909851074"/>
      <point x="220.6105194091797" y="19.07369613647461" type="curve" smooth="yes"/>
      <point x="242.74848781249906" y="132.22328823448728" type="line"/>
      <point x="244.01576467553667" y="138.70047970551929"/>
      <point x="250.45262756347657" y="144.0"/>
      <point x="257.05262756347656" y="144.0" type="curve" smooth="yes"/>
      <point x="301.7935485839844" y="144.0" type="line"/>
      <point x="308.3935485839844" y="144.0"/>
      <point x="312.72663110918023" y="138.70644853600555"/>
      <point x="311.4226208621974" y="132.2365523022346" type="curve" smooth="yes"/>
      <point x="292.168701171875" y="36.70750045776367" type="line" smooth="yes"/>
      <point x="286.168701171875" y="4.707501411437988"/>
      <point x="324.86529541015625" y="-49.279354095458984"/>
      <point x="352.86529541015625" y="-49.279354095458984" type="curve" smooth="yes"/>
      <point x="379.86529541015625" y="-49.279354095458984"/>
      <point x="426.4981689453125" y="-10.022616386413574"/>
      <point x="432.4981689453125" y="18.97738265991211" type="curve" smooth="yes"/>
      <point x="455.7724528951249" y="132.24558090761562" type="line"/>
      <point x="457.10086308014996" y="138.71051140842704"/>
      <point x="463.587744140625" y="144.0"/>
      <point x="470.187744140625" y="144.0" type="curve" smooth="yes"/>
      <point x="523.3019714355469" y="144.0" type="line" smooth="yes"/>
      <point x="553.3019409179688" y="144.0"/>
      <point x="603.2019653320312" y="186.0"/>
      <point x="603.2019653320312" y="212.0" type="curve" smooth="yes"/>
      <point x="603.2019653320312" y="238.0"/>
      <point x="553.3019409179688" y="280.0"/>
      <point x="523.3019714355469" y="280.0" type="curve" smooth="yes"/>
      <point x="494.8427734375" y="280.0" type="line"/>
      <point x="488.2427734375" y="280.0"/>
      <point x="483.888391435026" y="285.29779982664974"/>
      <point x="485.1663689875578" y="291.772888503666" type="curve" smooth="yes"/>
      <point x="510.7165350651766" y="421.227111496334" type="line"/>
      <point x="511.9945126177084" y="427.70220017335026"/>
      <point x="518.4401306152344" y="433.0"/>
      <point x="525.0401306152344" y="433.0" type="curve" smooth="yes"/>
      <point x="544.4965209960938" y="433.0" type="line" smooth="yes"/>
      <point x="574.4965209960938" y="433.0"/>
      <point x="624.2052612304688" y="476.5331726074219"/>
      <point x="624.2052612304688" y="502.5331726074219" type="curve" smooth="yes"/>
      <point x="624.2052612304688" y="528.533203125"/>
      <point x="574.1041870117188" y="569.0"/>
      <point x="544.1041870117188" y="569.0" type="curve" smooth="yes"/>
      <point x="541.0143920898438" y="569.0" type="line"/>
      <point x="539.8814672851563" y="569.0"/>
      <point x="539.1363165077855" y="569.9089379361401"/>
      <point x="539.3585014734643" y="571.0198620803113" type="curve" smooth="yes"/>
      <point x="558.7742309570312" y="668.0984497070312" type="line" smooth="yes"/>
      <point x="564.7742309570312" y="700.0984497070312"/>
      <point x="527.6226806640625" y="754.2906494140625"/>
      <point x="499.6226806640625" y="754.2906494140625" type="curve" smooth="yes"/>
      <point x="472.6226806640625" y="754.2906494140625"/>
      <point x="424.469970703125" y="715.1223754882812"/>
      <point x="418.469970703125" y="686.1223754882812" type="curve" smooth="yes"/>
      <point x="397.39889474102364" y="580.7669682262148" type="line"/>
      <point x="396.10452857340204" y="574.2951357017967"/>
      <point x="389.6455017089844" y="569.0"/>
      <point x="383.0455017089844" y="569.0" type="curve" smooth="yes"/>
      <point x="338.09918212890625" y="569.0" type="line"/>
      <point x="331.4991821289062" y="569.0"/>
      <point x="327.14979012293236" y="574.2968125172492"/>
      <point x="328.43386656007533" y="580.7706944827761" type="curve" smooth="yes"/>
      <point x="345.7593688964844" y="668.1200561523438" type="line" smooth="yes"/>
      <point x="351.7593688964844" y="700.1200561523438"/>
      <point x="314.6226806640625" y="754.2906494140625"/>
      <point x="286.6226806640625" y="754.2906494140625" type="curve" smooth="yes"/>
      <point x="259.62269592285156" y="754.2906494140625"/>
      <point x="211.4866180419922" y="715.1363525390625"/>
      <point x="205.4866180419922" y="686.1363525390625" type="curve" smooth="yes"/>
      <point x="184.26046067099335" y="580.7637015604108" type="line"/>
      <point x="182.95714336762083" y="574.2936657021849"/>
      <point x="176.49079284667968" y="569.0"/>
      <point x="169.8907928466797" y="569.0" type="curve" smooth="yes"/>
      <point x="116.89579010009766" y="569.0" type="line" smooth="yes"/>
      <point x="86.89579010009766" y="569.0"/>
      <point x="36.794742584228516" y="528.533203125"/>
      <point x="36.794742584228516" y="502.5331726074219" type="curve" smooth="yes"/>
      <point x="36.794742584228516" y="476.5331726074219"/>
      <point x="86.50350952148438" y="433.0"/>
      <point x="116.50350952148438" y="433.0" type="curve" smooth="yes"/>
      <point x="144.95985412597656" y="433.0" type="line"/>
      <point x="151.55985412597656" y="433.0"/>
      <point x="155.91423587417898" y="427.70220022353544"/>
      <point x="154.63625801087088" y="421.22711160785656" type="curve" smooth="yes"/>
      <point x="129.08608543395331" y="291.77288839214344" type="line"/>
      <point x="127.8081075706452" y="285.29779977646456"/>
      <point x="121.36248931884765" y="280.0"/>
      <point x="114.76248931884766" y="280.0" type="curve" smooth="yes"/>
      <point x="95.69803619384766" y="280.0" type="line" smooth="yes"/>
      <point x="65.69803237915039" y="280.0"/>
      <point x="15.798032283782959" y="238.0"/>
      <point x="15.798032283782959" y="212.0" type="curve" smooth="yes"/>
      <point x="15.798032283782959" y="186.0"/>
      <point x="65.69803237915039" y="144.0"/>
      <point x="95.69803619384766" y="144.0" type="curve" smooth="yes"/>
      <point x="98.680078125" y="144.0" type="line"/>
      <point x="99.77349349975586" y="144.0"/>
      <point x="100.50130289813528" y="143.1210754492318"/>
      <point x="100.29743234362094" y="142.0468343316262" type="curve" smooth="yes"/>
      <point x="80.27692794799805" y="36.55416488647461" type="line" smooth="yes"/>
    </contour>
    <contour>
      <point x="283.02650451660156" y="280.0" type="line"/>
      <point x="276.42650451660154" y="280.0"/>
      <point x="272.0660214816602" y="285.299000328303"/>
      <point x="273.3365422167319" y="291.7755562851178" type="curve" smooth="yes"/>
      <point x="298.730825336979" y="421.2244437148822" type="line"/>
      <point x="300.0013460720507" y="427.700999671697"/>
      <point x="306.44086303710935" y="433.0"/>
      <point x="313.0408630371094" y="433.0" type="curve" smooth="yes"/>
      <point x="356.9734802246094" y="433.0" type="line"/>
      <point x="363.5734802246094" y="433.0"/>
      <point x="367.9339637684396" y="427.70099957186716"/>
      <point x="366.6634436553432" y="421.2244434930381" type="curve" smooth="yes"/>
      <point x="341.2691735321568" y="291.7755565069619" type="line"/>
      <point x="339.9986534190604" y="285.29900042813284"/>
      <point x="333.55913696289065" y="280.0"/>
      <point x="326.9591369628906" y="280.0" type="curve" smooth="yes"/>
    </contour>
  </outline>
</glyph>
<glyph name="dollar" format="2">
  <advance width="640"/>
  <unicode hex="0024"/>
  <outline>
    <contour>
      <point x="252.0" y="-112.59797668457031"/>
      <point x="301.0" y="-162.5979766845703"/>
      <point x="330.0" y="-162.5979766845703" type="curve" smooth="yes"/>
      <point x="359.0" y="-162.5979766845703"/>
      <point x="408.0" y="-112.59797668457031"/>
      <point x="408.0" y="-84.59797668457031" type="curve" smooth="yes"/>
      <point x="408.0" y="-25.359943389892578" type="line"/>
      <point x="408.0" y="-18.759943389892577"/>
      <point x="411.83993593761477" y="-9.563248512105508"/>
      <point x="416.53319097247726" y="-4.9228436614768665" type="curve" smooth="yes"/>
      <point x="530.7733459472656" y="4.846353054046631"/>
      <point x="626.7103881835938" y="91.54296875"/>
      <point x="626.7103881835938" y="202.8875732421875" type="curve" smooth="yes"/>
      <point x="626.7103881835938" y="300.8875732421875"/>
      <point x="543.0126342773438" y="386.5853576660156"/>
      <point x="415.01263427734375" y="414.5853576660156" type="curve" smooth="yes"/>
      <point x="305.2130432128906" y="438.76141357421875" type="line" smooth="yes"/>
      <point x="264.70423889160156" y="447.8901672363281"/>
      <point x="248.88536071777344" y="451.2679443359375"/>
      <point x="242.7694549560547" y="460.8432312011719" type="curve" smooth="yes"/>
      <point x="238.16598510742188" y="468.0505676269531"/>
      <point x="239.0598907470703" y="478.76922607421875"/>
      <point x="239.0598907470703" y="498.0946350097656" type="curve" smooth="yes"/>
      <point x="239.0598907470703" y="559.0946655273438"/>
      <point x="253.1363067626953" y="572.582763671875"/>
      <point x="338.13629150390625" y="572.582763671875" type="curve" smooth="yes"/>
      <point x="404.13629150390625" y="572.582763671875"/>
      <point x="455.7306823730469" y="555.1748657226562"/>
      <point x="494.7306823730469" y="533.1748657226562" type="curve" smooth="yes"/>
      <point x="564.730712890625" y="494.1748962402344"/>
      <point x="635.9373168945312" y="622.4824829101562"/>
      <point x="585.9373168945312" y="661.4824829101562" type="curve" smooth="yes"/>
      <point x="541.8652954101562" y="695.858642578125"/>
      <point x="461.6556701660156" y="722.2007446289062"/>
      <point x="408.0" y="727.92236328125" type="curve"/>
      <point x="408.0" y="789.5979614257812" type="line" smooth="yes"/>
      <point x="408.0" y="817.5979614257812"/>
      <point x="358.0" y="867.5979614257812"/>
      <point x="330.0" y="867.5979614257812" type="curve" smooth="yes"/>
      <point x="301.0" y="867.5979614257812"/>
      <point x="252.0" y="817.5979614257812"/>
      <point x="252.0" y="789.5979614257812" type="curve" smooth="yes"/>
      <point x="252.0" y="730.6597290039062" type="line"/>
      <point x="252.0" y="724.0597290039062"/>
      <point x="248.17282272351156" y="714.8501733743964"/>
      <point x="243.49516160780345" y="710.1940498272177" type="curve" smooth="yes"/>
      <point x="123.30374145507812" y="702.324462890625"/>
      <point x="28.832935333251953" y="608.8048095703125"/>
      <point x="28.832935333251953" y="496.52020263671875" type="curve" smooth="yes"/>
      <point x="28.832935333251953" y="394.52020263671875"/>
      <point x="113.65841674804688" y="306.4602966308594"/>
      <point x="234.65841674804688" y="280.4602966308594" type="curve" smooth="yes"/>
      <point x="342.31024169921875" y="257.1018981933594" type="line" smooth="yes"/>
      <point x="387.68878173828125" y="247.21170043945312"/>
      <point x="404.2641296386719" y="243.6097869873047"/>
      <point x="410.1913146972656" y="233.66285705566406" type="curve" smooth="yes"/>
      <point x="414.4522399902344" y="226.5122528076172"/>
      <point x="413.21038818359375" y="216.08267211914062"/>
      <point x="413.21038818359375" y="197.6808319091797" type="curve" smooth="yes"/>
      <point x="413.2104187011719" y="196.73585510253906" type="line" smooth="yes"/>
      <point x="413.2138366699219" y="143.545654296875"/>
      <point x="413.214599609375" y="132.1126708984375"/>
      <point x="313.80059814453125" y="132.1126708984375" type="curve" smooth="yes"/>
      <point x="228.8005828857422" y="132.1126708984375"/>
      <point x="157.40345764160156" y="158.66934204101562"/>
      <point x="120.40345764160156" y="179.66934204101562" type="curve" smooth="yes"/>
      <point x="51.403459548950195" y="218.66934204101562"/>
      <point x="-10.345222473144531" y="66.0743179321289"/>
      <point x="50.65477752685547" y="31.07431983947754" type="curve" smooth="yes"/>
      <point x="95.49432373046875" y="5.451721668243408"/>
      <point x="170.93917846679688" y="-20.88344383239746"/>
      <point x="252.0" y="-26.155794143676758" type="curve"/>
      <point x="252.0" y="-84.59797668457031" type="line" smooth="yes"/>
    </contour>
  </outline>
</glyph>
<glyph name="percent" format="2">
  <advance width="985"/>
  <unicode hex="0025"/>
  <outline>
    <contour>
      <point x="529.6835021972656" y="72.04137420654297"/>
      <point x="632.0" y="-54.0280876159668"/>
      <point x="744.0" y="-54.0280876159668" type="curve" smooth="yes"/>
      <point x="856.0" y="-54.0280876159668"/>
      <point x="958.3165283203125" y="72.04137420654297"/>
      <point x="958.3165283203125" y="206.04136657714844" type="curve" smooth="yes"/>
      <point x="958.3165283203125" y="339.0413818359375"/>
      <point x="856.0" y="464.90679931640625"/>
      <point x="744.0" y="464.90679931640625" type="curve" smooth="yes"/>
      <point x="692.935546875" y="464.90679931640625"/>
      <point x="643.884033203125" y="438.7425842285156"/>
      <point x="605.6249389648438" y="397.66705322265625" type="curve"/>
      <point x="756.2619018554688" y="659.3426513671875" type="line" smooth="yes"/>
      <point x="789.2619018554688" y="717.3426513671875"/>
      <point x="659.6930541992188" y="794.180908203125"/>
      <point x="625.6930541992188" y="734.180908203125" type="curve" smooth="yes"/>
      <point x="450.06349740431284" y="429.56592395980334" type="line"/>
      <point x="446.76687644424544" y="423.8482067365013"/>
      <point x="444.87817894025284" y="424.509200475859"/>
      <point x="445.8663918398848" y="431.0347989361538" type="curve" smooth="yes"/>
      <point x="451.9632263183594" y="445.0985412597656"/>
      <point x="456.3164978027344" y="472.4012451171875"/>
      <point x="456.3164978027344" y="500.0413818359375" type="curve" smooth="yes"/>
      <point x="456.3164978027344" y="633.0413818359375"/>
      <point x="354.0" y="758.9067993164062"/>
      <point x="242.0" y="758.9067993164062" type="curve" smooth="yes"/>
      <point x="130.0" y="758.9067993164062"/>
      <point x="27.68350124359131" y="633.0413818359375"/>
      <point x="27.68350124359131" y="500.0413818359375" type="curve" smooth="yes"/>
      <point x="27.68350124359131" y="366.0413818359375"/>
      <point x="130.0" y="239.97190856933594"/>
      <point x="242.0" y="239.97190856933594" type="curve" smooth="yes"/>
      <point x="292.202392578125" y="239.97190856933594"/>
      <point x="340.459228515625" y="265.3011779785156"/>
      <point x="378.42822265625" y="305.3204650878906" type="curve"/>
      <point x="228.84910583496094" y="45.8878173828125" type="line" smooth="yes"/>
      <point x="194.84910583496094" y="-13.1121826171875"/>
      <point x="325.1954040527344" y="-89.4124526977539"/>
      <point x="359.1954040527344" y="-30.412450790405273" type="curve" smooth="yes"/>
      <point x="536.364057063611" y="277.3521190615647" type="line"/>
      <point x="539.6568157909296" y="283.07206136579003"/>
      <point x="541.5236251978023" y="282.4157578783528"/>
      <point x="540.5125224122169" y="275.8936668672597" type="curve" smooth="yes"/>
      <point x="534.1915283203125" y="261.5615234375"/>
      <point x="529.6835021972656" y="233.9586181640625"/>
      <point x="529.6835021972656" y="206.04136657714844" type="curve" smooth="yes"/>
    </contour>
    <contour>
      <point x="273.7719421386719" y="421.4554443359375"/>
      <point x="262.8002166748047" y="424.1162109375"/>
      <point x="242.0" y="424.1162109375" type="curve" smooth="yes"/>
      <point x="221.13580322265625" y="424.1162109375"/>
      <point x="210.16065979003906" y="421.2501220703125"/>
      <point x="204.41966247558594" y="425.4830017089844" type="curve" smooth="yes"/>
      <point x="196.9529571533203" y="430.9882507324219"/>
      <point x="198.3400115966797" y="448.5017395019531"/>
      <point x="198.3400115966797" y="499.94671630859375" type="curve" smooth="yes"/>
      <point x="198.3400115966797" y="550.7838134765625"/>
      <point x="196.9552764892578" y="568.2009887695312"/>
      <point x="204.4009552001953" y="573.73291015625" type="curve" smooth="yes"/>
      <point x="210.13681030273438" y="577.9945068359375"/>
      <point x="221.1131134033203" y="575.2027587890625"/>
      <point x="242.0" y="575.2027587890625" type="curve" smooth="yes"/>
      <point x="262.8233184814453" y="575.2027587890625"/>
      <point x="273.7962951660156" y="577.7893676757812"/>
      <point x="279.5465393066406" y="573.4519653320312" type="curve" smooth="yes"/>
      <point x="287.05120849609375" y="567.7911987304688"/>
      <point x="285.65997314453125" y="550.3367919921875"/>
      <point x="285.65997314453125" y="499.94671630859375" type="curve" smooth="yes"/>
      <point x="285.65997314453125" y="448.9471130371094"/>
      <point x="287.0535888671875" y="431.39697265625"/>
      <point x="279.5273742675781" y="425.76348876953125" type="curve" smooth="yes"/>
    </contour>
    <contour>
      <point x="775.7719116210938" y="127.45545196533203"/>
      <point x="764.8002319335938" y="130.11622619628906"/>
      <point x="744.0" y="130.11622619628906" type="curve" smooth="yes"/>
      <point x="723.1358032226562" y="130.11622619628906"/>
      <point x="712.16064453125" y="127.2501220703125"/>
      <point x="706.419677734375" y="131.48300170898438" type="curve" smooth="yes"/>
      <point x="698.9529418945312" y="136.98826599121094"/>
      <point x="700.3400268554688" y="154.5017547607422"/>
      <point x="700.3400268554688" y="205.9467315673828" type="curve" smooth="yes"/>
      <point x="700.3400268554688" y="256.7838134765625"/>
      <point x="698.9552612304688" y="274.20098876953125"/>
      <point x="706.4009399414062" y="279.7329406738281" type="curve" smooth="yes"/>
      <point x="712.1367797851562" y="283.9945373535156"/>
      <point x="723.1130981445312" y="281.2027587890625"/>
      <point x="744.0" y="281.2027587890625" type="curve" smooth="yes"/>
      <point x="764.8233032226562" y="281.2027587890625"/>
      <point x="775.7963256835938" y="283.78936767578125"/>
      <point x="781.5465087890625" y="279.45196533203125" type="curve" smooth="yes"/>
      <point x="789.0512084960938" y="273.7912292480469"/>
      <point x="787.6599731445312" y="256.3368225097656"/>
      <point x="787.6599731445312" y="205.9467315673828" type="curve" smooth="yes"/>
      <point x="787.6599731445312" y="154.94712829589844"/>
      <point x="789.0535888671875" y="137.39698791503906"/>
      <point x="781.5274047851562" y="131.7635040283203" type="curve" smooth="yes"/>
    </contour>
  </outline>
</glyph>
<glyph name="ampersand" format="2">
  <advance width="766"/>
  <unicode hex="0026"/>
  <outline>
    <contour>
      <point x="39.02480888366699" y="60.08306121826172"/>
      <point x="165.5054168701172" y="-41.9879035949707"/>
      <point x="316.5054016113281" y="-41.9879035949707" type="curve" smooth="yes"/>
      <point x="397.3544616699219" y="-41.9879035949707"/>
      <point x="470.4730529785156" y="-10.985111236572266"/>
      <point x="528.009765625" y="43.083740234375" type="curve"/>
      <point x="566.0505981445312" y="3.202239751815796" type="line" smooth="yes"/>
      <point x="588.0505981445312" y="-19.797760009765625"/>
      <point x="634.0078125" y="-46.50740432739258"/>
      <point x="664.0078125" y="-46.50740432739258" type="curve" smooth="yes"/>
      <point x="713.0078125" y="-46.50740432739258"/>
      <point x="756.1404418945312" y="42.317630767822266"/>
      <point x="718.1404418945312" y="80.31763458251953" type="curve" smooth="yes"/>
      <point x="643.1449044553003" y="156.10256805301208" type="line"/>
      <point x="638.5024964335961" y="160.7938416284941"/>
      <point x="636.3816935940156" y="169.76498110668322"/>
      <point x="638.4320092562324" y="176.03843356009898" type="curve" smooth="yes"/>
      <point x="670.6810302734375" y="223.04135131835938"/>
      <point x="696.5242309570312" y="295.5646667480469"/>
      <point x="705.564453125" y="381.4468994140625" type="curve" smooth="yes"/>
      <point x="709.564453125" y="417.4468994140625"/>
      <point x="662.1080322265625" y="471.1114501953125"/>
      <point x="627.1080322265625" y="471.1114501953125" type="curve" smooth="yes"/>
      <point x="595.1080322265625" y="471.1114501953125"/>
      <point x="551.1748046875" y="429.1733093261719"/>
      <point x="546.1748046875" y="396.1733093261719" type="curve" smooth="yes"/>
      <point x="538.3923950195312" y="339.1023254394531"/>
      <point x="535.1436157226562" y="326.68316650390625"/>
      <point x="515.1952514648438" y="285.6971435546875" type="curve"/>
      <point x="438.23263149292757" y="367.6396894878241" type="line"/>
      <point x="433.7142010785557" y="372.45048844334895"/>
      <point x="433.1303517421319" y="380.7989577750007"/>
      <point x="436.9351885230969" y="386.19184355816134" type="curve" smooth="yes"/>
      <point x="524.9528198242188" y="433.0401306152344"/>
      <point x="563.4996337890625" y="494.1587829589844"/>
      <point x="563.4996337890625" y="565.581298828125" type="curve" smooth="yes"/>
      <point x="563.4996337890625" y="659.581298828125"/>
      <point x="457.0384826660156" y="751.9915161132812"/>
      <point x="348.0384826660156" y="751.9915161132812" type="curve" smooth="yes"/>
      <point x="230.03846740722656" y="751.9915161132812"/>
      <point x="118.60818481445312" y="654.3284912109375"/>
      <point x="118.60818481445312" y="554.3284912109375" type="curve" smooth="yes"/>
      <point x="118.60818481445312" y="501.6924133300781"/>
      <point x="137.9962387084961" y="457.33197021484375"/>
      <point x="189.53717041015625" y="403.5657653808594" type="curve"/>
      <point x="196.06624450683594" y="407.4064025878906" type="line"/>
      <point x="198.46023834228515" y="408.81463623046875"/>
      <point x="199.13573120934603" y="408.09133821663386"/>
      <point x="197.56733976697123" y="405.79907366825745" type="curve" smooth="yes"/>
      <point x="110.41895294189453" y="356.9668273925781"/>
      <point x="39.02480888366699" y="264.08306884765625"/>
      <point x="39.02480888366699" y="174.0830535888672" type="curve" smooth="yes"/>
    </contour>
    <contour>
      <point x="372.34619140625" y="120.35894775390625"/>
      <point x="360.8207702636719" y="121.11026000976562"/>
      <point x="332.608154296875" y="121.11026000976562" type="curve" smooth="yes"/>
      <point x="250.608154296875" y="121.11026000976562"/>
      <point x="239.2476043701172" y="132.3576202392578"/>
      <point x="239.2476043701172" y="195.3576202392578" type="curve" smooth="yes"/>
      <point x="239.2476043701172" y="220.26382446289062"/>
      <point x="237.3904266357422" y="231.42095947265625"/>
      <point x="241.43174743652344" y="239.69813537597656" type="curve" smooth="yes"/>
      <point x="246.42852783203125" y="249.9321746826172"/>
      <point x="260.44252014160156" y="255.76356506347656"/>
      <point x="298.13311767578125" y="277.7364501953125" type="curve"/>
      <point x="408.20509592722004" y="163.9241759116758" type="line"/>
      <point x="412.79339332594043" y="159.1799660743166"/>
      <point x="412.5063136214717" y="151.7165556932837"/>
      <point x="407.5671410284006" y="147.33881950938047" type="curve" smooth="yes"/>
      <point x="398.04058837890625" y="137.01255798339844"/>
      <point x="390.8966064453125" y="128.44651794433594"/>
      <point x="381.7555236816406" y="124.46121215820312" type="curve" smooth="yes"/>
    </contour>
    <contour>
      <point x="312.2737731933594" y="588.086669921875"/>
      <point x="323.5447082519531" y="587.2936401367188"/>
      <point x="347.9098205566406" y="587.2936401367188" type="curve" smooth="yes"/>
      <point x="370.2056579589844" y="587.2936401367188"/>
      <point x="378.8157653808594" y="590.304443359375"/>
      <point x="381.8850402832031" y="587.4197998046875" type="curve" smooth="yes"/>
      <point x="384.8728942871094" y="584.6116943359375"/>
      <point x="382.61004638671875" y="576.2168579101562"/>
      <point x="382.61004638671875" y="554.0194091796875" type="curve" smooth="yes"/>
      <point x="382.61004638671875" y="535.8466796875"/>
      <point x="385.8464660644531" y="529.510009765625"/>
      <point x="384.1599426269531" y="525.024169921875" type="curve" smooth="yes"/>
      <point x="381.8843078613281" y="518.9715576171875"/>
      <point x="370.6461486816406" y="516.2886962890625"/>
      <point x="330.40234375" y="492.4476318359375" type="curve"/>
      <point x="306.1344909667969" y="519.23876953125"/>
      <point x="300.36285400390625" y="521.2783813476562"/>
      <point x="299.9849853515625" y="524.0526733398438" type="curve" smooth="yes"/>
      <point x="299.687744140625" y="526.235107421875"/>
      <point x="302.7284851074219" y="528.8721313476562"/>
      <point x="302.7284851074219" y="544.371337890625" type="curve" smooth="yes"/>
      <point x="302.7284851074219" y="567.0214233398438"/>
      <point x="302.04510498046875" y="577.7725830078125"/>
      <point x="307.0816345214844" y="582.8511962890625" type="curve" smooth="yes"/>
    </contour>
  </outline>
</glyph>
<glyph name="quotesingle" format="2">
  <advance width="283"/>
  <unicode hex="0027"/>
  <outline>
    <contour>
      <point x="71.14641189575195" y="412.4034729003906"/>
      <point x="118.21625518798828" y="366.7576904296875"/>
      <point x="142.21625518798828" y="366.7576904296875" type="curve" smooth="yes"/>
      <point x="167.21624755859375" y="366.7576904296875"/>
      <point x="211.8708038330078" y="412.5711364746094"/>
      <point x="214.8708038330078" y="442.5711364746094" type="curve" smooth="yes"/>
      <point x="236.1135711669922" y="649.4085693359375" type="line" smooth="yes"/>
      <point x="240.1135711669922" y="691.4085693359375"/>
      <point x="182.15908813476562" y="754.9266967773438"/>
      <point x="142.15908813476562" y="754.9266967773438" type="curve" smooth="yes"/>
      <point x="101.15908813476562" y="754.9266967773438"/>
      <point x="42.87344932556152" y="690.5349731445312"/>
      <point x="46.87344932556152" y="649.5349731445312" type="curve" smooth="yes"/>
      <point x="68.14641189575195" y="442.4034729003906" type="line" smooth="yes"/>
    </contour>
  </outline>
</glyph>
<glyph name="parenleft" format="2">
  <advance width="398"/>
  <unicode hex="0028"/>
  <outline>
    <contour>
      <point x="90.9631576538086" y="115.0"/>
      <point x="136.7533950805664" y="-75.92857360839844"/>
      <point x="219.75340270996094" y="-205.92857360839844" type="curve" smooth="yes"/>
      <point x="249.75340270996094" y="-252.92857360839844"/>
      <point x="381.1112365722656" y="-200.02505493164062"/>
      <point x="355.1112365722656" y="-125.0250473022461" type="curve" smooth="yes"/>
      <point x="310.1112365722656" y="4.974952697753906"/>
      <point x="282.4862060546875" y="133.0"/>
      <point x="282.4862060546875" y="263.0" type="curve" smooth="yes"/>
      <point x="282.4862060546875" y="393.0"/>
      <point x="307.1112365722656" y="522.0250244140625"/>
      <point x="355.1112365722656" y="651.0250244140625" type="curve" smooth="yes"/>
      <point x="381.1112365722656" y="726.0250244140625"/>
      <point x="249.75340270996094" y="778.9285888671875"/>
      <point x="219.75340270996094" y="731.9285888671875" type="curve" smooth="yes"/>
      <point x="137.7533950805664" y="600.9285888671875"/>
      <point x="90.9631576538086" y="411.0"/>
      <point x="90.9631576538086" y="263.0" type="curve" smooth="yes"/>
    </contour>
  </outline>
</glyph>
<glyph name="parenright" format="2">
  <advance width="398"/>
  <unicode hex="0029"/>
  <outline>
    <contour>
      <point x="14.88877820968628" y="-199.02505493164062"/>
      <point x="149.24659729003906" y="-252.92857360839844"/>
      <point x="178.24659729003906" y="-205.92857360839844" type="curve" smooth="yes"/>
      <point x="259.24659729003906" y="-75.92857360839844"/>
      <point x="307.0368347167969" y="115.0"/>
      <point x="307.0368347167969" y="263.0" type="curve" smooth="yes"/>
      <point x="307.0368347167969" y="411.0"/>
      <point x="259.24659729003906" y="601.9285888671875"/>
      <point x="178.24659729003906" y="731.9285888671875" type="curve" smooth="yes"/>
      <point x="149.24659729003906" y="778.9285888671875"/>
      <point x="16.88877820968628" y="726.0250244140625"/>
      <point x="42.88877868652344" y="651.0250244140625" type="curve" smooth="yes"/>
      <point x="87.88877868652344" y="521.0250244140625"/>
      <point x="115.51378631591797" y="393.0"/>
      <point x="115.51378631591797" y="263.0" type="curve" smooth="yes"/>
      <point x="115.51378631591797" y="133.0"/>
      <point x="91.88877868652344" y="3.9749526977539062"/>
      <point x="42.88877868652344" y="-125.0250473022461" type="curve" smooth="yes"/>
    </contour>
  </outline>
</glyph>
<glyph name="asterisk" format="2">
  <advance width="493"/>
  <unicode hex="002A"/>
  <outline>
    <contour>
      <point x="88.5411376953125" y="403.09918212890625"/>
      <point x="100.40300750732422" y="333.3573913574219"/>
      <point x="124.40300750732422" y="318.3573913574219" type="curve" smooth="yes"/>
      <point x="148.4029998779297" y="304.3573913574219"/>
      <point x="214.6253662109375" y="334.35382080078125"/>
      <point x="227.6253662109375" y="362.35382080078125" type="curve" smooth="yes"/>
      <point x="240.9153067172734" y="389.78199216127035" type="line"/>
      <point x="243.79320973908162" y="395.72149333536464"/>
      <point x="248.46168648198227" y="395.7019258296936"/>
      <point x="251.28969947927484" y="389.7385088153348" type="curve" smooth="yes"/>
      <point x="264.3865203857422" y="362.1213073730469" type="line" smooth="yes"/>
      <point x="277.38653564453125" y="334.1213073730469"/>
      <point x="344.1412658691406" y="304.8815002441406"/>
      <point x="369.1412658691406" y="319.8815002441406" type="curve" smooth="yes"/>
      <point x="393.1412658691406" y="333.8815002441406"/>
      <point x="403.3460693359375" y="403.2718811035156"/>
      <point x="386.3460693359375" y="428.2718811035156" type="curve" smooth="yes"/>
      <point x="371.2634585578035" y="451.36714945905516" type="line"/>
      <point x="367.65465406829674" y="456.89313626292244"/>
      <point x="370.0949090770726" y="461.13783550416946"/>
      <point x="376.68624746619435" y="460.79981443960395" type="curve" smooth="yes"/>
      <point x="402.22515869140625" y="459.4901123046875" type="line" smooth="yes"/>
      <point x="433.22515869140625" y="457.4901123046875"/>
      <point x="489.0254211425781" y="501.2707214355469"/>
      <point x="489.0254211425781" y="529.2706909179688" type="curve" smooth="yes"/>
      <point x="489.0254211425781" y="556.2706909179688"/>
      <point x="432.9258728027344" y="599.5841064453125"/>
      <point x="401.9258728027344" y="597.5841064453125" type="curve" smooth="yes"/>
      <point x="377.0419045044574" y="596.0953269473193" type="line"/>
      <point x="370.453685213041" y="595.70116128645"/>
      <point x="368.03722196735686" y="599.8859817928158"/>
      <point x="371.67198618071484" y="605.3949280725767" type="curve" smooth="yes"/>
      <point x="386.315673828125" y="627.5892944335938" type="line" smooth="yes"/>
      <point x="403.315673828125" y="653.5892944335938"/>
      <point x="393.2244567871094" y="723.6823120117188"/>
      <point x="369.2244567871094" y="738.6823120117188" type="curve" smooth="yes"/>
      <point x="345.2244567871094" y="752.6823120117188"/>
      <point x="277.3509216308594" y="722.7030639648438"/>
      <point x="264.3509216308594" y="694.7030639648438" type="curve" smooth="yes"/>
      <point x="251.68544306636667" y="668.2707665222455" type="line"/>
      <point x="248.83344937986502" y="662.3187809701667"/>
      <point x="244.1665504837306" y="662.3187809048063"/>
      <point x="241.31455663051244" y="668.2707663770001" type="curve" smooth="yes"/>
      <point x="228.6894073486328" y="694.618896484375" type="line" smooth="yes"/>
      <point x="215.6894073486328" y="722.618896484375"/>
      <point x="148.4029998779297" y="752.642578125"/>
      <point x="125.40300750732422" y="738.642578125" type="curve" smooth="yes"/>
      <point x="101.40300750732422" y="724.642578125"/>
      <point x="89.55382537841797" y="654.974609375"/>
      <point x="106.55382537841797" y="628.974609375" type="curve" smooth="yes"/>
      <point x="121.77115599597623" y="605.4352993230301" type="line"/>
      <point x="125.3542925370565" y="599.8926345732932"/>
      <point x="122.89558880819789" y="595.6802319039668"/>
      <point x="116.30736993184598" y="596.0744045023049" type="curve" smooth="yes"/>
      <point x="91.07414245605469" y="597.5841064453125" type="line" smooth="yes"/>
      <point x="60.07413864135742" y="599.5841064453125"/>
      <point x="3.974576950073242" y="556.2706909179688"/>
      <point x="3.974576950073242" y="529.2706909179688" type="curve" smooth="yes"/>
      <point x="3.974576950073242" y="501.2707214355469"/>
      <point x="59.77482986450195" y="457.4901123046875"/>
      <point x="90.77482604980469" y="459.4901123046875" type="curve" smooth="yes"/>
      <point x="115.27910725927447" y="460.74674815352773" type="line"/>
      <point x="121.87044575507683" y="461.0847671378375"/>
      <point x="124.31069866351294" y="456.84006762321496"/>
      <point x="120.7018915002436" y="451.31408256547763" type="curve" smooth="yes"/>
      <point x="105.5411376953125" y="428.09918212890625" type="line" smooth="yes"/>
    </contour>
  </outline>
</glyph>
<glyph name="plus" format="2">
  <advance width="640"/>
  <unicode hex="002B"/>
  <outline>
    <contour>
      <point x="246.0" y="37.57798767089844"/>
      <point x="290.0" y="-8.030706405639648"/>
      <point x="320.0" y="-8.030706405639648" type="curve" smooth="yes"/>
      <point x="350.0" y="-8.030706405639648"/>
      <point x="394.0" y="37.57798767089844"/>
      <point x="394.0" y="67.57798767089844" type="curve" smooth="yes"/>
      <point x="394.0" y="203.0" type="line"/>
      <point x="394.0" y="209.6"/>
      <point x="399.4" y="215.0"/>
      <point x="406.0" y="215.0" type="curve" smooth="yes"/>
      <point x="538.4141235351562" y="215.0" type="line" smooth="yes"/>
      <point x="567.4141235351562" y="215.0"/>
      <point x="612.0504760742188" y="259.0"/>
      <point x="612.0504760742188" y="287.0" type="curve" smooth="yes"/>
      <point x="612.0504760742188" y="315.0"/>
      <point x="567.4141235351562" y="359.0"/>
      <point x="538.4141235351562" y="359.0" type="curve" smooth="yes"/>
      <point x="406.0" y="359.0" type="line"/>
      <point x="399.4" y="359.0"/>
      <point x="394.0" y="364.4"/>
      <point x="394.0" y="371.0" type="curve" smooth="yes"/>
      <point x="394.0" y="501.5979919433594" type="line" smooth="yes"/>
      <point x="394.0" y="530.5979614257812"/>
      <point x="350.0" y="575.5979614257812"/>
      <point x="320.0" y="575.5979614257812" type="curve" smooth="yes"/>
      <point x="290.0" y="575.5979614257812"/>
      <point x="246.0" y="530.5979614257812"/>
      <point x="246.0" y="501.5979919433594" type="curve" smooth="yes"/>
      <point x="246.0" y="371.0" type="line"/>
      <point x="246.0" y="364.4"/>
      <point x="240.6" y="359.0"/>
      <point x="234.0" y="359.0" type="curve" smooth="yes"/>
      <point x="101.58587646484375" y="359.0" type="line" smooth="yes"/>
      <point x="73.58588027954102" y="359.0"/>
      <point x="27.949515342712402" y="315.0"/>
      <point x="27.949515342712402" y="287.0" type="curve" smooth="yes"/>
      <point x="27.949515342712402" y="259.0"/>
      <point x="73.58588027954102" y="215.0"/>
      <point x="101.58587646484375" y="215.0" type="curve" smooth="yes"/>
      <point x="234.0" y="215.0" type="line"/>
      <point x="240.6" y="215.0"/>
      <point x="246.0" y="209.6"/>
      <point x="246.0" y="203.0" type="curve" smooth="yes"/>
      <point x="246.0" y="67.57798767089844" type="line" smooth="yes"/>
    </contour>
  </outline>
</glyph>
<glyph name="comma" format="2">
  <advance width="288"/>
  <unicode hex="002C"/>
  <outline>
    <contour>
      <point x="36.92319297790527" y="-119.99984741210938"/>
      <point x="139.04578399658203" y="-195.94265747070312"/>
      <point x="174.0457763671875" y="-152.94265747070312" type="curve" smooth="yes"/>
      <point x="221.0457763671875" y="-94.94265747070312"/>
      <point x="250.79269409179688" y="9.449722290039062"/>
      <point x="250.79269409179688" y="57.44972229003906" type="curve" smooth="yes"/>
      <point x="250.79269409179688" y="115.44972229003906"/>
      <point x="192.1335906982422" y="184.43609619140625"/>
      <point x="146.1335906982422" y="184.43609619140625" type="curve" smooth="yes"/>
      <point x="100.13359069824219" y="184.43609619140625"/>
      <point x="31.036312103271484" y="113.89418029785156"/>
      <point x="31.036312103271484" y="70.89418029785156" type="curve" smooth="yes"/>
      <point x="31.036312103271484" y="28.831932067871094"/>
      <point x="63.50777816772461" y="-5.950284957885742"/>
      <point x="105.42701721191406" y="-9.551812171936035" type="curve"/>
      <point x="100.76786041259766" y="-29.18736457824707"/>
      <point x="90.06409454345703" y="-53.51332473754883"/>
      <point x="73.9231948852539" y="-73.99984741210938" type="curve" smooth="yes"/>
    </contour>
  </outline>
</glyph>
<glyph name="hyphen" format="2">
  <advance width="474"/>
  <unicode hex="002D"/>
  <outline>
    <contour>
      <point x="40.004079818725586" y="240.0"/>
      <point x="90.56407928466797" y="190.0"/>
      <point x="119.56407928466797" y="190.0" type="curve" smooth="yes"/>
      <point x="355.5979919433594" y="190.0" type="line" smooth="yes"/>
      <point x="383.5979919433594" y="190.0"/>
      <point x="433.5979919433594" y="240.0"/>
      <point x="433.5979919433594" y="268.0" type="curve" smooth="yes"/>
      <point x="433.5979919433594" y="297.0"/>
      <point x="383.5979919433594" y="346.0"/>
      <point x="355.5979919433594" y="346.0" type="curve" smooth="yes"/>
      <point x="119.56407928466797" y="346.0" type="line" smooth="yes"/>
      <point x="90.56407928466797" y="346.0"/>
      <point x="40.004079818725586" y="297.0"/>
      <point x="40.004079818725586" y="268.0" type="curve" smooth="yes"/>
    </contour>
  </outline>
</glyph>
<glyph name="period" format="2">
  <advance width="288"/>
  <unicode hex="002E"/>
  <outline>
    <contour>
      <point x="30.13265895843506" y="26.26936149597168"/>
      <point x="99.1333236694336" y="-44.73130416870117"/>
      <point x="145.1333236694336" y="-44.73130416870117" type="curve" smooth="yes"/>
      <point x="191.13333129882812" y="-44.73130416870117"/>
      <point x="258.598876953125" y="26.2675724029541"/>
      <point x="258.598876953125" y="70.26757049560547" type="curve" smooth="yes"/>
      <point x="258.598876953125" y="113.26757049560547"/>
      <point x="191.13153076171875" y="182.2015838623047"/>
      <point x="145.13152313232422" y="182.2015838623047" type="curve" smooth="yes"/>
      <point x="99.13152313232422" y="182.2015838623047"/>
      <point x="30.13265895843506" y="113.26936340332031"/>
      <point x="30.13265895843506" y="70.26936340332031" type="curve" smooth="yes"/>
    </contour>
  </outline>
</glyph>
<glyph name="slash" format="2">
  <advance width="353"/>
  <unicode hex="002F"/>
  <outline>
    <contour>
      <point x="-42.34468460083008" y="-84.39801025390625"/>
      <point x="106.1814956665039" y="-126.91140747070312"/>
      <point x="126.1814956665039" y="-63.911407470703125" type="curve" smooth="yes"/>
      <point x="374.41864013671875" y="707.66552734375" type="line" smooth="yes"/>
      <point x="395.41864013671875" y="772.66552734375"/>
      <point x="247.7470245361328" y="815.65283203125"/>
      <point x="226.7470245361328" y="751.65283203125" type="curve" smooth="yes"/>
      <point x="-21.344684600830078" y="-18.39801025390625" type="line" smooth="yes"/>
    </contour>
  </outline>
</glyph>
<glyph name="zero" format="2">
  <advance width="640"/>
  <unicode hex="0030"/>
  <outline>
    <contour>
      <point x="28.677003860473633" y="120.06700897216797"/>
      <point x="153.03138732910156" y="-58.5905647277832"/>
      <point x="320.0314025878906" y="-58.5905647277832" type="curve" smooth="yes"/>
      <point x="487.0314025878906" y="-58.5905647277832"/>
      <point x="611.3231201171875" y="120.11168670654297"/>
      <point x="611.3231201171875" y="355.1116943359375" type="curve" smooth="yes"/>
      <point x="611.3231201171875" y="590.1116943359375"/>
      <point x="487.9683837890625" y="763.2350463867188"/>
      <point x="319.9683837890625" y="763.2350463867188" type="curve" smooth="yes"/>
      <point x="152.9683837890625" y="763.2350463867188"/>
      <point x="28.677003860473633" y="590.0670166015625"/>
      <point x="28.677003860473633" y="354.0670166015625" type="curve" smooth="yes"/>
    </contour>
    <contour>
      <point x="421.48541259765625" y="175.875244140625"/>
      <point x="410.0" y="156.48269653320312"/>
      <point x="320.0" y="156.48269653320312" type="curve" smooth="yes"/>
      <point x="230.0" y="156.48269653320312"/>
      <point x="218.51458740234375" y="175.875244140625"/>
      <point x="218.51458740234375" y="354.875244140625" type="curve" smooth="yes"/>
      <point x="218.51458740234375" y="532.875244140625"/>
      <point x="230.0" y="549.4525146484375"/>
      <point x="320.0" y="549.4525146484375" type="curve" smooth="yes"/>
      <point x="411.0" y="549.4525146484375"/>
      <point x="421.48541259765625" y="533.875244140625"/>
      <point x="421.48541259765625" y="354.875244140625" type="curve" smooth="yes"/>
    </contour>
  </outline>
</glyph>
<glyph name="one" format="2">
  <advance width="640"/>
  <unicode hex="0031"/>
  <outline>
    <contour>
      <point x="80.64617919921875" y="20.38046646118164"/>
      <point x="129.55220794677734" y="-28.0"/>
      <point x="164.55221557617188" y="-28.0" type="curve" smooth="yes"/>
      <point x="529.4477844238281" y="-28.0" type="line" smooth="yes"/>
      <point x="564.4478149414062" y="-28.0"/>
      <point x="613.3538208007812" y="19.38046646118164"/>
      <point x="613.3538208007812" y="54.38046646118164" type="curve" smooth="yes"/>
      <point x="613.3538208007812" y="88.3804702758789"/>
      <point x="564.140869140625" y="134.0"/>
      <point x="529.140869140625" y="134.0" type="curve" smooth="yes"/>
      <point x="456.0" y="134.0" type="line"/>
      <point x="449.4" y="134.0"/>
      <point x="444.0" y="139.4"/>
      <point x="444.0" y="146.0" type="curve" smooth="yes"/>
      <point x="444.0" y="675.5979614257812" type="line" smooth="yes"/>
      <point x="444.0" y="709.5979614257812"/>
      <point x="402.0302429199219" y="745.5677490234375"/>
      <point x="374.0302429199219" y="745.5677490234375" type="curve" smooth="yes"/>
      <point x="351.0302429199219" y="745.5677490234375"/>
      <point x="304.74951171875" y="725.3062133789062"/>
      <point x="277.74951171875" y="709.3062133789062" type="curve" smooth="yes"/>
      <point x="114.51243591308594" y="611.1273803710938" type="line" smooth="yes"/>
      <point x="50.512434005737305" y="573.1273803710938"/>
      <point x="129.50159454345703" y="430.9118347167969"/>
      <point x="192.5015869140625" y="468.9118347167969" type="curve" smooth="yes"/>
      <point x="249.734813719906" y="503.563250832615" type="line"/>
      <point x="255.38066617395768" y="506.9814886925478"/>
      <point x="260.0" y="504.37822875976565"/>
      <point x="260.0" y="497.7782287597656" type="curve" smooth="yes"/>
      <point x="260.0" y="146.0" type="line"/>
      <point x="260.0" y="139.4"/>
      <point x="254.6" y="134.0"/>
      <point x="248.0" y="134.0" type="curve" smooth="yes"/>
      <point x="164.85914611816406" y="134.0" type="line" smooth="yes"/>
      <point x="129.85914611816406" y="134.0"/>
      <point x="80.64617919921875" y="88.3804702758789"/>
      <point x="80.64617919921875" y="54.38046646118164" type="curve" smooth="yes"/>
    </contour>
  </outline>
</glyph>
<glyph name="two" format="2">
  <advance width="640"/>
  <unicode hex="0032"/>
  <outline>
    <contour>
      <point x="57.31959533691406" y="14.08459758758545"/>
      <point x="98.95398712158203" y="-28.0"/>
      <point x="141.95398712158203" y="-28.0" type="curve" smooth="yes"/>
      <point x="532.4478149414062" y="-28.0" type="line" smooth="yes"/>
      <point x="568.4478149414062" y="-28.0"/>
      <point x="616.3538208007812" y="19.38046646118164"/>
      <point x="616.3538208007812" y="54.38046646118164" type="curve" smooth="yes"/>
      <point x="616.3538208007812" y="88.3804702758789"/>
      <point x="568.140869140625" y="134.0"/>
      <point x="532.140869140625" y="134.0" type="curve" smooth="yes"/>
      <point x="337.2676696777344" y="134.0" type="line"/>
      <point x="330.66766967773435" y="134.0"/>
      <point x="329.00568559465916" y="137.89708057458617"/>
      <point x="333.574371715345" y="142.66017905463593" type="curve" smooth="yes"/>
      <point x="438.1138916015625" y="251.648193359375" type="line" smooth="yes"/>
      <point x="525.1138916015625" y="342.648193359375"/>
      <point x="575.9660034179688" y="440.164306640625"/>
      <point x="575.9660034179688" y="525.164306640625" type="curve" smooth="yes"/>
      <point x="575.9660034179688" y="651.164306640625"/>
      <point x="464.5900573730469" y="746.053466796875"/>
      <point x="313.5900573730469" y="746.053466796875" type="curve" smooth="yes"/>
      <point x="241.5900421142578" y="746.053466796875"/>
      <point x="118.322509765625" y="711.09375"/>
      <point x="61.322505950927734" y="673.09375" type="curve" smooth="yes"/>
      <point x="2.3225059509277344" y="633.09375"/>
      <point x="81.61534881591797" y="491.6104431152344"/>
      <point x="140.61534881591797" y="531.6104125976562" type="curve" smooth="yes"/>
      <point x="186.6153564453125" y="562.6104125976562"/>
      <point x="238.75894165039062" y="575.8004150390625"/>
      <point x="284.7589416503906" y="575.8004150390625" type="curve" smooth="yes"/>
      <point x="364.7589416503906" y="575.8004150390625"/>
      <point x="378.80377197265625" y="564.81201171875"/>
      <point x="378.80377197265625" y="497.8120422363281" type="curve" smooth="yes"/>
      <point x="378.80377197265625" y="444.8120422363281"/>
      <point x="365.9037780761719" y="418.3085632324219"/>
      <point x="304.9037780761719" y="354.3085632324219" type="curve" smooth="yes"/>
      <point x="103.96088409423828" y="140.36935424804688" type="line" smooth="yes"/>
      <point x="80.96088790893555" y="116.36935424804688"/>
      <point x="57.31959533691406" y="74.0845947265625"/>
      <point x="57.31959533691406" y="51.084598541259766" type="curve" smooth="yes"/>
    </contour>
  </outline>
</glyph>
<glyph name="three" format="2">
  <advance width="640"/>
  <unicode hex="0033"/>
  <outline>
    <contour>
      <point x="107.9184799194336" y="-9.887855529785156"/>
      <point x="240.4565887451172" y="-40.6490478515625"/>
      <point x="312.45660400390625" y="-40.6490478515625" type="curve" smooth="yes"/>
      <point x="470.45660400390625" y="-40.6490478515625"/>
      <point x="599.682373046875" y="63.00518035888672"/>
      <point x="599.682373046875" y="188.0051727294922" type="curve" smooth="yes"/>
      <point x="599.682373046875" y="275.25048828125"/>
      <point x="548.0523681640625" y="344.76904296875"/>
      <point x="465.98382568359375" y="366.96868896484375" type="curve"/>
      <point x="533.5215454101562" y="392.6957092285156"/>
      <point x="577.5145263671875" y="457.88153076171875"/>
      <point x="577.5145263671875" y="533.7252807617188" type="curve" smooth="yes"/>
      <point x="577.5145263671875" y="650.7252807617188"/>
      <point x="460.3130187988281" y="745.8748168945312"/>
      <point x="314.3130187988281" y="745.8748168945312" type="curve" smooth="yes"/>
      <point x="240.31300354003906" y="745.8748168945312"/>
      <point x="121.50062561035156" y="712.3831787109375"/>
      <point x="64.5006217956543" y="675.3831787109375" type="curve" smooth="yes"/>
      <point x="1.5006217956542969" y="634.3831787109375"/>
      <point x="81.19529724121094" y="496.9788818359375"/>
      <point x="142.19529724121094" y="533.9788818359375" type="curve" smooth="yes"/>
      <point x="194.19529724121094" y="564.9788818359375"/>
      <point x="240.87400817871094" y="576.1572265625"/>
      <point x="290.8740234375" y="576.1572265625" type="curve" smooth="yes"/>
      <point x="367.8740234375" y="576.1572265625"/>
      <point x="371.8719787597656" y="573.1756591796875"/>
      <point x="371.8719787597656" y="512.1756591796875" type="curve" smooth="yes"/>
      <point x="371.8719787597656" y="446.1756286621094"/>
      <point x="358.6851806640625" y="437.0"/>
      <point x="283.6851806640625" y="437.0" type="curve" smooth="yes"/>
      <point x="230.99380493164062" y="437.0" type="line" smooth="yes"/>
      <point x="193.99380493164062" y="437.0"/>
      <point x="143.88059997558594" y="389.0"/>
      <point x="143.88059997558594" y="356.0" type="curve" smooth="yes"/>
      <point x="143.88059997558594" y="323.0"/>
      <point x="193.99380493164062" y="275.0"/>
      <point x="230.99380493164062" y="275.0" type="curve" smooth="yes"/>
      <point x="296.60980224609375" y="275.0" type="line" smooth="yes"/>
      <point x="381.60980224609375" y="275.0"/>
      <point x="391.1204528808594" y="270.5758972167969"/>
      <point x="391.1204528808594" y="203.57589721679688" type="curve" smooth="yes"/>
      <point x="391.1204528808594" y="134.57589721679688"/>
      <point x="383.6341247558594" y="128.6014404296875"/>
      <point x="295.6341247558594" y="128.6014404296875" type="curve" smooth="yes"/>
      <point x="242.63412475585938" y="128.6014404296875"/>
      <point x="186.126953125" y="141.56192016601562"/>
      <point x="131.126953125" y="171.56192016601562" type="curve" smooth="yes"/>
      <point x="61.126956939697266" y="209.56192016601562"/>
      <point x="-15.081520080566406" y="72.11214447021484"/>
      <point x="50.91848182678223" y="28.112144470214844" type="curve" smooth="yes"/>
    </contour>
  </outline>
</glyph>
<glyph name="four" format="2">
  <advance width="640"/>
  <unicode hex="0034"/>
  <outline>
    <contour>
      <point x="341.0" y="3.402020215988159"/>
      <point x="393.0" y="-47.59798049926758"/>
      <point x="433.0" y="-47.59798049926758" type="curve" smooth="yes"/>
      <point x="473.0" y="-47.59798049926758"/>
      <point x="525.0" y="3.402020215988159"/>
      <point x="525.0" y="44.40201950073242" type="curve" smooth="yes"/>
      <point x="525.0" y="94.0" type="line"/>
      <point x="525.0" y="100.6"/>
      <point x="530.4" y="106.0"/>
      <point x="537.0" y="106.0" type="curve" smooth="yes"/>
      <point x="556.8663330078125" y="106.0" type="line" smooth="yes"/>
      <point x="594.8663330078125" y="106.0"/>
      <point x="645.5078735351562" y="152.0"/>
      <point x="645.5078735351562" y="187.0" type="curve" smooth="yes"/>
      <point x="645.5078735351562" y="222.0"/>
      <point x="594.8663330078125" y="268.0"/>
      <point x="556.8663330078125" y="268.0" type="curve" smooth="yes"/>
      <point x="537.0" y="268.0" type="line"/>
      <point x="530.4" y="268.0"/>
      <point x="525.0" y="273.4"/>
      <point x="525.0" y="280.0" type="curve" smooth="yes"/>
      <point x="525.0" y="660.072509765625" type="line" smooth="yes"/>
      <point x="525.0" y="704.072509765625"/>
      <point x="476.8057861328125" y="748.8130493164062"/>
      <point x="441.8057861328125" y="748.8130493164062" type="curve" smooth="yes"/>
      <point x="411.8057861328125" y="748.8130493164062"/>
      <point x="366.3110046386719" y="718.7662353515625"/>
      <point x="347.3110046386719" y="690.7662353515625" type="curve" smooth="yes"/>
      <point x="68.53357696533203" y="286.8442077636719" type="line" smooth="yes"/>
      <point x="39.5335750579834" y="244.84420776367188"/>
      <point x="19.389629423618317" y="200.47549438476562"/>
      <point x="19.389629423618317" y="178.47549438476562" type="curve" smooth="yes"/>
      <point x="19.389629423618317" y="142.47549438476562"/>
      <point x="71.37705993652344" y="106.0"/>
      <point x="112.37705993652344" y="106.0" type="curve" smooth="yes"/>
      <point x="329.0" y="106.0" type="line"/>
      <point x="335.6" y="106.0"/>
      <point x="341.0" y="100.6"/>
      <point x="341.0" y="94.0" type="curve" smooth="yes"/>
      <point x="341.0" y="44.40201950073242" type="line" smooth="yes"/>
    </contour>
    <contour>
      <point x="341.2405616909855" y="279.99758851073125" type="line"/>
      <point x="341.10825276094346" y="273.3989148298291"/>
      <point x="335.6" y="268.0"/>
      <point x="329.0" y="268.0" type="curve" smooth="yes"/>
      <point x="250.18214416503906" y="268.0" type="line"/>
      <point x="243.58214416503907" y="268.0"/>
      <point x="241.14980601677902" y="272.51142805924326"/>
      <point x="244.7769482800167" y="278.02539568720726" type="curve" smooth="yes"/>
      <point x="337.63773983033485" y="419.19201153935524" type="line"/>
      <point x="341.26488209357257" y="424.70597916731924"/>
      <point x="344.12429118436904" y="423.8184923967334"/>
      <point x="343.991982254327" y="417.21981871583125" type="curve" smooth="yes"/>
    </contour>
  </outline>
</glyph>
<glyph name="five" format="2">
  <advance width="640"/>
  <unicode hex="0035"/>
  <outline>
    <contour>
      <point x="136.53376007080078" y="-9.713671684265137"/>
      <point x="262.4718475341797" y="-41.0604248046875"/>
      <point x="333.47186279296875" y="-41.0604248046875" type="curve" smooth="yes"/>
      <point x="491.47186279296875" y="-41.0604248046875"/>
      <point x="622.357177734375" y="82.8703384399414"/>
      <point x="622.357177734375" y="221.87034606933594" type="curve" smooth="yes"/>
      <point x="622.357177734375" y="355.8703308105469"/>
      <point x="502.0744934082031" y="479.7373046875"/>
      <point x="369.0744934082031" y="479.7373046875" type="curve" smooth="yes"/>
      <point x="319.40985107421875" y="479.7373046875"/>
      <point x="293.40472412109375" y="471.9468688964844"/>
      <point x="259.0" y="446.1565246582031" type="curve"/>
      <point x="259.0" y="559.0" type="line"/>
      <point x="259.0" y="565.6"/>
      <point x="264.4" y="571.0"/>
      <point x="271.0" y="571.0" type="curve" smooth="yes"/>
      <point x="502.1492004394531" y="571.0" type="line" smooth="yes"/>
      <point x="538.149169921875" y="571.0"/>
      <point x="587.7340698242188" y="618.0"/>
      <point x="587.7340698242188" y="652.0" type="curve" smooth="yes"/>
      <point x="587.7340698242188" y="686.0"/>
      <point x="538.149169921875" y="733.0"/>
      <point x="502.1492004394531" y="733.0" type="curve" smooth="yes"/>
      <point x="150.4020233154297" y="733.0" type="line" smooth="yes"/>
      <point x="114.40202331542969" y="733.0"/>
      <point x="78.0" y="696.5979614257812"/>
      <point x="78.0" y="660.5979614257812" type="curve" smooth="yes"/>
      <point x="78.0" y="310.0726623535156" type="line" smooth="yes"/>
      <point x="78.0" y="279.0726623535156"/>
      <point x="117.04447937011719" y="239.8926544189453"/>
      <point x="151.0444793701172" y="239.8926544189453" type="curve" smooth="yes"/>
      <point x="172.0444793701172" y="239.8926544189453"/>
      <point x="208.64637756347656" y="259.0972595214844"/>
      <point x="220.64637756347656" y="270.0972595214844" type="curve" smooth="yes"/>
      <point x="258.64637756347656" y="305.0972595214844"/>
      <point x="281.2618713378906" y="310.3446044921875"/>
      <point x="324.2618713378906" y="310.3446044921875" type="curve" smooth="yes"/>
      <point x="403.2618713378906" y="310.3446044921875"/>
      <point x="417.1047668457031" y="292.96380615234375"/>
      <point x="417.1047668457031" y="218.9637908935547" type="curve" smooth="yes"/>
      <point x="417.1047668457031" y="145.9637908935547"/>
      <point x="400.70623779296875" y="129.05467224121094"/>
      <point x="316.70623779296875" y="129.05467224121094" type="curve" smooth="yes"/>
      <point x="258.7062530517578" y="129.05467224121094"/>
      <point x="202.99661254882812" y="145.9041290283203"/>
      <point x="153.99661254882812" y="173.9041290283203" type="curve" smooth="yes"/>
      <point x="87.9966049194336" y="211.9041290283203"/>
      <point x="11.533758163452148" y="70.28633117675781"/>
      <point x="75.53375625610352" y="29.286327362060547" type="curve" smooth="yes"/>
    </contour>
  </outline>
</glyph>
<glyph name="six" format="2">
  <advance width="640"/>
  <unicode hex="0036"/>
  <outline>
    <contour>
      <point x="36.224727630615234" y="118.27547454833984"/>
      <point x="168.5683135986328" y="-52.316707611083984"/>
      <point x="343.5683288574219" y="-52.316707611083984" type="curve" smooth="yes"/>
      <point x="480.5683288574219" y="-52.316707611083984"/>
      <point x="617.72265625" y="88.36752319335938"/>
      <point x="617.72265625" y="225.36752319335938" type="curve" smooth="yes"/>
      <point x="617.72265625" y="356.3675231933594"/>
      <point x="495.3814392089844" y="488.5020751953125"/>
      <point x="374.3814392089844" y="488.5020751953125" type="curve" smooth="yes"/>
      <point x="293.16546630859375" y="488.5020751953125"/>
      <point x="250.923828125" y="461.2899475097656"/>
      <point x="222.79464721679688" y="389.50579833984375" type="curve"/>
      <point x="229.33090209960938" y="524.3449096679688"/>
      <point x="276.7055358886719" y="574.6629638671875"/>
      <point x="383.9563293457031" y="574.6629638671875" type="curve" smooth="yes"/>
      <point x="423.9563293457031" y="574.6629638671875"/>
      <point x="465.087158203125" y="565.0443725585938"/>
      <point x="510.087158203125" y="538.0443725585938" type="curve" smooth="yes"/>
      <point x="574.087158203125" y="500.0443420410156"/>
      <point x="644.1002197265625" y="642.3118286132812"/>
      <point x="592.1002197265625" y="677.3118286132812" type="curve" smooth="yes"/>
      <point x="539.1002197265625" y="713.3118286132812"/>
      <point x="423.1376647949219" y="747.345947265625"/>
      <point x="365.1376647949219" y="747.345947265625" type="curve" smooth="yes"/>
      <point x="175.13768005371094" y="747.345947265625"/>
      <point x="36.224727630615234" y="579.2754516601562"/>
      <point x="36.224727630615234" y="340.2754821777344" type="curve" smooth="yes"/>
    </contour>
    <contour>
      <point x="421.679443359375" y="144.0738067626953"/>
      <point x="411.0" y="132.92794799804688"/>
      <point x="339.0" y="132.92794799804688" type="curve" smooth="yes"/>
      <point x="267.0" y="132.92794799804688"/>
      <point x="256.32054138183594" y="144.0738067626953"/>
      <point x="256.32054138183594" y="221.0738067626953" type="curve" smooth="yes"/>
      <point x="256.32054138183594" y="298.0738220214844"/>
      <point x="267.0" y="309.9029846191406"/>
      <point x="339.0" y="309.9029846191406" type="curve" smooth="yes"/>
      <point x="411.0" y="309.9029846191406"/>
      <point x="421.679443359375" y="298.0738220214844"/>
      <point x="421.679443359375" y="221.0738067626953" type="curve" smooth="yes"/>
    </contour>
  </outline>
</glyph>
<glyph name="seven" format="2">
  <advance width="640"/>
  <unicode hex="0037"/>
  <outline>
    <contour>
      <point x="89.01805877685547" y="27.491743087768555"/>
      <point x="134.65398406982422" y="-46.256046295166016"/>
      <point x="181.65399169921875" y="-46.256046295166016" type="curve" smooth="yes"/>
      <point x="217.65399169921875" y="-46.256046295166016"/>
      <point x="271.0318908691406" y="-15.203001976013184"/>
      <point x="286.0318908691406" y="13.796998023986816" type="curve" smooth="yes"/>
      <point x="575.0669555664062" y="566.4238891601562" type="line" smooth="yes"/>
      <point x="588.0669555664062" y="591.4238891601562"/>
      <point x="602.92626953125" y="630.1324462890625"/>
      <point x="602.92626953125" y="660.1324462890625" type="curve" smooth="yes"/>
      <point x="602.92626953125" y="694.1324462890625"/>
      <point x="556.6129150390625" y="733.0"/>
      <point x="520.6129150390625" y="733.0" type="curve" smooth="yes"/>
      <point x="111.6990966796875" y="733.0" type="line" smooth="yes"/>
      <point x="75.6990966796875" y="733.0"/>
      <point x="26.465832233428955" y="685.810791015625"/>
      <point x="26.465832233428955" y="650.810791015625" type="curve" smooth="yes"/>
      <point x="26.465832233428955" y="616.810791015625"/>
      <point x="75.8508071899414" y="570.0"/>
      <point x="111.8508071899414" y="570.0" type="curve" smooth="yes"/>
      <point x="365.006591796875" y="570.0" type="line"/>
      <point x="371.606591796875" y="570.0"/>
      <point x="374.4715171461021" y="565.2320448287543"/>
      <point x="371.3730925729352" y="559.4045440638985" type="curve" smooth="yes"/>
      <point x="113.01805877685547" y="73.49174499511719" type="line" smooth="yes"/>
    </contour>
  </outline>
</glyph>
<glyph name="eight" format="2">
  <advance width="640"/>
  <unicode hex="0038"/>
  <outline>
    <contour>
      <point x="19.645011454820633" y="58.05291748046875"/>
      <point x="156.0" y="-45.22570037841797"/>
      <point x="320.0" y="-45.22570037841797" type="curve" smooth="yes"/>
      <point x="484.0" y="-45.22570037841797"/>
      <point x="620.2479858398438" y="57.971229553222656"/>
      <point x="620.2479858398438" y="183.9712371826172" type="curve" smooth="yes"/>
      <point x="620.2479858398438" y="268.08355712890625"/>
      <point x="568.3963623046875" y="338.35760498046875"/>
      <point x="496.2331848144531" y="362.8812255859375" type="curve"/>
      <point x="558.875244140625" y="389.40740966796875"/>
      <point x="602.2008666992188" y="456.67822265625"/>
      <point x="602.2008666992188" y="531.5835571289062" type="curve" smooth="yes"/>
      <point x="602.2008666992188" y="650.5835571289062"/>
      <point x="469.9648742675781" y="750.46044921875"/>
      <point x="319.9648742675781" y="750.46044921875" type="curve" smooth="yes"/>
      <point x="170.96485900878906" y="750.46044921875"/>
      <point x="38.775909423828125" y="650.5018310546875"/>
      <point x="38.775909423828125" y="531.5018310546875" type="curve" smooth="yes"/>
      <point x="38.775909423828125" y="457.502197265625"/>
      <point x="81.97360229492188" y="391.2398681640625"/>
      <point x="145.1163558959961" y="363.13873291015625" type="curve"/>
      <point x="72.78961181640625" y="339.11358642578125"/>
      <point x="19.645011454820633" y="268.8443908691406"/>
      <point x="19.645011454820633" y="184.05291748046875" type="curve" smooth="yes"/>
    </contour>
    <contour>
      <point x="416.67657470703125" y="126.89720916748047"/>
      <point x="414.0" y="125.2066650390625"/>
      <point x="320.0" y="125.2066650390625" type="curve" smooth="yes"/>
      <point x="227.0" y="125.2066650390625"/>
      <point x="223.3234100341797" y="126.89720916748047"/>
      <point x="223.3234100341797" y="198.89720153808594" type="curve" smooth="yes"/>
      <point x="223.3234100341797" y="270.897216796875"/>
      <point x="227.0" y="271.91168212890625"/>
      <point x="320.0" y="271.91168212890625" type="curve" smooth="yes"/>
      <point x="414.0" y="271.91168212890625"/>
      <point x="416.67657470703125" y="270.897216796875"/>
      <point x="416.67657470703125" y="198.89720153808594" type="curve" smooth="yes"/>
    </contour>
    <contour>
      <point x="402.013427734375" y="446.7923583984375"/>
      <point x="399.07159423828125" y="443.5074768066406"/>
      <point x="320.07159423828125" y="443.5074768066406" type="curve" smooth="yes"/>
      <point x="241.0715789794922" y="443.5074768066406"/>
      <point x="238.77926635742188" y="446.79302978515625"/>
      <point x="238.77926635742188" y="511.79302978515625" type="curve" smooth="yes"/>
      <point x="238.77926635742188" y="575.7930297851562"/>
      <point x="241.07077026367188" y="578.7772216796875"/>
      <point x="320.0707702636719" y="578.7772216796875" type="curve" smooth="yes"/>
      <point x="399.0707702636719" y="578.7772216796875"/>
      <point x="402.013427734375" y="575.7923583984375"/>
      <point x="402.013427734375" y="511.7923583984375" type="curve" smooth="yes"/>
    </contour>
  </outline>
</glyph>
<glyph name="nine" format="2">
  <advance width="640"/>
  <unicode hex="0039"/>
  <outline>
    <contour>
      <point x="100.89979553222656" y="-8.31180477142334"/>
      <point x="216.86231994628906" y="-42.34595489501953"/>
      <point x="274.86231994628906" y="-42.34595489501953" type="curve" smooth="yes"/>
      <point x="464.8623352050781" y="-42.34595489501953"/>
      <point x="603.7752685546875" y="125.72452545166016"/>
      <point x="603.7752685546875" y="364.7245178222656" type="curve" smooth="yes"/>
      <point x="603.7752685546875" y="586.7245483398438"/>
      <point x="471.4316711425781" y="757.3167114257812"/>
      <point x="296.4316711425781" y="757.3167114257812" type="curve" smooth="yes"/>
      <point x="159.4316864013672" y="757.3167114257812"/>
      <point x="22.277333736419678" y="616.6324462890625"/>
      <point x="22.277333736419678" y="479.6324768066406" type="curve" smooth="yes"/>
      <point x="22.277333736419678" y="348.6324768066406"/>
      <point x="144.61856842041016" y="216.49794006347656"/>
      <point x="265.6185607910156" y="216.49794006347656" type="curve" smooth="yes"/>
      <point x="346.83453369140625" y="216.49794006347656"/>
      <point x="389.076171875" y="243.71005249023438"/>
      <point x="417.2053527832031" y="315.49420166015625" type="curve"/>
      <point x="410.6690979003906" y="180.65505981445312"/>
      <point x="363.2944641113281" y="130.33702087402344"/>
      <point x="256.0436706542969" y="130.33702087402344" type="curve" smooth="yes"/>
      <point x="216.04367065429688" y="130.33702087402344"/>
      <point x="174.91285705566406" y="139.9556427001953"/>
      <point x="129.91284942626953" y="166.9556427001953" type="curve" smooth="yes"/>
      <point x="65.9128532409668" y="204.9556427001953"/>
      <point x="-4.100200653076172" y="62.688194274902344"/>
      <point x="47.89979934692383" y="27.688196182250977" type="curve" smooth="yes"/>
    </contour>
    <contour>
      <point x="384.679443359375" y="407.9261779785156"/>
      <point x="374.0" y="396.0970153808594"/>
      <point x="302.0" y="396.0970153808594" type="curve" smooth="yes"/>
      <point x="230.0" y="396.0970153808594"/>
      <point x="219.32054138183594" y="407.9261779785156"/>
      <point x="219.32054138183594" y="484.9261779785156" type="curve" smooth="yes"/>
      <point x="219.32054138183594" y="561.9262084960938"/>
      <point x="230.0" y="573.0720825195312"/>
      <point x="302.0" y="573.0720825195312" type="curve" smooth="yes"/>
      <point x="374.0" y="573.0720825195312"/>
      <point x="384.679443359375" y="561.9262084960938"/>
      <point x="384.679443359375" y="484.9261779785156" type="curve" smooth="yes"/>
    </contour>
  </outline>
</glyph>
<glyph name="colon" format="2">
  <advance width="288"/>
  <unicode hex="003A"/>
  <outline>
    <contour>
      <point x="30.13265895843506" y="26.26936149597168"/>
      <point x="99.1333236694336" y="-44.73130416870117"/>
      <point x="145.1333236694336" y="-44.73130416870117" type="curve" smooth="yes"/>
      <point x="191.13333129882812" y="-44.73130416870117"/>
      <point x="258.598876953125" y="26.2675724029541"/>
      <point x="258.598876953125" y="70.26757049560547" type="curve" smooth="yes"/>
      <point x="258.598876953125" y="113.26757049560547"/>
      <point x="191.13153076171875" y="182.2015838623047"/>
      <point x="145.13152313232422" y="182.2015838623047" type="curve" smooth="yes"/>
      <point x="99.13152313232422" y="182.2015838623047"/>
      <point x="30.13265895843506" y="113.26936340332031"/>
      <point x="30.13265895843506" y="70.26936340332031" type="curve" smooth="yes"/>
    </contour>
    <contour>
      <point x="30.13356876373291" y="377.0"/>
      <point x="99.13243103027344" y="306.5344543457031"/>
      <point x="145.13243103027344" y="306.5344543457031" type="curve" smooth="yes"/>
      <point x="191.13243103027344" y="306.5344543457031"/>
      <point x="258.5979766845703" y="377.0"/>
      <point x="258.5979766845703" y="420.0" type="curve" smooth="yes"/>
      <point x="258.5979766845703" y="464.0"/>
      <point x="191.13243103027344" y="533.465576171875"/>
      <point x="145.13243103027344" y="533.465576171875" type="curve" smooth="yes"/>
      <point x="99.13243103027344" y="533.465576171875"/>
      <point x="30.13356876373291" y="464.0"/>
      <point x="30.13356876373291" y="420.0" type="curve" smooth="yes"/>
    </contour>
  </outline>
</glyph>
<glyph name="semicolon" format="2">
  <advance width="288"/>
  <unicode hex="003B"/>
  <outline>
    <contour>
      <point x="36.92319297790527" y="-119.99984741210938"/>
      <point x="139.04578399658203" y="-195.94265747070312"/>
      <point x="174.0457763671875" y="-152.94265747070312" type="curve" smooth="yes"/>
      <point x="221.0457763671875" y="-94.94265747070312"/>
      <point x="250.79269409179688" y="9.449722290039062"/>
      <point x="250.79269409179688" y="57.44972229003906" type="curve" smooth="yes"/>
      <point x="250.79269409179688" y="115.44972229003906"/>
      <point x="192.1335906982422" y="184.43609619140625"/>
      <point x="146.1335906982422" y="184.43609619140625" type="curve" smooth="yes"/>
      <point x="100.13359069824219" y="184.43609619140625"/>
      <point x="31.036312103271484" y="113.89418029785156"/>
      <point x="31.036312103271484" y="70.89418029785156" type="curve" smooth="yes"/>
      <point x="31.036312103271484" y="28.831932067871094"/>
      <point x="63.50777816772461" y="-5.950284957885742"/>
      <point x="105.42701721191406" y="-9.551812171936035" type="curve"/>
      <point x="100.76786041259766" y="-29.18736457824707"/>
      <point x="90.06409454345703" y="-53.51332473754883"/>
      <point x="73.9231948852539" y="-73.99984741210938" type="curve" smooth="yes"/>
    </contour>
    <contour>
      <point x="30.13356876373291" y="377.0"/>
      <point x="99.13243103027344" y="306.5344543457031"/>
      <point x="145.13243103027344" y="306.5344543457031" type="curve" smooth="yes"/>
      <point x="191.13243103027344" y="306.5344543457031"/>
      <point x="258.5979766845703" y="377.0"/>
      <point x="258.5979766845703" y="420.0" type="curve" smooth="yes"/>
      <point x="258.5979766845703" y="464.0"/>
      <point x="191.13243103027344" y="533.465576171875"/>
      <point x="145.13243103027344" y="533.465576171875" type="curve" smooth="yes"/>
      <point x="99.13243103027344" y="533.465576171875"/>
      <point x="30.13356876373291" y="464.0"/>
      <point x="30.13356876373291" y="420.0" type="curve" smooth="yes"/>
    </contour>
  </outline>
</glyph>
<glyph name="less" format="2">
  <advance width="640"/>
  <unicode hex="003C"/>
  <outline>
    <contour>
      <point x="533.6192016601562" y="16.00435447692871" type="line" smooth="yes"/>
      <point x="590.6192016601562" y="-7.995645999908447"/>
      <point x="641.0087890625" y="127.25259399414062"/>
      <point x="586.0087890625" y="150.25259399414062" type="curve" smooth="yes"/>
      <point x="271.27109478191574" y="282.35579908474233" type="line"/>
      <point x="265.1854150456609" y="284.91010958813405"/>
      <point x="265.18541508003057" y="289.0898903299798"/>
      <point x="271.2710948582927" y="291.64420073328847" type="curve" smooth="yes"/>
      <point x="585.9060668945312" y="423.70428466796875" type="line" smooth="yes"/>
      <point x="640.9060668945312" y="446.70428466796875"/>
      <point x="590.705810546875" y="583.0988159179688"/>
      <point x="533.705810546875" y="559.0988159179688" type="curve" smooth="yes"/>
      <point x="99.83670806884766" y="374.7044372558594" type="line" smooth="yes"/>
      <point x="68.83671188354492" y="361.7044372558594"/>
      <point x="37.696773529052734" y="318.2488708496094"/>
      <point x="37.696773529052734" y="288.2488708496094" type="curve" smooth="yes"/>
      <point x="37.696773529052734" y="257.2488708496094"/>
      <point x="68.653076171875" y="212.35504150390625"/>
      <point x="99.653076171875" y="199.35504150390625" type="curve" smooth="yes"/>
    </contour>
  </outline>
</glyph>
<glyph name="equal" format="2">
  <advance width="640"/>
  <unicode hex="003D"/>
  <outline>
    <contour>
      <point x="27.949515342712402" y="359.0"/>
      <point x="73.58588027954102" y="315.0"/>
      <point x="101.58587646484375" y="315.0" type="curve" smooth="yes"/>
      <point x="538.4141235351562" y="315.0" type="line" smooth="yes"/>
      <point x="567.4141235351562" y="315.0"/>
      <point x="612.0504760742188" y="359.0"/>
      <point x="612.0504760742188" y="387.0" type="curve" smooth="yes"/>
      <point x="612.0504760742188" y="415.0"/>
      <point x="567.4141235351562" y="459.0"/>
      <point x="538.4141235351562" y="459.0" type="curve" smooth="yes"/>
      <point x="101.58587646484375" y="459.0" type="line" smooth="yes"/>
      <point x="73.58588027954102" y="459.0"/>
      <point x="27.949515342712402" y="415.0"/>
      <point x="27.949515342712402" y="387.0" type="curve" smooth="yes"/>
    </contour>
    <contour>
      <point x="27.712846279144287" y="160.23141479492188"/>
      <point x="73.58588027954102" y="116.0"/>
      <point x="101.58587646484375" y="116.0" type="curve" smooth="yes"/>
      <point x="538.4141235351562" y="116.0" type="line" smooth="yes"/>
      <point x="567.4141235351562" y="116.0"/>
      <point x="612.2871704101562" y="159.23141479492188"/>
      <point x="612.2871704101562" y="188.23141479492188" type="curve" smooth="yes"/>
      <point x="612.2871704101562" y="216.23141479492188"/>
      <point x="567.2269897460938" y="259.0"/>
      <point x="538.2269897460938" y="259.0" type="curve" smooth="yes"/>
      <point x="101.77300262451172" y="259.0" type="line" smooth="yes"/>
      <point x="73.77299880981445" y="259.0"/>
      <point x="27.712846279144287" y="216.23141479492188"/>
      <point x="27.712846279144287" y="188.23141479492188" type="curve" smooth="yes"/>
    </contour>
  </outline>
</glyph>
<glyph name="greater" format="2">
  <advance width="640"/>
  <unicode hex="003E"/>
  <outline>
    <contour>
      <point x="-0.008771896362304688" y="127.25259399414062"/>
      <point x="50.38078498840332" y="-7.995645999908447"/>
      <point x="107.38078308105469" y="16.00435447692871" type="curve" smooth="yes"/>
      <point x="541.346923828125" y="199.35504150390625" type="line" smooth="yes"/>
      <point x="572.346923828125" y="212.35504150390625"/>
      <point x="603.30322265625" y="257.2488708496094"/>
      <point x="603.30322265625" y="288.2488708496094" type="curve" smooth="yes"/>
      <point x="603.30322265625" y="318.2488708496094"/>
      <point x="572.1632690429688" y="361.7044372558594"/>
      <point x="541.1632690429688" y="374.7044372558594" type="curve" smooth="yes"/>
      <point x="107.29421997070312" y="559.0988159179688" type="line" smooth="yes"/>
      <point x="50.294219970703125" y="583.0988159179688"/>
      <point x="0.09393119812011719" y="446.70428466796875"/>
      <point x="55.093929290771484" y="423.70428466796875" type="curve" smooth="yes"/>
      <point x="369.7289203034412" y="291.6442005020533" type="line"/>
      <point x="375.8146001350837" y="289.08989022592397"/>
      <point x="375.8146002131282" y="284.91010958813405"/>
      <point x="369.7289204768733" y="282.35579908474233" type="curve" smooth="yes"/>
      <point x="54.99122619628906" y="150.25259399414062" type="line" smooth="yes"/>
    </contour>
  </outline>
</glyph>
<glyph name="question" format="2">
  <advance width="499"/>
  <unicode hex="003F"/>
  <outline>
    <contour>
      <point x="126.13265991210938" y="26.26936149597168"/>
      <point x="195.13333129882812" y="-44.73130416870117"/>
      <point x="241.13333129882812" y="-44.73130416870117" type="curve" smooth="yes"/>
      <point x="287.1333312988281" y="-44.73130416870117"/>
      <point x="354.598876953125" y="26.2675724029541"/>
      <point x="354.598876953125" y="70.26757049560547" type="curve" smooth="yes"/>
      <point x="354.598876953125" y="105.2894515991211"/>
      <point x="309.844482421875" y="157.51463317871094"/>
      <point x="268.3846893310547" y="175.68850708007812" type="curve"/>
      <point x="286.38726806640625" y="186.90789794921875"/>
      <point x="302.89874267578125" y="204.85223388671875"/>
      <point x="304.1871643066406" y="217.0922393798828" type="curve" smooth="yes"/>
      <point x="310.1871643066406" y="264.09222412109375"/>
      <point x="332.21197509765625" y="304.9044494628906"/>
      <point x="395.21197509765625" y="361.9044494628906" type="curve" smooth="yes"/>
      <point x="464.21197509765625" y="424.9044494628906"/>
      <point x="499.8003845214844" y="494.4613342285156"/>
      <point x="499.8003845214844" y="556.4613647460938" type="curve" smooth="yes"/>
      <point x="499.8003845214844" y="655.4613647460938"/>
      <point x="385.0288391113281" y="745.8834838867188"/>
      <point x="259.0288391113281" y="745.8834838867188" type="curve" smooth="yes"/>
      <point x="196.02883911132812" y="745.8834838867188"/>
      <point x="72.3370361328125" y="712.4054565429688"/>
      <point x="18.337037801742554" y="676.4054565429688" type="curve" smooth="yes"/>
      <point x="-50.6629638671875" y="630.4054565429688"/>
      <point x="19.77879537642002" y="491.72540283203125"/>
      <point x="92.77879333496094" y="533.7254028320312" type="curve" smooth="yes"/>
      <point x="136.77879333496094" y="558.7254028320312"/>
      <point x="186.14459228515625" y="576.1502685546875"/>
      <point x="239.14459228515625" y="576.1502685546875" type="curve" smooth="yes"/>
      <point x="297.14459228515625" y="576.1502685546875"/>
      <point x="301.5851135253906" y="571.9624633789062"/>
      <point x="301.5851135253906" y="527.9624633789062" type="curve" smooth="yes"/>
      <point x="301.5851135253906" y="490.96246337890625"/>
      <point x="296.695068359375" y="482.0050354003906"/>
      <point x="254.69508361816406" y="435.0050354003906" type="curve" smooth="yes"/>
      <point x="198.69508361816406" y="372.0050354003906"/>
      <point x="170.16563415527344" y="306.0882263183594"/>
      <point x="170.16563415527344" y="245.08822631835938" type="curve" smooth="yes"/>
      <point x="170.16563415527344" y="225.0613555908203"/>
      <point x="192.84896850585938" y="192.88909912109375"/>
      <point x="214.91488647460938" y="176.19058227539062" type="curve"/>
      <point x="172.76486206054688" y="158.4955596923828"/>
      <point x="126.13265991210938" y="105.61944580078125"/>
      <point x="126.13265991210938" y="70.26936340332031" type="curve" smooth="yes"/>
    </contour>
  </outline>
</glyph>
<glyph name="at" format="2">
  <advance width="990"/>
  <unicode hex="0040"/>
  <outline>
    <contour>
      <point x="34.380754470825195" y="7.067119121551514"/>
      <point x="240.79574584960938" y="-196.42059326171875"/>
      <point x="497.7957458496094" y="-196.42059326171875" type="curve" smooth="yes"/>
      <point x="605.7957763671875" y="-196.42059326171875"/>
      <point x="747.0802001953125" y="-152.62693786621094"/>
      <point x="808.0802001953125" y="-108.62693786621094" type="curve" smooth="yes"/>
      <point x="855.0802001953125" y="-74.62693786621094"/>
      <point x="783.2933959960938" y="39.566890716552734"/>
      <point x="734.2933959960938" y="5.566891193389893" type="curve" smooth="yes"/>
      <point x="676.2933959960938" y="-34.433109283447266"/>
      <point x="602.475341796875" y="-56.5113639831543"/>
      <point x="514.475341796875" y="-56.5113639831543" type="curve" smooth="yes"/>
      <point x="303.475341796875" y="-56.5113639831543"/>
      <point x="200.05496215820312" y="45.93400955200195"/>
      <point x="200.05496215820312" y="267.93402099609375" type="curve" smooth="yes"/>
      <point x="200.05496215820312" y="492.93402099609375"/>
      <point x="304.88153076171875" y="598.8088989257812"/>
      <point x="522.8815307617188" y="598.8088989257812" type="curve" smooth="yes"/>
      <point x="717.8815307617188" y="598.8088989257812"/>
      <point x="803.2823486328125" y="521.1549682617188"/>
      <point x="803.2823486328125" y="336.1549987792969" type="curve" smooth="yes"/>
      <point x="803.2823486328125" y="211.15499877929688"/>
      <point x="787.4818725585938" y="182.63414001464844"/>
      <point x="722.4818725585938" y="182.63414001464844" type="curve" smooth="yes"/>
      <point x="708.017333984375" y="182.63414001464844"/>
      <point x="702.551025390625" y="178.93002319335938"/>
      <point x="701.1159057617188" y="177.5479736328125" type="curve"/>
      <point x="702.2256469726562" y="179.28326416015625"/>
      <point x="705.1663818359375" y="185.8197479248047"/>
      <point x="705.1663818359375" y="202.9465789794922" type="curve" smooth="yes"/>
      <point x="705.1663818359375" y="211.8340606689453"/>
      <point x="704.9091796875" y="214.6451416015625"/>
      <point x="705.0671997070312" y="217.43267822265625" type="curve" smooth="yes"/>
      <point x="705.2826538085938" y="221.2317352294922"/>
      <point x="706.26953125" y="224.98704528808594"/>
      <point x="709.730224609375" y="244.02099609375" type="curve" smooth="yes"/>
      <point x="745.7783813476562" y="448.6473083496094" type="line" smooth="yes"/>
      <point x="751.7783813476562" y="481.6473083496094"/>
      <point x="710.0348510742188" y="531.669677734375"/>
      <point x="679.0348510742188" y="531.669677734375" type="curve" smooth="yes"/>
      <point x="651.0348510742188" y="531.669677734375"/>
      <point x="602.0997314453125" y="493.9156494140625"/>
      <point x="597.0997314453125" y="463.9156494140625" type="curve"/>
      <point x="598.0027709960938" y="469.3339050292969" type="line"/>
      <point x="598.3338854980469" y="471.32059875488284"/>
      <point x="597.1798283481265" y="473.7737414328681"/>
      <point x="595.4381995518264" y="474.7853332025976" type="curve" smooth="yes"/>
      <point x="576.7860107421875" y="519.2803344726562"/>
      <point x="550.0762939453125" y="534.9964599609375"/>
      <point x="491.7744140625" y="534.9964599609375" type="curve" smooth="yes"/>
      <point x="367.7744140625" y="534.9964599609375"/>
      <point x="246.85792541503906" y="391.4456481933594"/>
      <point x="246.85792541503906" y="245.44564819335938" type="curve" smooth="yes"/>
      <point x="246.85792541503906" y="129.44564819335938"/>
      <point x="339.4664611816406" y="23.262340545654297"/>
      <point x="446.4664611816406" y="23.262340545654297" type="curve" smooth="yes"/>
      <point x="503.3760681152344" y="23.262340545654297"/>
      <point x="560.2452392578125" y="54.54905319213867"/>
      <point x="596.5569458007812" y="111.53224182128906" type="curve"/>
      <point x="611.5407104492188" y="56.89438247680664"/>
      <point x="663.3427734375" y="20.004030227661133"/>
      <point x="729.2151489257812" y="20.004030227661133" type="curve" smooth="yes"/>
      <point x="845.2151489257812" y="20.004030227661133"/>
      <point x="952.5985717773438" y="172.86749267578125"/>
      <point x="952.5985717773438" y="345.86749267578125" type="curve" smooth="yes"/>
      <point x="952.5985717773438" y="570.8674926757812"/>
      <point x="758.533935546875" y="754.0458984375"/>
      <point x="522.533935546875" y="754.0458984375" type="curve" smooth="yes"/>
      <point x="254.533935546875" y="754.0458984375"/>
      <point x="34.380754470825195" y="536.067138671875"/>
      <point x="34.380754470825195" y="268.0671081542969" type="curve" smooth="yes"/>
    </contour>
    <contour>
      <point x="564.3255004882812" y="211.03106689453125"/>
      <point x="544.5115356445312" y="184.41748046875"/>
      <point x="468.5115661621094" y="184.41748046875" type="curve" smooth="yes"/>
      <point x="442.0950927734375" y="184.41748046875"/>
      <point x="429.2792663574219" y="182.6420440673828"/>
      <point x="423.1108703613281" y="188.21900939941406" type="curve" smooth="yes"/>
      <point x="416.2029724121094" y="194.46458435058594"/>
      <point x="417.6319580078125" y="209.93115234375"/>
      <point x="417.6319580078125" y="247.43882751464844" type="curve" smooth="yes"/>
      <point x="417.6319580078125" y="348.4388122558594"/>
      <point x="438.55670166015625" y="375.0377197265625"/>
      <point x="515.5567016601562" y="375.0377197265625" type="curve" smooth="yes"/>
      <point x="544.1547241210938" y="375.0377197265625"/>
      <point x="556.4871215820312" y="377.1506652832031"/>
      <point x="561.603271484375" y="372.0398254394531" type="curve" smooth="yes"/>
      <point x="567.0421142578125" y="366.6065979003906"/>
      <point x="564.3255004882812" y="353.0094909667969"/>
      <point x="564.3255004882812" y="320.03106689453125" type="curve" smooth="yes"/>
    </contour>
  </outline>
</glyph>
<glyph name="A" format="2">
  <advance width="784"/>
  <unicode hex="0041"/>
  <anchor x="373" y="0" name="bottom"/>
  <anchor x="704" y="0" name="ogonek"/>
  <anchor x="373" y="705" name="top"/>
  <outline>
    <contour>
      <point x="2.463735580444336" y="26.1893367767334"/>
      <point x="49.63950157165527" y="-50.268070220947266"/>
      <point x="96.6395034790039" y="-50.268070220947266" type="curve" smooth="yes"/>
      <point x="130.6395034790039" y="-50.268070220947266"/>
      <point x="177.09127807617188" y="-9.270339012145996"/>
      <point x="194.09127807617188" y="29.729660034179688" type="curve" smooth="yes"/>
      <point x="234.02632797468868" y="123.95142479035846" type="line"/>
      <point x="236.60188970286774" y="130.0281411556613"/>
      <point x="244.10916748046876" y="135.0"/>
      <point x="250.70916748046875" y="135.0" type="curve" smooth="yes"/>
      <point x="533.6351928710938" y="135.0" type="line"/>
      <point x="540.2351928710938" y="135.0"/>
      <point x="547.7702834743474" y="130.0400213593304"/>
      <point x="550.3798386561017" y="123.9778252429565" type="curve" smooth="yes"/>
      <point x="591.1392211914062" y="29.290664672851562" type="line" smooth="yes"/>
      <point x="607.1392211914062" y="-7.7093353271484375"/>
      <point x="656.5294189453125" y="-50.02569580078125"/>
      <point x="693.5294189453125" y="-50.02569580078125" type="curve" smooth="yes"/>
      <point x="738.5294189453125" y="-50.02569580078125"/>
      <point x="783.34912109375" y="25.652854919433594"/>
      <point x="762.34912109375" y="72.6528549194336" type="curve" smooth="yes"/>
      <point x="488.5022888183594" y="677.1826171875" type="line" smooth="yes"/>
      <point x="471.5022888183594" y="715.1826171875"/>
      <point x="424.11279296875" y="747.7447509765625"/>
      <point x="393.11279296875" y="747.7447509765625" type="curve" smooth="yes"/>
      <point x="361.11279296875" y="747.7447509765625"/>
      <point x="313.5205993652344" y="715.258544921875"/>
      <point x="296.5205993652344" y="677.258544921875" type="curve" smooth="yes"/>
      <point x="23.46373462677002" y="72.18933868408203" type="line" smooth="yes"/>
    </contour>
    <contour>
      <point x="387.43751407454215" y="485.2798252651007" type="line"/>
      <point x="389.99542259330957" y="491.3639935738852"/>
      <point x="394.19377385079366" y="491.36934470279243"/>
      <point x="396.76718353561785" y="485.2917166626724" type="curve" smooth="yes"/>
      <point x="473.50906158156965" y="304.0502328002182" type="line"/>
      <point x="476.08247126639384" y="297.9726047600982"/>
      <point x="472.78798828125" y="293.0"/>
      <point x="466.18798828125" y="293.0" type="curve" smooth="yes"/>
      <point x="318.5991516113281" y="293.0" type="line"/>
      <point x="311.9991516113281" y="293.0"/>
      <point x="308.69198585395606" y="297.97795588900544"/>
      <point x="311.2498943727235" y="304.0621241977899" type="curve" smooth="yes"/>
    </contour>
  </outline>
</glyph>
<glyph name="B" format="2">
  <advance width="728"/>
  <unicode hex="0042"/>
  <anchor x="345" y="0" name="bottom"/>
  <anchor x="345" y="705" name="top"/>
  <outline>
    <contour>
      <point x="69.0" y="12.402020454406738"/>
      <point x="109.40202331542969" y="-28.0"/>
      <point x="153.4020233154297" y="-28.0" type="curve" smooth="yes"/>
      <point x="426.02001953125" y="-28.0" type="line" smooth="yes"/>
      <point x="576.02001953125" y="-28.0"/>
      <point x="694.625" y="67.47990417480469"/>
      <point x="694.625" y="192.4799041748047" type="curve" smooth="yes"/>
      <point x="694.625" y="278.58453369140625"/>
      <point x="643.90771484375" y="342.6697082519531"/>
      <point x="563.5768432617188" y="364.69012451171875" type="curve"/>
      <point x="631.4546508789062" y="390.71746826171875"/>
      <point x="675.9844970703125" y="452.0265808105469"/>
      <point x="675.9844970703125" y="527.7703857421875" type="curve" smooth="yes"/>
      <point x="675.9844970703125" y="641.7703857421875"/>
      <point x="562.6812133789062" y="733.0"/>
      <point x="414.6811828613281" y="733.0" type="curve" smooth="yes"/>
      <point x="153.4020233154297" y="733.0" type="line" smooth="yes"/>
      <point x="109.40202331542969" y="733.0"/>
      <point x="69.0" y="692.5979614257812"/>
      <point x="69.0" y="648.5979614257812" type="curve" smooth="yes"/>
      <point x="69.0" y="56.40201950073242" type="line" smooth="yes"/>
    </contour>
    <contour>
      <point x="260.0" y="125.0" type="line"/>
      <point x="253.4" y="125.0"/>
      <point x="248.0" y="130.4"/>
      <point x="248.0" y="137.0" type="curve" smooth="yes"/>
      <point x="248.0" y="269.0" type="line"/>
      <point x="248.0" y="275.6"/>
      <point x="253.4" y="281.0"/>
      <point x="260.0" y="281.0" type="curve" smooth="yes"/>
      <point x="390.14910888671875" y="281.0" type="line" smooth="yes"/>
      <point x="480.14910888671875" y="281.0"/>
      <point x="487.28118896484375" y="275.0"/>
      <point x="487.28118896484375" y="203.0" type="curve" smooth="yes"/>
      <point x="487.28118896484375" y="132.0"/>
      <point x="480.14910888671875" y="125.0"/>
      <point x="390.14910888671875" y="125.0" type="curve" smooth="yes"/>
    </contour>
    <contour>
      <point x="260.0" y="434.0" type="line"/>
      <point x="253.4" y="434.0"/>
      <point x="248.0" y="439.4"/>
      <point x="248.0" y="446.0" type="curve" smooth="yes"/>
      <point x="248.0" y="568.0" type="line"/>
      <point x="248.0" y="574.6"/>
      <point x="253.4" y="580.0"/>
      <point x="260.0" y="580.0" type="curve" smooth="yes"/>
      <point x="373.4593200683594" y="580.0" type="line" smooth="yes"/>
      <point x="461.4593200683594" y="580.0"/>
      <point x="468.1424865722656" y="574.0"/>
      <point x="468.1424865722656" y="507.0" type="curve" smooth="yes"/>
      <point x="468.1424865722656" y="440.0"/>
      <point x="461.4593200683594" y="434.0"/>
      <point x="373.4593200683594" y="434.0" type="curve" smooth="yes"/>
    </contour>
  </outline>
</glyph>
<glyph name="C" format="2">
  <advance width="720"/>
  <unicode hex="0043"/>
  <anchor x="391" y="0" name="bottom"/>
  <anchor x="392" y="705" name="top"/>
  <outline>
    <contour>
      <point x="35.025054931640625" y="131.02687072753906"/>
      <point x="196.57835388183594" y="-41.570987701416016"/>
      <point x="416.5783386230469" y="-41.570987701416016" type="curve" smooth="yes"/>
      <point x="492.5783386230469" y="-41.570987701416016"/>
      <point x="622.6575927734375" y="-5.548130989074707"/>
      <point x="676.6575927734375" y="33.45186996459961" type="curve" smooth="yes"/>
      <point x="737.6575927734375" y="77.45186614990234"/>
      <point x="658.6124267578125" y="219.38742065429688"/>
      <point x="586.6124267578125" y="175.38742065429688" type="curve" smooth="yes"/>
      <point x="542.6124267578125" y="148.38742065429688"/>
      <point x="489.5322570800781" y="135.5589599609375"/>
      <point x="438.5322570800781" y="135.5589599609375" type="curve" smooth="yes"/>
      <point x="295.5322570800781" y="135.5589599609375"/>
      <point x="247.3217010498047" y="193.96275329589844"/>
      <point x="247.3217010498047" y="352.9627380371094" type="curve" smooth="yes"/>
      <point x="247.3217010498047" y="511.9627380371094"/>
      <point x="295.46539306640625" y="569.417724609375"/>
      <point x="438.46539306640625" y="569.417724609375" type="curve" smooth="yes"/>
      <point x="487.46539306640625" y="569.417724609375"/>
      <point x="540.401123046875" y="557.3494262695312"/>
      <point x="582.401123046875" y="530.3494262695312" type="curve" smooth="yes"/>
      <point x="655.401123046875" y="483.3494567871094"/>
      <point x="738.5985107421875" y="633.5484619140625"/>
      <point x="668.5985107421875" y="678.5484619140625" type="curve" smooth="yes"/>
      <point x="615.5985107421875" y="712.5484619140625"/>
      <point x="489.3612060546875" y="746.313720703125"/>
      <point x="416.3612060546875" y="746.313720703125" type="curve" smooth="yes"/>
      <point x="196.36122131347656" y="746.313720703125"/>
      <point x="35.025054931640625" y="574.02685546875"/>
      <point x="35.025054931640625" y="353.02685546875" type="curve" smooth="yes"/>
    </contour>
  </outline>
</glyph>
<glyph name="D" format="2">
  <advance width="802"/>
  <unicode hex="0044"/>
  <anchor x="379" y="0" name="bottom"/>
  <anchor x="194" y="358" name="center"/>
  <anchor x="379" y="705" name="top"/>
  <outline>
    <contour>
      <point x="69.0" y="12.402020454406738"/>
      <point x="109.40202331542969" y="-28.0"/>
      <point x="153.4020233154297" y="-28.0" type="curve" smooth="yes"/>
      <point x="370.2142333984375" y="-28.0" type="line" smooth="yes"/>
      <point x="606.2142333984375" y="-28.0"/>
      <point x="769.5928344726562" y="127.02875518798828"/>
      <point x="769.5928344726562" y="353.02874755859375" type="curve" smooth="yes"/>
      <point x="769.5928344726562" y="579.0287475585938"/>
      <point x="606.1912231445312" y="733.0"/>
      <point x="370.19122314453125" y="733.0" type="curve" smooth="yes"/>
      <point x="153.4020233154297" y="733.0" type="line" smooth="yes"/>
      <point x="109.40202331542969" y="733.0"/>
      <point x="69.0" y="692.5979614257812"/>
      <point x="69.0" y="648.5979614257812" type="curve" smooth="yes"/>
      <point x="69.0" y="56.40201950073242" type="line" smooth="yes"/>
    </contour>
    <contour>
      <point x="265.0" y="134.0" type="line"/>
      <point x="258.4" y="134.0"/>
      <point x="253.0" y="139.4"/>
      <point x="253.0" y="146.0" type="curve" smooth="yes"/>
      <point x="253.0" y="559.0" type="line"/>
      <point x="253.0" y="565.6"/>
      <point x="258.4" y="571.0"/>
      <point x="265.0" y="571.0" type="curve" smooth="yes"/>
      <point x="339.33502197265625" y="571.0" type="line" smooth="yes"/>
      <point x="502.33502197265625" y="571.0"/>
      <point x="555.602294921875" y="517.9600219726562"/>
      <point x="555.602294921875" y="352.9600524902344" type="curve" smooth="yes"/>
      <point x="555.602294921875" y="187.96005249023438"/>
      <point x="503.3016662597656" y="134.0"/>
      <point x="339.3016662597656" y="134.0" type="curve" smooth="yes"/>
    </contour>
  </outline>
</glyph>
<glyph name="E" format="2">
  <advance width="637"/>
  <unicode hex="0045"/>
  <anchor x="328" y="0" name="bottom"/>
  <anchor x="498" y="0" name="ogonek"/>
  <anchor x="328" y="705" name="top"/>
  <anchor x="23" y="705" name="topleft"/>
  <outline>
    <contour>
      <point x="69.0" y="12.402020454406738"/>
      <point x="109.40202331542969" y="-28.0"/>
      <point x="153.4020233154297" y="-28.0" type="curve" smooth="yes"/>
      <point x="533.4390869140625" y="-28.0" type="line" smooth="yes"/>
      <point x="566.4390869140625" y="-28.0"/>
      <point x="613.9880981445312" y="18.0"/>
      <point x="613.9880981445312" y="51.0" type="curve" smooth="yes"/>
      <point x="613.9880981445312" y="84.0"/>
      <point x="566.4390869140625" y="130.0"/>
      <point x="533.4390869140625" y="130.0" type="curve" smooth="yes"/>
      <point x="260.0" y="130.0" type="line"/>
      <point x="253.4" y="130.0"/>
      <point x="248.0" y="135.4"/>
      <point x="248.0" y="142.0" type="curve" smooth="yes"/>
      <point x="248.0" y="267.0" type="line"/>
      <point x="248.0" y="273.6"/>
      <point x="253.4" y="279.0"/>
      <point x="260.0" y="279.0" type="curve" smooth="yes"/>
      <point x="511.4390563964844" y="279.0" type="line" smooth="yes"/>
      <point x="545.4390869140625" y="279.0"/>
      <point x="591.9880981445312" y="325.0"/>
      <point x="591.9880981445312" y="358.0" type="curve" smooth="yes"/>
      <point x="591.9880981445312" y="391.0"/>
      <point x="545.4390869140625" y="437.0"/>
      <point x="511.4390563964844" y="437.0" type="curve" smooth="yes"/>
      <point x="260.0" y="437.0" type="line"/>
      <point x="253.4" y="437.0"/>
      <point x="248.0" y="442.4"/>
      <point x="248.0" y="449.0" type="curve" smooth="yes"/>
      <point x="248.0" y="563.0" type="line"/>
      <point x="248.0" y="569.6"/>
      <point x="253.4" y="575.0"/>
      <point x="260.0" y="575.0" type="curve" smooth="yes"/>
      <point x="533.5979614257812" y="575.0" type="line" smooth="yes"/>
      <point x="566.5979614257812" y="575.0"/>
      <point x="613.989990234375" y="622.3920288085938"/>
      <point x="613.989990234375" y="655.3920288085938" type="curve" smooth="yes"/>
      <point x="613.989990234375" y="687.3920288085938"/>
      <point x="566.2777099609375" y="733.0"/>
      <point x="533.2777099609375" y="733.0" type="curve" smooth="yes"/>
      <point x="153.4020233154297" y="733.0" type="line" smooth="yes"/>
      <point x="109.40202331542969" y="733.0"/>
      <point x="69.0" y="692.5979614257812"/>
      <point x="69.0" y="648.5979614257812" type="curve" smooth="yes"/>
      <point x="69.0" y="56.40201950073242" type="line" smooth="yes"/>
    </contour>
  </outline>
</glyph>
<glyph name="F" format="2">
  <advance width="602"/>
  <unicode hex="0046"/>
  <anchor x="300" y="0" name="bottom"/>
  <anchor x="303" y="705" name="top"/>
  <outline>
    <contour>
      <point x="69.0" y="4.646058559417725"/>
      <point x="121.63739013671875" y="-48.859130859375"/>
      <point x="163.63739013671875" y="-48.859130859375" type="curve" smooth="yes"/>
      <point x="204.63739013671875" y="-48.859130859375"/>
      <point x="253.0" y="5.1514739990234375"/>
      <point x="253.0" y="49.15147399902344" type="curve" smooth="yes"/>
      <point x="253.0" y="262.0" type="line"/>
      <point x="253.0" y="268.6"/>
      <point x="258.4" y="274.0"/>
      <point x="265.0" y="274.0" type="curve" smooth="yes"/>
      <point x="504.5979919433594" y="274.0" type="line" smooth="yes"/>
      <point x="537.5979614257812" y="274.0"/>
      <point x="584.989990234375" y="321.39202880859375"/>
      <point x="584.989990234375" y="354.39202880859375" type="curve" smooth="yes"/>
      <point x="584.989990234375" y="386.39202880859375"/>
      <point x="537.2777099609375" y="432.0"/>
      <point x="504.2777099609375" y="432.0" type="curve" smooth="yes"/>
      <point x="265.0" y="432.0" type="line"/>
      <point x="258.4" y="432.0"/>
      <point x="253.0" y="437.4"/>
      <point x="253.0" y="444.0" type="curve" smooth="yes"/>
      <point x="253.0" y="563.0" type="line"/>
      <point x="253.0" y="569.6"/>
      <point x="258.4" y="575.0"/>
      <point x="265.0" y="575.0" type="curve" smooth="yes"/>
      <point x="525.5979919433594" y="575.0" type="line" smooth="yes"/>
      <point x="559.5979614257812" y="575.0"/>
      <point x="605.989990234375" y="622.3920288085938"/>
      <point x="605.989990234375" y="655.3920288085938" type="curve" smooth="yes"/>
      <point x="605.989990234375" y="687.3920288085938"/>
      <point x="559.2777099609375" y="733.0"/>
      <point x="525.2777099609375" y="733.0" type="curve" smooth="yes"/>
      <point x="153.4020233154297" y="733.0" type="line" smooth="yes"/>
      <point x="109.40202331542969" y="733.0"/>
      <point x="69.0" y="692.5979614257812"/>
      <point x="69.0" y="648.5979614257812" type="curve" smooth="yes"/>
      <point x="69.0" y="48.64605712890625" type="line" smooth="yes"/>
    </contour>
  </outline>
</glyph>
<glyph name="G" format="2">
  <advance width="776"/>
  <unicode hex="0047"/>
  <anchor x="408" y="0" name="bottom"/>
  <anchor x="401" y="705" name="top"/>
  <outline>
    <contour>
      <point x="34.456600189208984" y="129.89083862304688"/>
      <point x="192.49998474121094" y="-40.06954574584961"/>
      <point x="426.4999694824219" y="-40.06954574584961" type="curve" smooth="yes"/>
      <point x="499.4999694824219" y="-40.06954574584961"/>
      <point x="607.2930908203125" y="-20.415346145629883"/>
      <point x="666.2930908203125" y="1.5846532583236694" type="curve" smooth="yes"/>
      <point x="691.2930908203125" y="10.5846529006958"/>
      <point x="713.0" y="49.13212203979492"/>
      <point x="713.0" y="78.13211822509766" type="curve" smooth="yes"/>
      <point x="713.0" y="340.5979919433594" type="line" smooth="yes"/>
      <point x="713.0" y="373.5979919433594"/>
      <point x="677.5979614257812" y="409.0"/>
      <point x="644.5979614257812" y="409.0" type="curve" smooth="yes"/>
      <point x="457.2213134765625" y="409.0" type="line" smooth="yes"/>
      <point x="423.2213134765625" y="409.0"/>
      <point x="374.4833679199219" y="364.2176208496094"/>
      <point x="374.4833679199219" y="334.2176208496094" type="curve" smooth="yes"/>
      <point x="374.4833679199219" y="304.2176208496094"/>
      <point x="423.0524597167969" y="258.0"/>
      <point x="457.0524597167969" y="258.0" type="curve" smooth="yes"/>
      <point x="538.0" y="258.0" type="line"/>
      <point x="544.6" y="258.0"/>
      <point x="550.0" y="252.6"/>
      <point x="550.0" y="246.0" type="curve" smooth="yes"/>
      <point x="550.0" y="157.48757934570312" type="line"/>
      <point x="550.0" y="150.88757934570313"/>
      <point x="544.6667253695023" y="144.64130414478427"/>
      <point x="538.1482785988941" y="143.60696778810566" type="curve" smooth="yes"/>
      <point x="505.32305908203125" y="131.69662475585938"/>
      <point x="496.9225769042969" y="129.98838806152344"/>
      <point x="452.3232116699219" y="129.98838806152344" type="curve" smooth="yes"/>
      <point x="297.3232116699219" y="129.98838806152344"/>
      <point x="245.97764587402344" y="187.32485961914062"/>
      <point x="245.97764587402344" y="351.3248596191406" type="curve" smooth="yes"/>
      <point x="245.97764587402344" y="513.3248901367188"/>
      <point x="295.46527099609375" y="571.67236328125"/>
      <point x="444.46527099609375" y="571.67236328125" type="curve" smooth="yes"/>
      <point x="508.46527099609375" y="571.67236328125"/>
      <point x="561.6033935546875" y="557.6126098632812"/>
      <point x="612.6033935546875" y="528.6126098632812" type="curve" smooth="yes"/>
      <point x="677.6033935546875" y="491.6125793457031"/>
      <point x="754.5118408203125" y="637.5453491210938"/>
      <point x="696.5118408203125" y="673.5453491210938" type="curve" smooth="yes"/>
      <point x="629.5118408203125" y="715.5453491210938"/>
      <point x="501.5751647949219" y="746.2680053710938"/>
      <point x="426.5751647949219" y="746.2680053710938" type="curve" smooth="yes"/>
      <point x="199.57518005371094" y="746.2680053710938"/>
      <point x="34.456600189208984" y="573.890869140625"/>
      <point x="34.456600189208984" y="350.8908386230469" type="curve" smooth="yes"/>
    </contour>
  </outline>
</glyph>
<glyph name="H" format="2">
  <advance width="813"/>
  <unicode hex="0048"/>
  <anchor x="387" y="0" name="bottom"/>
  <anchor x="387" y="561" name="center"/>
  <anchor x="386" y="705" name="top"/>
  <anchor x="23" y="705" name="topleft"/>
  <outline>
    <contour>
      <point x="69.0" y="4.653542518615723"/>
      <point x="120.0" y="-48.221458435058594"/>
      <point x="161.0" y="-48.221458435058594" type="curve" smooth="yes"/>
      <point x="203.0" y="-48.221458435058594"/>
      <point x="253.0" y="4.653542518615723"/>
      <point x="253.0" y="46.653541564941406" type="curve" smooth="yes"/>
      <point x="253.0" y="264.0" type="line"/>
      <point x="253.0" y="270.6"/>
      <point x="258.4" y="276.0"/>
      <point x="265.0" y="276.0" type="curve" smooth="yes"/>
      <point x="548.0" y="276.0" type="line"/>
      <point x="554.6" y="276.0"/>
      <point x="560.0" y="270.6"/>
      <point x="560.0" y="264.0" type="curve" smooth="yes"/>
      <point x="560.0" y="46.653541564941406" type="line" smooth="yes"/>
      <point x="560.0" y="4.653542518615723"/>
      <point x="611.0" y="-48.221458435058594"/>
      <point x="652.0" y="-48.221458435058594" type="curve" smooth="yes"/>
      <point x="693.0" y="-48.221458435058594"/>
      <point x="744.0" y="4.653542518615723"/>
      <point x="744.0" y="46.653541564941406" type="curve" smooth="yes"/>
      <point x="744.0" y="658.346435546875" type="line" smooth="yes"/>
      <point x="744.0" y="701.346435546875"/>
      <point x="693.0" y="753.221435546875"/>
      <point x="652.0" y="753.221435546875" type="curve" smooth="yes"/>
      <point x="611.0" y="753.221435546875"/>
      <point x="560.0" y="701.346435546875"/>
      <point x="560.0" y="658.346435546875" type="curve" smooth="yes"/>
      <point x="560.0" y="451.0" type="line"/>
      <point x="560.0" y="444.4"/>
      <point x="554.6" y="439.0"/>
      <point x="548.0" y="439.0" type="curve" smooth="yes"/>
      <point x="265.0" y="439.0" type="line"/>
      <point x="258.4" y="439.0"/>
      <point x="253.0" y="444.4"/>
      <point x="253.0" y="451.0" type="curve" smooth="yes"/>
      <point x="253.0" y="658.346435546875" type="line" smooth="yes"/>
      <point x="253.0" y="701.346435546875"/>
      <point x="202.0" y="753.221435546875"/>
      <point x="161.0" y="753.221435546875" type="curve" smooth="yes"/>
      <point x="120.0" y="753.221435546875"/>
      <point x="69.0" y="701.346435546875"/>
      <point x="69.0" y="658.346435546875" type="curve" smooth="yes"/>
      <point x="69.0" y="46.653541564941406" type="line" smooth="yes"/>
    </contour>
  </outline>
</glyph>
<glyph name="I" format="2">
  <advance width="322"/>
  <unicode hex="0049"/>
  <anchor x="141" y="0" name="bottom"/>
  <anchor x="178" y="0" name="ogonek"/>
  <anchor x="141" y="705" name="top"/>
  <anchor x="23" y="705" name="topleft"/>
  <outline>
    <contour>
      <point x="69.0" y="4.653542518615723"/>
      <point x="120.0" y="-48.221458435058594"/>
      <point x="161.0" y="-48.221458435058594" type="curve" smooth="yes"/>
      <point x="203.0" y="-48.221458435058594"/>
      <point x="253.0" y="4.653542518615723"/>
      <point x="253.0" y="46.653541564941406" type="curve" smooth="yes"/>
      <point x="253.0" y="658.346435546875" type="line" smooth="yes"/>
      <point x="253.0" y="701.346435546875"/>
      <point x="202.0" y="753.221435546875"/>
      <point x="161.0" y="753.221435546875" type="curve" smooth="yes"/>
      <point x="120.0" y="753.221435546875"/>
      <point x="69.0" y="701.346435546875"/>
      <point x="69.0" y="658.346435546875" type="curve" smooth="yes"/>
      <point x="69.0" y="46.653541564941406" type="line" smooth="yes"/>
    </contour>
  </outline>
</glyph>
<glyph name="J" format="2">
  <advance width="394"/>
  <unicode hex="004A"/>
  <anchor x="214" y="0" name="bottom"/>
  <anchor x="213" y="705" name="top"/>
  <outline>
    <contour>
      <point x="-33.4101676940918" y="14.482025146484375"/>
      <point x="17.66655659675598" y="-37.65625"/>
      <point x="55.66655731201172" y="-35.65625" type="curve" smooth="yes"/>
      <point x="112.5108413696289" y="-32.312469482421875" type="line" smooth="yes"/>
      <point x="242.51083374023438" y="-24.312469482421875"/>
      <point x="326.0" y="61.64605712890625"/>
      <point x="326.0" y="187.64605712890625" type="curve" smooth="yes"/>
      <point x="326.0" y="659.4710083007812" type="line" smooth="yes"/>
      <point x="326.0" y="701.4710083007812"/>
      <point x="275.0" y="752.9085083007812"/>
      <point x="234.0" y="752.9085083007812" type="curve" smooth="yes"/>
      <point x="193.0" y="752.9085083007812"/>
      <point x="142.0" y="701.4710083007812"/>
      <point x="142.0" y="659.4710083007812" type="curve" smooth="yes"/>
      <point x="142.0" y="208.8168182373047" type="line" smooth="yes"/>
      <point x="142.0" y="147.8168182373047"/>
      <point x="126.86641693115234" y="131.18658447265625"/>
      <point x="67.86642074584961" y="127.18658447265625" type="curve" smooth="yes"/>
      <point x="37.95668601989746" y="125.19259643554688" type="line" smooth="yes"/>
      <point x="7.956686973571777" y="123.19259643554688"/>
      <point x="-33.4101676940918" y="72.48202514648438"/>
      <point x="-33.4101676940918" y="47.482025146484375" type="curve" smooth="yes"/>
    </contour>
  </outline>
</glyph>
<glyph name="K" format="2">
  <advance width="705"/>
  <unicode hex="004B"/>
  <anchor x="332" y="0" name="bottom"/>
  <anchor x="332" y="705" name="top"/>
  <anchor x="23" y="705" name="topleft"/>
  <outline>
    <contour>
      <point x="69.0" y="4.653542518615723"/>
      <point x="120.0" y="-48.221458435058594"/>
      <point x="161.0" y="-48.221458435058594" type="curve" smooth="yes"/>
      <point x="203.0" y="-48.221458435058594"/>
      <point x="253.0" y="4.653542518615723"/>
      <point x="253.0" y="46.653541564941406" type="curve" smooth="yes"/>
      <point x="253.0" y="248.40200805664062" type="line"/>
      <point x="253.0" y="255.00200805664062"/>
      <point x="256.8183766472987" y="256.5836314671246"/>
      <point x="261.48528143844146" y="251.91672674660498" type="curve" smooth="yes"/>
      <point x="505.081787109375" y="8.32022476196289" type="line" smooth="yes"/>
      <point x="530.081787109375" y="-16.67977523803711"/>
      <point x="577.1671752929688" y="-48.059356689453125"/>
      <point x="609.1671752929688" y="-48.059356689453125" type="curve" smooth="yes"/>
      <point x="664.1671752929688" y="-48.059356689453125"/>
      <point x="701.3773803710938" y="51.01568603515625"/>
      <point x="660.3773803710938" y="92.01568603515625" type="curve" smooth="yes"/>
      <point x="399.37271252395783" y="357.29913395344005" type="line"/>
      <point x="394.7439031919334" y="362.00382567211443"/>
      <point x="394.79473705042466" y="369.6517288385542"/>
      <point x="399.4856766539385" y="374.29447432330625" type="curve" smooth="yes"/>
      <point x="646.4948120117188" y="618.765869140625" type="line" smooth="yes"/>
      <point x="680.4948120117188" y="651.765869140625"/>
      <point x="654.7291870117188" y="751.347412109375"/>
      <point x="597.7291870117188" y="751.347412109375" type="curve" smooth="yes"/>
      <point x="570.7291870117188" y="751.347412109375"/>
      <point x="518.6335754394531" y="725.2435913085938"/>
      <point x="497.6335754394531" y="704.2435913085938" type="curve" smooth="yes"/>
      <point x="261.4705114723159" y="467.25765500610237" type="line"/>
      <point x="256.8117301625422" y="462.58264091973825"/>
      <point x="253.0" y="464.1576293945312"/>
      <point x="253.0" y="470.75762939453125" type="curve" smooth="yes"/>
      <point x="253.0" y="659.4710083007812" type="line" smooth="yes"/>
      <point x="253.0" y="701.4710083007812"/>
      <point x="202.0" y="752.9085083007812"/>
      <point x="161.0" y="752.9085083007812" type="curve" smooth="yes"/>
      <point x="120.0" y="752.9085083007812"/>
      <point x="69.0" y="701.4710083007812"/>
      <point x="69.0" y="659.4710083007812" type="curve" smooth="yes"/>
      <point x="69.0" y="46.653541564941406" type="line" smooth="yes"/>
    </contour>
  </outline>
</glyph>
<glyph name="L" format="2">
  <advance width="602"/>
  <unicode hex="004C"/>
  <anchor x="310" y="0" name="bottom"/>
  <anchor x="187" y="387" name="center"/>
  <anchor x="425" y="394" name="dot"/>
  <anchor x="141" y="705" name="top"/>
  <anchor x="311" y="705" name="topright"/>
  <outline>
    <contour>
      <point x="69.0" y="12.527027130126953"/>
      <point x="108.27661895751953" y="-28.0"/>
      <point x="150.276611328125" y="-28.0" type="curve" smooth="yes"/>
      <point x="526.4505004882812" y="-28.0" type="line" smooth="yes"/>
      <point x="562.4505004882812" y="-28.0"/>
      <point x="611.1470336914062" y="20.184097290039062"/>
      <point x="611.1470336914062" y="55.18409729003906" type="curve" smooth="yes"/>
      <point x="611.1470336914062" y="89.18409729003906"/>
      <point x="562.3009033203125" y="137.0"/>
      <point x="526.3009033203125" y="137.0" type="curve" smooth="yes"/>
      <point x="265.0" y="137.0" type="line"/>
      <point x="258.4" y="137.0"/>
      <point x="253.0" y="142.4"/>
      <point x="253.0" y="149.0" type="curve" smooth="yes"/>
      <point x="253.0" y="654.4710083007812" type="line" smooth="yes"/>
      <point x="253.0" y="696.4710083007812"/>
      <point x="202.0" y="747.9085083007812"/>
      <point x="161.0" y="747.9085083007812" type="curve" smooth="yes"/>
      <point x="120.0" y="747.9085083007812"/>
      <point x="69.0" y="696.4710083007812"/>
      <point x="69.0" y="654.4710083007812" type="curve" smooth="yes"/>
      <point x="69.0" y="54.52702713012695" type="line" smooth="yes"/>
    </contour>
  </outline>
</glyph>
<glyph name="M" format="2">
  <advance width="908"/>
  <unicode hex="004D"/>
  <anchor x="435" y="0" name="bottom"/>
  <anchor x="435" y="705" name="top"/>
  <outline>
    <contour>
      <point x="71.0" y="2.679028272628784"/>
      <point x="120.0" y="-48.2864875793457"/>
      <point x="157.0" y="-48.2864875793457" type="curve" smooth="yes"/>
      <point x="195.0" y="-48.2864875793457"/>
      <point x="243.0" y="2.679028272628784"/>
      <point x="243.0" y="40.67902755737305" type="curve" smooth="yes"/>
      <point x="236.2035001654149" y="379.188422598825" type="line"/>
      <point x="236.07101385617497" y="385.7870927207408"/>
      <point x="238.46622748092778" y="386.4014535221813"/>
      <point x="241.52619710931" y="380.5536688242484" type="curve" smooth="yes"/>
      <point x="381.9493408203125" y="112.1966552734375" type="line" smooth="yes"/>
      <point x="393.9493408203125" y="90.1966552734375"/>
      <point x="429.14666748046875" y="65.7445068359375"/>
      <point x="455.14666748046875" y="65.7445068359375" type="curve" smooth="yes"/>
      <point x="480.14666748046875" y="65.7445068359375"/>
      <point x="514.1504516601562" y="89.3351821899414"/>
      <point x="527.1504516601562" y="112.3351821899414" type="curve" smooth="yes"/>
      <point x="667.6252637943547" y="382.85383027045634" type="line"/>
      <point x="670.6668698060924" y="388.7111874278577"/>
      <point x="673.0459643821429" y="388.10468072013555"/>
      <point x="672.9121406300223" y="381.50603758662936" type="curve" smooth="yes"/>
      <point x="666.0" y="40.67902755737305" type="line" smooth="yes"/>
      <point x="666.0" y="2.679028272628784"/>
      <point x="714.0" y="-48.2864875793457"/>
      <point x="752.0" y="-48.2864875793457" type="curve" smooth="yes"/>
      <point x="790.0" y="-48.2864875793457"/>
      <point x="838.0" y="2.679028272628784"/>
      <point x="838.0" y="40.67902755737305" type="curve" smooth="yes"/>
      <point x="838.0" y="664.3209838867188" type="line" smooth="yes"/>
      <point x="838.0" y="703.3209838867188"/>
      <point x="793.13525390625" y="749.0086669921875"/>
      <point x="756.13525390625" y="749.0086669921875" type="curve" smooth="yes"/>
      <point x="723.13525390625" y="749.0086669921875"/>
      <point x="681.778564453125" y="720.6243286132812"/>
      <point x="665.778564453125" y="690.6243286132812" type="curve" smooth="yes"/>
      <point x="461.7057212165493" y="313.0482554488441" type="line"/>
      <point x="458.5675745474472" y="307.24204881428454"/>
      <point x="453.4324252726318" y="307.2420487170406"/>
      <point x="450.29427838362625" y="313.0482552327464" type="curve" smooth="yes"/>
      <point x="246.1721649169922" y="690.7154541015625" type="line" smooth="yes"/>
      <point x="230.1721649169922" y="720.7154541015625"/>
      <point x="188.08319091796875" y="748.68115234375"/>
      <point x="155.08319091796875" y="748.68115234375" type="curve" smooth="yes"/>
      <point x="117.08319854736328" y="748.68115234375"/>
      <point x="71.0" y="703.5979614257812"/>
      <point x="71.0" y="664.5979614257812" type="curve" smooth="yes"/>
      <point x="71.0" y="40.67902755737305" type="line" smooth="yes"/>
    </contour>
  </outline>
</glyph>
<glyph name="N" format="2">
  <advance width="788"/>
  <unicode hex="004E"/>
  <anchor x="374" y="0" name="bottom"/>
  <anchor x="374" y="705" name="top"/>
  <outline>
    <contour>
      <point x="69.0" y="2.669978141784668"/>
      <point x="118.16976928710938" y="-48.438785552978516"/>
      <point x="157.16976928710938" y="-48.438785552978516" type="curve" smooth="yes"/>
      <point x="195.16976928710938" y="-48.438785552978516"/>
      <point x="244.0" y="2.8065426349639893"/>
      <point x="244.0" y="42.806541442871094" type="curve" smooth="yes"/>
      <point x="243.06423094607194" y="402.9426369446945" type="line"/>
      <point x="243.04708172114252" y="409.5426146646633"/>
      <point x="246.3157291548954" y="410.6549372732148"/>
      <point x="250.3278919099672" y="405.41446496369775" type="curve" smooth="yes"/>
      <point x="554.1973876953125" y="8.516388893127441" type="line" smooth="yes"/>
      <point x="575.1973876953125" y="-18.483610153198242"/>
      <point x="614.0379638671875" y="-43.785743713378906"/>
      <point x="645.0379638671875" y="-43.785743713378906" type="curve" smooth="yes"/>
      <point x="677.0379638671875" y="-43.785743713378906"/>
      <point x="719.0" y="4.55506706237793"/>
      <point x="719.0" y="41.5550651550293" type="curve" smooth="yes"/>
      <point x="719.0" y="663.3255615234375" type="line" smooth="yes"/>
      <point x="719.0" y="702.3255615234375"/>
      <point x="670.16845703125" y="753.1005859375"/>
      <point x="632.16845703125" y="753.1005859375" type="curve" smooth="yes"/>
      <point x="593.16845703125" y="753.1005859375"/>
      <point x="544.0" y="702.462646484375"/>
      <point x="544.0" y="663.462646484375" type="curve" smooth="yes"/>
      <point x="544.8870535920773" y="304.25298465103026" type="line"/>
      <point x="544.90335197288" y="297.65300477509254"/>
      <point x="541.6281905437846" y="296.5362199258413"/>
      <point x="537.6089170829763" y="301.7712405415831" type="curve" smooth="yes"/>
      <point x="233.92535400390625" y="697.3128051757812" type="line" smooth="yes"/>
      <point x="212.92535400390625" y="724.3128051757812"/>
      <point x="177.30130004882812" y="749.0078125"/>
      <point x="147.30130004882812" y="749.0078125" type="curve" smooth="yes"/>
      <point x="113.30130004882812" y="749.0078125"/>
      <point x="69.0" y="700.5205688476562"/>
      <point x="69.0" y="659.5205688476562" type="curve" smooth="yes"/>
      <point x="69.0" y="42.669979095458984" type="line" smooth="yes"/>
    </contour>
  </outline>
</glyph>
<glyph name="O" format="2">
  <advance width="825"/>
  <unicode hex="004F"/>
  <anchor x="392" y="-10" name="Qtail"/>
  <anchor x="392" y="0" name="bottom"/>
  <anchor x="393" y="353" name="center"/>
  <anchor x="452" y="0" name="ogonek"/>
  <anchor x="392" y="705" name="top"/>
  <anchor x="26" y="705" name="topleft"/>
  <anchor x="461" y="705" name="topright"/>
  <outline>
    <contour>
      <point x="35.664039611816406" y="133.02638244628906"/>
      <point x="208.02816772460938" y="-51.05379104614258"/>
      <point x="413.0281677246094" y="-51.05379104614258" type="curve" smooth="yes"/>
      <point x="618.0281372070312" y="-51.05379104614258"/>
      <point x="790.3360595703125" y="133.07913208007812"/>
      <point x="790.3360595703125" y="354.0791320800781" type="curve" smooth="yes"/>
      <point x="790.3360595703125" y="574.0791625976562"/>
      <point x="617.9717407226562" y="755.9331665039062"/>
      <point x="412.97174072265625" y="755.9331665039062" type="curve" smooth="yes"/>
      <point x="206.9717559814453" y="755.9331665039062"/>
      <point x="35.664039611816406" y="574.0263671875"/>
      <point x="35.664039611816406" y="353.0263671875" type="curve" smooth="yes"/>
    </contour>
    <contour>
      <point x="581.9337158203125" y="193.96505737304688"/>
      <point x="542.0" y="144.47610473632812"/>
      <point x="413.0" y="144.47610473632812" type="curve" smooth="yes"/>
      <point x="284.0" y="144.47610473632812"/>
      <point x="244.06626892089844" y="193.96505737304688"/>
      <point x="244.06626892089844" y="352.9650573730469" type="curve" smooth="yes"/>
      <point x="244.06626892089844" y="512.9650268554688"/>
      <point x="284.0" y="560.6299438476562"/>
      <point x="413.0" y="560.6299438476562" type="curve" smooth="yes"/>
      <point x="543.0" y="560.6299438476562"/>
      <point x="581.9337158203125" y="512.9650268554688"/>
      <point x="581.9337158203125" y="352.9650573730469" type="curve" smooth="yes"/>
    </contour>
  </outline>
</glyph>
<glyph name="P" format="2">
  <advance width="692"/>
  <unicode hex="0050"/>
  <anchor x="332" y="0" name="bottom"/>
  <anchor x="332" y="705" name="top"/>
  <outline>
    <contour>
      <point x="69.0" y="4.653542518615723"/>
      <point x="120.0" y="-48.221458435058594"/>
      <point x="161.0" y="-48.221458435058594" type="curve" smooth="yes"/>
      <point x="203.0" y="-48.221458435058594"/>
      <point x="253.0" y="4.653542518615723"/>
      <point x="253.0" y="46.653541564941406" type="curve" smooth="yes"/>
      <point x="253.0" y="224.0" type="line"/>
      <point x="253.0" y="230.6"/>
      <point x="258.4" y="236.0"/>
      <point x="265.0" y="236.0" type="curve" smooth="yes"/>
      <point x="413.861328125" y="236.0" type="line" smooth="yes"/>
      <point x="568.861328125" y="236.0"/>
      <point x="686.5733642578125" y="346.04693603515625"/>
      <point x="686.5733642578125" y="485.04693603515625" type="curve" smooth="yes"/>
      <point x="686.5733642578125" y="624.0469360351562"/>
      <point x="568.8250122070312" y="733.0"/>
      <point x="413.8249816894531" y="733.0" type="curve" smooth="yes"/>
      <point x="150.4020233154297" y="733.0" type="line" smooth="yes"/>
      <point x="108.40202331542969" y="733.0"/>
      <point x="69.0" y="693.5979614257812"/>
      <point x="69.0" y="651.5979614257812" type="curve" smooth="yes"/>
      <point x="69.0" y="46.653541564941406" type="line" smooth="yes"/>
    </contour>
    <contour>
      <point x="265.0" y="393.0" type="line"/>
      <point x="258.4" y="393.0"/>
      <point x="253.0" y="398.4"/>
      <point x="253.0" y="405.0" type="curve" smooth="yes"/>
      <point x="253.0" y="564.0" type="line"/>
      <point x="253.0" y="570.6"/>
      <point x="258.4" y="576.0"/>
      <point x="265.0" y="576.0" type="curve" smooth="yes"/>
      <point x="372.5947265625" y="576.0" type="line" smooth="yes"/>
      <point x="463.5947265625" y="576.0"/>
      <point x="478.2268371582031" y="563.9114379882812"/>
      <point x="478.2268371582031" y="484.91143798828125" type="curve" smooth="yes"/>
      <point x="478.2268371582031" y="405.91143798828125"/>
      <point x="463.5286865234375" y="393.0"/>
      <point x="372.5286865234375" y="393.0" type="curve" smooth="yes"/>
    </contour>
  </outline>
</glyph>
<glyph name="R" format="2">
  <advance width="726"/>
  <unicode hex="0052"/>
  <anchor x="349" y="0" name="bottom"/>
  <anchor x="348" y="705" name="top"/>
  <outline>
    <contour>
      <point x="69.0" y="4.653542518615723"/>
      <point x="120.0" y="-48.221458435058594"/>
      <point x="161.0" y="-48.221458435058594" type="curve" smooth="yes"/>
      <point x="203.0" y="-48.221458435058594"/>
      <point x="253.0" y="4.653542518615723"/>
      <point x="253.0" y="46.653541564941406" type="curve" smooth="yes"/>
      <point x="253.0" y="242.0" type="line"/>
      <point x="253.0" y="248.6"/>
      <point x="258.4" y="254.0"/>
      <point x="265.0" y="254.0" type="curve" smooth="yes"/>
      <point x="312.8900451660156" y="254.0" type="line" smooth="yes"/>
      <point x="362.8900451660156" y="254.0"/>
      <point x="380.3517761230469" y="249.34933471679688"/>
      <point x="404.3517761230469" y="204.34933471679688" type="curve" smooth="yes"/>
      <point x="504.8587341308594" y="19.257354736328125" type="line" smooth="yes"/>
      <point x="521.8587341308594" y="-12.742644309997559"/>
      <point x="574.6917724609375" y="-47.960914611816406"/>
      <point x="610.6917724609375" y="-47.960914611816406" type="curve" smooth="yes"/>
      <point x="664.6917724609375" y="-47.960914611816406"/>
      <point x="699.70703125" y="35.201663970947266"/>
      <point x="676.70703125" y="78.20166778564453" type="curve" smooth="yes"/>
      <point x="592.4210815429688" y="234.41168212890625" type="line" smooth="yes"/>
      <point x="569.9593505859375" y="275.71234130859375"/>
      <point x="558.4281005859375" y="286.2984313964844"/>
      <point x="524.6142578125" y="296.95074462890625" type="curve"/>
      <point x="626.4727783203125" y="320.9356689453125"/>
      <point x="683.5344848632812" y="392.4863586425781"/>
      <point x="683.5344848632812" y="497.5501708984375" type="curve" smooth="yes"/>
      <point x="683.5344848632812" y="630.5501708984375"/>
      <point x="568.4924926757812" y="733.0"/>
      <point x="413.49249267578125" y="733.0" type="curve" smooth="yes"/>
      <point x="150.4020233154297" y="733.0" type="line" smooth="yes"/>
      <point x="108.40202331542969" y="733.0"/>
      <point x="69.0" y="693.5979614257812"/>
      <point x="69.0" y="651.5979614257812" type="curve" smooth="yes"/>
      <point x="69.0" y="46.653541564941406" type="line" smooth="yes"/>
    </contour>
    <contour>
      <point x="265.0" y="405.0" type="line"/>
      <point x="258.4" y="405.0"/>
      <point x="253.0" y="410.4"/>
      <point x="253.0" y="417.0" type="curve" smooth="yes"/>
      <point x="253.0" y="564.0" type="line"/>
      <point x="253.0" y="570.6"/>
      <point x="258.4" y="576.0"/>
      <point x="265.0" y="576.0" type="curve" smooth="yes"/>
      <point x="371.1098327636719" y="576.0" type="line" smooth="yes"/>
      <point x="463.1098327636719" y="576.0"/>
      <point x="476.53826904296875" y="565.9041748046875"/>
      <point x="476.53826904296875" y="490.9041748046875" type="curve" smooth="yes"/>
      <point x="476.53826904296875" y="414.9041748046875"/>
      <point x="463.04193115234375" y="405.0"/>
      <point x="371.04193115234375" y="405.0" type="curve" smooth="yes"/>
    </contour>
  </outline>
</glyph>
<glyph name="S" format="2">
  <advance width="671"/>
  <unicode hex="0053"/>
  <anchor x="323" y="0" name="bottom"/>
  <anchor x="325" y="705" name="top"/>
  <outline>
    <contour>
      <point x="121.45979309082031" y="-9.010674476623535"/>
      <point x="257.2853240966797" y="-40.419517517089844"/>
      <point x="346.2853088378906" y="-40.419517517089844" type="curve" smooth="yes"/>
      <point x="516.2853088378906" y="-40.419517517089844"/>
      <point x="661.1263427734375" y="72.67505645751953"/>
      <point x="661.1263427734375" y="199.675048828125" type="curve" smooth="yes"/>
      <point x="661.1263427734375" y="299.675048828125"/>
      <point x="567.5296630859375" y="385.7616882324219"/>
      <point x="435.5296630859375" y="413.7616882324219" type="curve" smooth="yes"/>
      <point x="325.7975769042969" y="436.9161682128906" type="line" smooth="yes"/>
      <point x="281.39239501953125" y="446.1432189941406"/>
      <point x="263.77386474609375" y="449.7369384765625"/>
      <point x="256.81471252441406" y="460.33203125" type="curve" smooth="yes"/>
      <point x="251.7064666748047" y="468.1091613769531"/>
      <point x="252.3415069580078" y="479.65863037109375"/>
      <point x="252.3415069580078" y="499.97747802734375" type="curve" smooth="yes"/>
      <point x="252.3415069580078" y="562.9774780273438"/>
      <point x="267.77374267578125" y="576.7147827148438"/>
      <point x="359.77374267578125" y="576.7147827148438" type="curve" smooth="yes"/>
      <point x="417.77374267578125" y="576.7147827148438"/>
      <point x="473.97296142578125" y="563.9264526367188"/>
      <point x="523.9729614257812" y="535.9264526367188" type="curve" smooth="yes"/>
      <point x="593.9729614257812" y="496.92645263671875"/>
      <point x="663.5748901367188" y="635.8895874023438"/>
      <point x="609.5748901367188" y="672.8895874023438" type="curve" smooth="yes"/>
      <point x="552.5748901367188" y="711.8895874023438"/>
      <point x="428.79248046875" y="745.8097534179688"/>
      <point x="348.79248046875" y="745.8097534179688" type="curve" smooth="yes"/>
      <point x="185.79249572753906" y="745.8097534179688"/>
      <point x="38.303916931152344" y="630.677001953125"/>
      <point x="38.303916931152344" y="499.677001953125" type="curve" smooth="yes"/>
      <point x="38.303916931152344" y="395.677001953125"/>
      <point x="126.90530395507812" y="305.341552734375"/>
      <point x="253.90530395507812" y="278.341552734375" type="curve" smooth="yes"/>
      <point x="365.9166564941406" y="254.92098999023438" type="line" smooth="yes"/>
      <point x="414.35418701171875" y="244.87905883789062"/>
      <point x="432.2185974121094" y="241.99655151367188"/>
      <point x="438.72784423828125" y="231.83802795410156" type="curve" smooth="yes"/>
      <point x="443.23809814453125" y="224.79917907714844"/>
      <point x="442.2966003417969" y="214.2670135498047"/>
      <point x="442.2966003417969" y="195.4392852783203" type="curve" smooth="yes"/>
      <point x="442.2966003417969" y="139.4392852783203"/>
      <point x="440.26849365234375" y="128.10372924804688"/>
      <point x="335.26849365234375" y="128.10372924804688" type="curve" smooth="yes"/>
      <point x="263.2685089111328" y="128.10372924804688"/>
      <point x="186.29747009277344" y="145.9024658203125"/>
      <point x="128.2974624633789" y="180.9024658203125" type="curve" smooth="yes"/>
      <point x="63.29746627807617" y="219.9024658203125"/>
      <point x="-1.5402030944824219" y="69.98932647705078"/>
      <point x="59.45979690551758" y="30.98932456970215" type="curve" smooth="yes"/>
    </contour>
  </outline>
</glyph>
<glyph name="T" format="2">
  <advance width="661"/>
  <unicode hex="0054"/>
  <anchor x="311" y="0" name="bottom"/>
  <anchor x="311" y="358" name="center"/>
  <anchor x="311" y="705" name="top"/>
  <outline>
    <contour>
      <point x="239.0" y="4.653542518615723"/>
      <point x="290.0" y="-48.221458435058594"/>
      <point x="331.0" y="-48.221458435058594" type="curve" smooth="yes"/>
      <point x="373.0" y="-48.221458435058594"/>
      <point x="423.0" y="4.653542518615723"/>
      <point x="423.0" y="46.653541564941406" type="curve" smooth="yes"/>
      <point x="423.0" y="558.0" type="line"/>
      <point x="423.0" y="564.6"/>
      <point x="428.4" y="570.0"/>
      <point x="435.0" y="570.0" type="curve" smooth="yes"/>
      <point x="601.4478149414062" y="570.0" type="line" smooth="yes"/>
      <point x="636.4478149414062" y="570.0"/>
      <point x="685.1573486328125" y="618.1875610351562"/>
      <point x="685.1573486328125" y="652.1875610351562" type="curve" smooth="yes"/>
      <point x="685.1573486328125" y="686.1875610351562"/>
      <point x="636.29541015625" y="733.0"/>
      <point x="601.29541015625" y="733.0" type="curve" smooth="yes"/>
      <point x="60.70457458496094" y="733.0" type="line" smooth="yes"/>
      <point x="25.704575061798096" y="733.0"/>
      <point x="-23.157367706298828" y="686.1875610351562"/>
      <point x="-23.157367706298828" y="652.1875610351562" type="curve" smooth="yes"/>
      <point x="-23.157367706298828" y="618.1875610351562"/>
      <point x="25.55220890045166" y="570.0"/>
      <point x="60.552207946777344" y="570.0" type="curve" smooth="yes"/>
      <point x="227.0" y="570.0" type="line"/>
      <point x="233.6" y="570.0"/>
      <point x="239.0" y="564.6"/>
      <point x="239.0" y="558.0" type="curve" smooth="yes"/>
      <point x="239.0" y="46.653541564941406" type="line" smooth="yes"/>
    </contour>
  </outline>
</glyph>
<glyph name="U" format="2">
  <advance width="778"/>
  <unicode hex="0055"/>
  <anchor x="370" y="0" name="bottom"/>
  <anchor x="427" y="0" name="ogonek"/>
  <anchor x="370" y="705" name="top"/>
  <anchor x="573" y="705" name="topright"/>
  <outline>
    <contour>
      <point x="64.0" y="80.42948150634766"/>
      <point x="196.06687927246094" y="-49.73158645629883"/>
      <point x="390.06689453125" y="-49.73158645629883" type="curve" smooth="yes"/>
      <point x="584.06689453125" y="-49.73158645629883"/>
      <point x="714.0" y="80.48463439941406"/>
      <point x="714.0" y="277.484619140625" type="curve" smooth="yes"/>
      <point x="714.0" y="659.342529296875" type="line" smooth="yes"/>
      <point x="714.0" y="701.342529296875"/>
      <point x="663.15771484375" y="753.0687255859375"/>
      <point x="623.15771484375" y="753.0687255859375" type="curve" smooth="yes"/>
      <point x="582.15771484375" y="753.0687255859375"/>
      <point x="531.0" y="701.4710083007812"/>
      <point x="531.0" y="659.4710083007812" type="curve" smooth="yes"/>
      <point x="531.0" y="300.65081787109375" type="line" smooth="yes"/>
      <point x="531.0" y="173.65081787109375"/>
      <point x="500.9383544921875" y="142.06080627441406"/>
      <point x="389.9383544921875" y="142.06080627441406" type="curve" smooth="yes"/>
      <point x="278.9383544921875" y="142.06080627441406"/>
      <point x="248.0" y="173.69781494140625"/>
      <point x="248.0" y="300.69781494140625" type="curve" smooth="yes"/>
      <point x="248.0" y="659.4710083007812" type="line" smooth="yes"/>
      <point x="248.0" y="701.4710083007812"/>
      <point x="197.0" y="752.9085083007812"/>
      <point x="156.0" y="752.9085083007812" type="curve" smooth="yes"/>
      <point x="115.0" y="752.9085083007812"/>
      <point x="64.0" y="701.4710083007812"/>
      <point x="64.0" y="659.4710083007812" type="curve" smooth="yes"/>
      <point x="64.0" y="277.4294738769531" type="line" smooth="yes"/>
    </contour>
  </outline>
</glyph>
<glyph name="V" format="2">
  <advance width="753"/>
  <unicode hex="0056"/>
  <anchor x="357" y="0" name="bottom"/>
  <anchor x="356" y="705" name="top"/>
  <outline>
    <contour>
      <point x="296.6441650390625" y="-10.625955581665039"/>
      <point x="341.109619140625" y="-42.01325225830078"/>
      <point x="377.109619140625" y="-42.01325225830078" type="curve" smooth="yes"/>
      <point x="414.109619140625" y="-42.01325225830078"/>
      <point x="456.39544677734375" y="-10.536998748779297"/>
      <point x="471.39544677734375" y="23.463001251220703" type="curve" smooth="yes"/>
      <point x="741.3150024414062" y="629.4893188476562" type="line" smooth="yes"/>
      <point x="763.3150024414062" y="678.4893188476562"/>
      <point x="714.0032348632812" y="753.9998168945312"/>
      <point x="671.0032348632812" y="753.9998168945312" type="curve" smooth="yes"/>
      <point x="635.0032348632812" y="753.9998168945312"/>
      <point x="585.3307495117188" y="714.177001953125"/>
      <point x="571.3307495117188" y="682.177001953125" type="curve" smooth="yes"/>
      <point x="384.089078827974" y="245.80867110872802" type="line"/>
      <point x="381.48655001116254" y="239.74345522158387"/>
      <point x="377.216972730335" y="239.73876663537092"/>
      <point x="374.60112931502385" y="245.79825202825484" type="curve" smooth="yes"/>
      <point x="186.69972229003906" y="681.0635375976562" type="line" smooth="yes"/>
      <point x="172.69972229003906" y="714.0635375976562"/>
      <point x="126.23390197753906" y="753.46484375"/>
      <point x="88.23390197753906" y="753.46484375" type="curve" smooth="yes"/>
      <point x="43.23390579223633" y="753.46484375"/>
      <point x="-10.628969192504883" y="680.1942138671875"/>
      <point x="11.3710298538208" y="630.1942138671875" type="curve" smooth="yes"/>
      <point x="281.6441650390625" y="23.37404441833496" type="line" smooth="yes"/>
    </contour>
  </outline>
</glyph>
<glyph name="W" format="2">
  <advance width="1153"/>
  <unicode hex="0057"/>
  <anchor x="557" y="0" name="bottom"/>
  <anchor x="557" y="705" name="top"/>
  <outline>
    <contour>
      <point x="264.35638427734375" y="-8.12389850616455"/>
      <point x="309.08831787109375" y="-43.431392669677734"/>
      <point x="345.08831787109375" y="-43.431392669677734" type="curve" smooth="yes"/>
      <point x="381.08831787109375" y="-43.431392669677734"/>
      <point x="423.6636962890625" y="-8.0564603805542"/>
      <point x="436.6636962890625" y="27.943540573120117" type="curve" smooth="yes"/>
      <point x="573.3182122183067" y="414.06039853197217" type="line"/>
      <point x="575.5202401759724" y="420.2822208432937"/>
      <point x="579.1085216336622" y="420.2769239049254"/>
      <point x="581.2921710131731" y="414.0486275578204" type="curve" smooth="yes"/>
      <point x="716.2908935546875" y="28.999608993530273" type="line" smooth="yes"/>
      <point x="729.2908935546875" y="-8.000391006469727"/>
      <point x="772.8396606445312" y="-43.42984390258789"/>
      <point x="808.8396606445312" y="-43.42984390258789" type="curve" smooth="yes"/>
      <point x="844.8396606445312" y="-43.42984390258789"/>
      <point x="888.603271484375" y="-8.176653861999512"/>
      <point x="901.603271484375" y="27.823347091674805" type="curve" smooth="yes"/>
      <point x="1120.111083984375" y="640.887939453125" type="line" smooth="yes"/>
      <point x="1135.111083984375" y="683.887939453125"/>
      <point x="1087.2841796875" y="753.8848266601562"/>
      <point x="1044.2841796875" y="753.8848266601562" type="curve" smooth="yes"/>
      <point x="1009.2841796875" y="753.8848266601562"/>
      <point x="961.1514282226562" y="712.7786254882812"/>
      <point x="949.1514282226562" y="677.7786254882812" type="curve" smooth="yes"/>
      <point x="811.4072064392702" y="273.46853333351885" type="line"/>
      <point x="809.2787873312653" y="267.2211473120952"/>
      <point x="805.7986847260452" y="267.22208849305883"/>
      <point x="803.6736450943364" y="273.4706248467714" type="curve" smooth="yes"/>
      <point x="667.05908203125" y="675.1765747070312" type="line" smooth="yes"/>
      <point x="654.05908203125" y="712.1765747070312"/>
      <point x="613.4570922851562" y="749.733154296875"/>
      <point x="581.4570922851562" y="749.733154296875" type="curve" smooth="yes"/>
      <point x="549.4570922851562" y="749.733154296875"/>
      <point x="506.1723327636719" y="712.6223754882812"/>
      <point x="493.1723327636719" y="676.6223754882812" type="curve" smooth="yes"/>
      <point x="354.01617783406596" y="280.308159885765" type="line"/>
      <point x="351.8296204183961" y="274.0808838626567"/>
      <point x="348.3230255911798" y="274.1053977580208"/>
      <point x="346.22374488469643" y="280.36263520879623" type="curve" smooth="yes"/>
      <point x="212.87216186523438" y="677.8380737304688" type="line" smooth="yes"/>
      <point x="200.87216186523438" y="713.8380737304688"/>
      <point x="153.8047637939453" y="752.7396850585938"/>
      <point x="117.80476379394531" y="752.7396850585938" type="curve" smooth="yes"/>
      <point x="67.80475997924805" y="752.7396850585938"/>
      <point x="19.60221838951111" y="684.802978515625"/>
      <point x="34.60221862792969" y="641.802978515625" type="curve" smooth="yes"/>
      <point x="251.35638427734375" y="28.876102447509766" type="line" smooth="yes"/>
    </contour>
  </outline>
</glyph>
<glyph name="X" format="2">
  <advance width="712"/>
  <unicode hex="0058"/>
  <anchor x="337" y="0" name="bottom"/>
  <anchor x="336" y="705" name="top"/>
  <outline>
    <contour>
      <point x="10.056221008300781" y="40.756980895996094"/>
      <point x="60.00193405151367" y="-47.70320129394531"/>
      <point x="110.0019302368164" y="-47.70320129394531" type="curve" smooth="yes"/>
      <point x="137.0019302368164" y="-47.70320129394531"/>
      <point x="186.40576171875" y="-16.924367904663086"/>
      <point x="208.40576171875" y="13.075632095336914" type="curve" smooth="yes"/>
      <point x="349.06189690454744" y="206.5708657289209" type="line"/>
      <point x="352.9426088560698" y="211.90941185584643"/>
      <point x="359.3038266667353" y="211.9174013679881"/>
      <point x="363.1979364838041" y="206.5886202003468" type="curve" smooth="yes"/>
      <point x="504.568359375" y="13.134382247924805" type="line" smooth="yes"/>
      <point x="526.568359375" y="-16.865617752075195"/>
      <point x="575.9052734375" y="-47.88277816772461"/>
      <point x="601.9052734375" y="-47.88277816772461" type="curve" smooth="yes"/>
      <point x="652.9052734375" y="-47.88277816772461"/>
      <point x="701.9249877929688" y="40.72059631347656"/>
      <point x="669.9249877929688" y="83.72059631347656" type="curve" smooth="yes"/>
      <point x="471.6795860669138" y="348.917262794777" type="line"/>
      <point x="467.72790998255266" y="354.2034954915364"/>
      <point x="467.7252284549521" y="362.8556977067135"/>
      <point x="471.6736271166905" y="368.14437882850393" type="curve" smooth="yes"/>
      <point x="659.6610717773438" y="619.944091796875" type="line" smooth="yes"/>
      <point x="693.6610717773438" y="664.944091796875"/>
      <point x="643.7259521484375" y="752.765869140625"/>
      <point x="594.7259521484375" y="752.765869140625" type="curve" smooth="yes"/>
      <point x="566.7259521484375" y="752.765869140625"/>
      <point x="516.643798828125" y="722.025146484375"/>
      <point x="495.643798828125" y="693.025146484375" type="curve" smooth="yes"/>
      <point x="363.40275075374655" y="509.8084671421977" type="line"/>
      <point x="359.5400894627211" y="504.45684610266085"/>
      <point x="353.2077951459518" y="504.44846764332505"/>
      <point x="349.3309856053704" y="509.78984834367367" type="curve" smooth="yes"/>
      <point x="216.37940979003906" y="692.967529296875" type="line" smooth="yes"/>
      <point x="195.37940979003906" y="721.967529296875"/>
      <point x="145.3629608154297" y="752.94775390625"/>
      <point x="118.36296081542969" y="752.94775390625" type="curve" smooth="yes"/>
      <point x="69.36295700073242" y="752.94775390625"/>
      <point x="20.338930368423462" y="663.944091796875"/>
      <point x="53.338932037353516" y="619.944091796875" type="curve" smooth="yes"/>
      <point x="241.2540157069215" y="368.2413026576341" type="line"/>
      <point x="245.20241436791937" y="362.9526215352908"/>
      <point x="245.19065751254817" y="354.30721836489573"/>
      <point x="241.22788936165216" y="349.02929561231167" type="curve" smooth="yes"/>
      <point x="42.05622100830078" y="83.7569808959961" type="line" smooth="yes"/>
    </contour>
  </outline>
</glyph>
<glyph name="Y" format="2">
  <advance width="658"/>
  <unicode hex="0059"/>
  <anchor x="310" y="0" name="bottom"/>
  <anchor x="309" y="705" name="top"/>
  <anchor x="17" y="705" name="topleft"/>
  <outline>
    <contour>
      <point x="237.0" y="4.775816917419434"/>
      <point x="288.0" y="-48.53668212890625"/>
      <point x="329.0" y="-48.53668212890625" type="curve" smooth="yes"/>
      <point x="371.0" y="-48.53668212890625"/>
      <point x="421.0" y="4.775816917419434"/>
      <point x="421.0" y="47.77581787109375" type="curve" smooth="yes"/>
      <point x="421.0" y="301.8704833984375" type="line"/>
      <point x="421.0" y="308.4704833984375"/>
      <point x="424.117672899129" y="318.2795780553979"/>
      <point x="427.9281619980644" y="323.6684715250162" type="curve" smooth="yes"/>
      <point x="638.1949462890625" y="621.0332641601562" type="line" smooth="yes"/>
      <point x="668.1949462890625" y="664.0332641601562"/>
      <point x="629.3389282226562" y="753.1354370117188"/>
      <point x="577.3389282226562" y="753.1354370117188" type="curve" smooth="yes"/>
      <point x="548.3389282226562" y="753.1354370117188"/>
      <point x="498.53533935546875" y="721.959716796875"/>
      <point x="477.53533935546875" y="692.959716796875" type="curve" smooth="yes"/>
      <point x="338.04103822261686" y="496.11774399583913" type="line"/>
      <point x="334.22494760789243" y="490.7328157307448"/>
      <point x="327.99201512635744" y="490.74099881206155"/>
      <point x="324.1900771525391" y="496.13592862098756" type="curve" smooth="yes"/>
      <point x="185.4975128173828" y="692.93994140625" type="line" smooth="yes"/>
      <point x="165.4975128173828" y="720.93994140625"/>
      <point x="114.19778442382812" y="752.2088623046875"/>
      <point x="87.19778442382812" y="752.2088623046875" type="curve" smooth="yes"/>
      <point x="33.197784423828125" y="752.2088623046875"/>
      <point x="-7.863491058349609" y="658.9026489257812"/>
      <point x="18.13650870323181" y="622.9026489257812" type="curve" smooth="yes"/>
      <point x="230.04699180576685" y="324.8211129970893" type="line"/>
      <point x="233.87114631259507" y="319.44190838042846"/>
      <point x="237.0" y="309.6407409667969"/>
      <point x="237.0" y="303.0407409667969" type="curve" smooth="yes"/>
      <point x="237.0" y="47.77581787109375" type="line" smooth="yes"/>
    </contour>
  </outline>
</glyph>
<glyph name="Z" format="2">
  <advance width="645"/>
  <unicode hex="005A"/>
  <anchor x="314" y="0" name="bottom"/>
  <anchor x="313" y="705" name="top"/>
  <outline>
    <contour>
      <point x="10.94774341583252" y="65.06890106201172"/>
      <point x="39.606313705444336" y="-28.0"/>
      <point x="105.60631561279297" y="-28.0" type="curve" smooth="yes"/>
      <point x="566.1572265625" y="-28.0" type="line" smooth="yes"/>
      <point x="603.1572265625" y="-28.0"/>
      <point x="652.9141845703125" y="19.190807342529297"/>
      <point x="652.9141845703125" y="54.1908073425293" type="curve" smooth="yes"/>
      <point x="652.9141845703125" y="89.19081115722656"/>
      <point x="603.0061645507812" y="135.0"/>
      <point x="566.0061645507812" y="135.0" type="curve" smooth="yes"/>
      <point x="284.05775451660156" y="135.0" type="line"/>
      <point x="277.45775451660154" y="135.0"/>
      <point x="275.26675741669374" y="139.3430749921225"/>
      <point x="279.18887207236196" y="144.65127776027225" type="curve" smooth="yes"/>
      <point x="600.0572509765625" y="578.9155883789062" type="line" smooth="yes"/>
      <point x="646.0572509765625" y="640.9155883789062"/>
      <point x="616.3936767578125" y="733.0"/>
      <point x="550.3936767578125" y="733.0" type="curve" smooth="yes"/>
      <point x="104.99380493164062" y="733.0" type="line" smooth="yes"/>
      <point x="67.99380493164062" y="733.0"/>
      <point x="18.085806250572205" y="686.1907958984375"/>
      <point x="18.085806250572205" y="652.1907958984375" type="curve" smooth="yes"/>
      <point x="18.085806250572205" y="617.1907958984375"/>
      <point x="67.84276962280273" y="570.0"/>
      <point x="104.8427734375" y="570.0" type="curve" smooth="yes"/>
      <point x="371.32550048828125" y="570.0" type="line"/>
      <point x="377.9255004882813" y="570.0"/>
      <point x="380.12050877696225" y="565.6539640900729"/>
      <point x="376.20329668535015" y="560.3421424223841" type="curve" smooth="yes"/>
      <point x="55.9477424621582" y="126.06890106201172" type="line" smooth="yes"/>
    </contour>
  </outline>
</glyph>
<glyph name="bracketleft" format="2">
  <advance width="394"/>
  <unicode hex="005B"/>
  <outline>
    <contour>
      <point x="98.0" y="-169.75450134277344"/>
      <point x="137.55792236328125" y="-208.0"/>
      <point x="167.55792236328125" y="-208.0" type="curve" smooth="yes"/>
      <point x="333.42572021484375" y="-208.0" type="line" smooth="yes"/>
      <point x="363.42572021484375" y="-208.0"/>
      <point x="410.0214538574219" y="-160.0"/>
      <point x="410.0214538574219" y="-133.0" type="curve" smooth="yes"/>
      <point x="410.0214538574219" y="-106.0"/>
      <point x="363.42572021484375" y="-58.0"/>
      <point x="333.42572021484375" y="-58.0" type="curve" smooth="yes"/>
      <point x="291.0" y="-58.0" type="line"/>
      <point x="284.4" y="-58.0"/>
      <point x="279.0" y="-52.6"/>
      <point x="279.0" y="-46.0" type="curve" smooth="yes"/>
      <point x="279.0" y="571.0" type="line"/>
      <point x="279.0" y="577.6"/>
      <point x="284.4" y="583.0"/>
      <point x="291.0" y="583.0" type="curve" smooth="yes"/>
      <point x="333.42572021484375" y="583.0" type="line" smooth="yes"/>
      <point x="363.42572021484375" y="583.0"/>
      <point x="410.0214538574219" y="631.0"/>
      <point x="410.0214538574219" y="658.0" type="curve" smooth="yes"/>
      <point x="410.0214538574219" y="685.0"/>
      <point x="363.42572021484375" y="733.0"/>
      <point x="333.42572021484375" y="733.0" type="curve" smooth="yes"/>
      <point x="167.55792236328125" y="733.0" type="line" smooth="yes"/>
      <point x="137.55792236328125" y="733.0"/>
      <point x="98.0" y="694.7545166015625"/>
      <point x="98.0" y="664.7545166015625" type="curve" smooth="yes"/>
      <point x="98.0" y="-139.75450134277344" type="line" smooth="yes"/>
    </contour>
  </outline>
</glyph>
<glyph name="backslash" format="2">
  <advance width="353"/>
  <unicode hex="005C"/>
  <outline>
    <contour>
      <point x="226.81849670410156" y="-63.911407470703125" type="line" smooth="yes"/>
      <point x="246.81849670410156" y="-126.91140747070312"/>
      <point x="395.3446960449219" y="-84.39801025390625"/>
      <point x="374.3446960449219" y="-18.39801025390625" type="curve" smooth="yes"/>
      <point x="126.25298309326172" y="751.65283203125" type="line" smooth="yes"/>
      <point x="105.25298309326172" y="815.65283203125"/>
      <point x="-41.41865539550781" y="772.66552734375"/>
      <point x="-21.418655395507812" y="707.66552734375" type="curve" smooth="yes"/>
    </contour>
  </outline>
</glyph>
<glyph name="bracketright" format="2">
  <advance width="394"/>
  <unicode hex="005D"/>
  <outline>
    <contour>
      <point x="-16.02145004272461" y="-160.0"/>
      <point x="30.57429313659668" y="-208.0"/>
      <point x="60.57429122924805" y="-208.0" type="curve" smooth="yes"/>
      <point x="226.44207763671875" y="-208.0" type="line" smooth="yes"/>
      <point x="256.44207763671875" y="-208.0"/>
      <point x="296.0" y="-169.75450134277344"/>
      <point x="296.0" y="-139.75450134277344" type="curve" smooth="yes"/>
      <point x="296.0" y="664.7545166015625" type="line" smooth="yes"/>
      <point x="296.0" y="694.7545166015625"/>
      <point x="256.44207763671875" y="733.0"/>
      <point x="226.44207763671875" y="733.0" type="curve" smooth="yes"/>
      <point x="60.57429122924805" y="733.0" type="line" smooth="yes"/>
      <point x="30.57429313659668" y="733.0"/>
      <point x="-16.02145004272461" y="685.0"/>
      <point x="-16.02145004272461" y="658.0" type="curve" smooth="yes"/>
      <point x="-16.02145004272461" y="631.0"/>
      <point x="30.57429313659668" y="583.0"/>
      <point x="60.57429122924805" y="583.0" type="curve" smooth="yes"/>
      <point x="103.0" y="583.0" type="line"/>
      <point x="109.6" y="583.0"/>
      <point x="115.0" y="577.6"/>
      <point x="115.0" y="571.0" type="curve" smooth="yes"/>
      <point x="115.0" y="-46.0" type="line"/>
      <point x="115.0" y="-52.6"/>
      <point x="109.6" y="-58.0"/>
      <point x="103.0" y="-58.0" type="curve" smooth="yes"/>
      <point x="60.57429122924805" y="-58.0" type="line" smooth="yes"/>
      <point x="30.57429313659668" y="-58.0"/>
      <point x="-16.02145004272461" y="-106.0"/>
      <point x="-16.02145004272461" y="-133.0" type="curve" smooth="yes"/>
    </contour>
  </outline>
</glyph>
<glyph name="asciicircum" format="2">
  <advance width="640"/>
  <unicode hex="005E"/>
  <outline>
    <contour>
      <point x="42.4511775970459" y="157.3649139404297"/>
      <point x="80.26740646362305" y="90.54978942871094"/>
      <point x="120.26741027832031" y="90.54978942871094" type="curve" smooth="yes"/>
      <point x="143.2674102783203" y="90.54978942871094"/>
      <point x="185.07179260253906" y="123.6469497680664"/>
      <point x="197.07179260253906" y="152.64695739746094" type="curve" smooth="yes"/>
      <point x="315.6802695145089" y="434.090788723926" type="line"/>
      <point x="318.2433878220563" y="440.1727641054542"/>
      <point x="322.427507101753" y="440.16853050004283"/>
      <point x="324.97831235827925" y="434.08138071190075" type="curve" smooth="yes"/>
      <point x="442.90478515625" y="152.6658935546875" type="line" smooth="yes"/>
      <point x="454.90478515625" y="123.6658935546875"/>
      <point x="497.73260498046875" y="90.54978942871094"/>
      <point x="519.7326049804688" y="90.54978942871094" type="curve" smooth="yes"/>
      <point x="560.7326049804688" y="90.54978942871094"/>
      <point x="598.548828125" y="156.3649139404297"/>
      <point x="583.548828125" y="190.3649139404297" type="curve" smooth="yes"/>
      <point x="403.5140686035156" y="613.6044921875" type="line" smooth="yes"/>
      <point x="391.5140686035156" y="641.6044921875"/>
      <point x="350.0" y="669.7369384765625"/>
      <point x="320.0" y="669.7369384765625" type="curve" smooth="yes"/>
      <point x="291.0" y="669.7369384765625"/>
      <point x="248.48593139648438" y="642.6044921875"/>
      <point x="236.48593139648438" y="613.6044921875" type="curve" smooth="yes"/>
      <point x="56.45117950439453" y="190.3649139404297" type="line" smooth="yes"/>
    </contour>
  </outline>
</glyph>
<glyph name="underscore" format="2">
  <advance width="540"/>
  <unicode hex="005F"/>
  <outline>
    <contour>
      <point x="-8.940101623535156" y="-59.272377014160156"/>
      <point x="38.03570556640625" y="-103.0"/>
      <point x="61.03570556640625" y="-103.0" type="curve" smooth="yes"/>
      <point x="480.16876220703125" y="-103.0" type="line" smooth="yes"/>
      <point x="502.16876220703125" y="-103.0"/>
      <point x="548.3986206054688" y="-59.269126892089844"/>
      <point x="548.3986206054688" y="-38.269126892089844" type="curve" smooth="yes"/>
      <point x="548.3986206054688" y="-17.269128799438477"/>
      <point x="502.38555908203125" y="28.0"/>
      <point x="480.38555908203125" y="28.0" type="curve" smooth="yes"/>
      <point x="60.82029342651367" y="28.0" type="line" smooth="yes"/>
      <point x="37.820295333862305" y="28.0"/>
      <point x="-8.940101623535156" y="-17.272377014160156"/>
      <point x="-8.940101623535156" y="-38.272377014160156" type="curve" smooth="yes"/>
    </contour>
  </outline>
</glyph>
<glyph name="a" format="2">
  <advance width="587"/>
  <unicode hex="0061"/>
  <anchor x="275" y="0" name="bottom"/>
  <anchor x="450" y="0" name="ogonek"/>
  <anchor x="279" y="484" name="top"/>
  <outline>
    <contour>
      <point x="12.615613460540771" y="62.98141098022461"/>
      <point x="137.42314910888672" y="-44.51130676269531"/>
      <point x="243.4231414794922" y="-44.51130676269531" type="curve" smooth="yes"/>
      <point x="312.0382995605469" y="-44.51130676269531"/>
      <point x="337.87969970703125" y="-27.035343170166016"/>
      <point x="360.0" y="27.555683135986328" type="curve"/>
      <point x="360.0" y="38.06003189086914" type="line"/>
      <point x="360.0" y="41.91162643432617"/>
      <point x="362.13596303776114" y="42.7459539892392"/>
      <point x="364.74658452835814" y="39.91409312400919" type="curve" smooth="yes"/>
      <point x="360.0" y="4.062932014465332"/>
      <point x="409.1766357421875" y="-49.501564025878906"/>
      <point x="447.1766357421875" y="-49.501564025878906" type="curve" smooth="yes"/>
      <point x="484.1766357421875" y="-49.501564025878906"/>
      <point x="533.0" y="4.200066089630127"/>
      <point x="533.0" y="45.20006561279297" type="curve" smooth="yes"/>
      <point x="533.0" y="307.9161682128906" type="line" smooth="yes"/>
      <point x="533.0" y="446.9161682128906"/>
      <point x="445.7294006347656" y="529.4561157226562"/>
      <point x="302.7294006347656" y="529.4561157226562" type="curve" smooth="yes"/>
      <point x="255.72940063476562" y="529.4561157226562"/>
      <point x="152.81976318359375" y="509.98724365234375"/>
      <point x="91.81975555419922" y="484.98724365234375" type="curve" smooth="yes"/>
      <point x="29.81975555419922" y="459.98724365234375"/>
      <point x="74.25425720214844" y="310.8801574707031"/>
      <point x="138.25425720214844" y="340.8801574707031" type="curve" smooth="yes"/>
      <point x="187.25425720214844" y="363.8801574707031"/>
      <point x="242.3902587890625" y="374.2427062988281"/>
      <point x="281.3902587890625" y="374.2427062988281" type="curve" smooth="yes"/>
      <point x="343.32904052734375" y="374.2427062988281"/>
      <point x="355.799560546875" y="367.7852783203125"/>
      <point x="357.7032775878906" y="318.0" type="curve"/>
      <point x="344.3490905761719" y="318.0" type="line" smooth="yes"/>
      <point x="132.34908294677734" y="318.0"/>
      <point x="12.615613460540771" y="257.9814147949219"/>
      <point x="12.615613460540771" y="150.98141479492188" type="curve" smooth="yes"/>
    </contour>
    <contour>
      <point x="357.4687805175781" y="190.0" type="line"/>
      <point x="353.70098876953125" y="133.4327850341797"/>
      <point x="329.4305114746094" y="114.62734985351562"/>
      <point x="270.07525634765625" y="114.62734985351562" type="curve" smooth="yes"/>
      <point x="242.57290649414062" y="114.62734985351562"/>
      <point x="234.591552734375" y="110.50796508789062"/>
      <point x="233.4853057861328" y="111.89034271240234" type="curve" smooth="yes"/>
      <point x="232.37925720214844" y="113.27249145507812"/>
      <point x="238.14593505859375" y="120.1545181274414"/>
      <point x="238.14593505859375" y="142.1526336669922" type="curve" smooth="yes"/>
      <point x="238.14593505859375" y="160.86917114257812"/>
      <point x="237.373046875" y="172.2923126220703"/>
      <point x="242.5729522705078" y="179.25448608398438" type="curve" smooth="yes"/>
      <point x="251.5420684814453" y="191.2632598876953"/>
      <point x="278.2811584472656" y="190.0"/>
      <point x="357.40728759765625" y="190.0" type="curve" smooth="yes"/>
    </contour>
  </outline>
</glyph>
<glyph name="b" format="2">
  <advance width="640"/>
  <unicode hex="0062"/>
  <anchor x="307" y="0" name="bottom"/>
  <anchor x="313" y="705" name="top"/>
  <outline>
    <contour>
      <point x="263.9621276855469" y="-23.799673080444336"/>
      <point x="302.2264404296875" y="-45.52317810058594"/>
      <point x="373.6732482910156" y="-45.52317810058594" type="curve" smooth="yes"/>
      <point x="501.6732482910156" y="-45.52317810058594"/>
      <point x="618.6541137695312" y="88.0354995727539"/>
      <point x="618.6541137695312" y="245.03550720214844" type="curve" smooth="yes"/>
      <point x="618.6541137695312" y="402.0354919433594"/>
      <point x="502.89544677734375" y="534.1921997070312"/>
      <point x="373.89544677734375" y="534.1921997070312" type="curve" smooth="yes"/>
      <point x="304.6894226074219" y="534.1921997070312"/>
      <point x="266.8078155517578" y="513.0972290039062"/>
      <point x="238.0" y="463.20306396484375" type="curve"/>
      <point x="238.0" y="661.5979614257812" type="line" smooth="yes"/>
      <point x="238.0" y="702.5979614257812"/>
      <point x="186.84097290039062" y="752.7570190429688"/>
      <point x="146.84097290039062" y="752.7570190429688" type="curve" smooth="yes"/>
      <point x="106.84097290039062" y="752.7570190429688"/>
      <point x="57.0" y="702.4669799804688"/>
      <point x="57.0" y="661.4669799804688" type="curve" smooth="yes"/>
      <point x="57.0" y="44.6614990234375" type="line" smooth="yes"/>
      <point x="57.0" y="3.6615004539489746"/>
      <point x="107.16414642333984" y="-48.41116714477539"/>
      <point x="147.16414642333984" y="-48.41116714477539" type="curve" smooth="yes"/>
      <point x="186.1641387939453" y="-48.41116714477539"/>
      <point x="236.0" y="3.793665647506714"/>
      <point x="236.0" y="44.79366683959961" type="curve"/>
      <point x="236.0" y="35.6140380859375" type="line"/>
      <point x="236.0" y="32.24817420959473"/>
      <point x="238.4181952301709" y="28.176623110123593"/>
      <point x="241.37376717815755" y="26.566146753779428" type="curve" smooth="yes"/>
    </contour>
    <contour>
      <point x="420.5338134765625" y="138.9461212158203"/>
      <point x="406.0" y="130.7089385986328"/>
      <point x="332.0" y="130.7089385986328" type="curve" smooth="yes"/>
      <point x="257.0" y="130.7089385986328"/>
      <point x="243.46617126464844" y="138.9461212158203"/>
      <point x="243.46617126464844" y="244.9461212158203" type="curve" smooth="yes"/>
      <point x="243.46617126464844" y="350.9461364746094"/>
      <point x="257.0" y="358.4693298339844"/>
      <point x="332.0" y="358.4693298339844" type="curve" smooth="yes"/>
      <point x="406.0" y="358.4693298339844"/>
      <point x="420.5338134765625" y="350.9461364746094"/>
      <point x="420.5338134765625" y="244.9461212158203" type="curve" smooth="yes"/>
    </contour>
  </outline>
</glyph>
<glyph name="c" format="2">
  <advance width="512"/>
  <unicode hex="0063"/>
  <anchor x="284" y="0" name="bottom"/>
  <anchor x="284" y="484" name="top"/>
  <outline>
    <contour>
      <point x="18.518065094947815" y="90.19392395019531"/>
      <point x="147.5329360961914" y="-41.311302185058594"/>
      <point x="302.5329284667969" y="-41.311302185058594" type="curve" smooth="yes"/>
      <point x="346.5329284667969" y="-41.311302185058594"/>
      <point x="446.6973571777344" y="-17.23810386657715"/>
      <point x="490.6973571777344" y="9.761895179748535" type="curve" smooth="yes"/>
      <point x="540.6973266601562" y="40.76189422607422"/>
      <point x="483.13824462890625" y="176.33599853515625"/>
      <point x="426.13824462890625" y="145.33599853515625" type="curve" smooth="yes"/>
      <point x="395.13824462890625" y="128.33599853515625"/>
      <point x="359.65020751953125" y="118.79442596435547"/>
      <point x="331.65020751953125" y="118.79442596435547" type="curve" smooth="yes"/>
      <point x="244.6502227783203" y="118.79442596435547"/>
      <point x="222.99453735351562" y="146.82571411132812"/>
      <point x="222.99453735351562" y="245.82571411132812" type="curve" smooth="yes"/>
      <point x="222.99453735351562" y="345.8257141113281"/>
      <point x="244.3377685546875" y="370.1017761230469"/>
      <point x="331.3377685546875" y="370.1017761230469" type="curve" smooth="yes"/>
      <point x="359.3377685546875" y="370.1017761230469"/>
      <point x="395.16192626953125" y="359.6924743652344"/>
      <point x="425.16192626953125" y="342.6924743652344" type="curve" smooth="yes"/>
      <point x="480.16192626953125" y="311.6924743652344"/>
      <point x="548.9888916015625" y="444.9075927734375"/>
      <point x="495.9888916015625" y="477.9075927734375" type="curve" smooth="yes"/>
      <point x="450.9888916015625" y="505.9075927734375"/>
      <point x="346.70318603515625" y="530.2557983398438"/>
      <point x="302.70318603515625" y="530.2557983398438" type="curve" smooth="yes"/>
      <point x="147.70319366455078" y="530.2557983398438"/>
      <point x="18.518065094947815" y="403.19390869140625"/>
      <point x="18.518065094947815" y="247.1939239501953" type="curve" smooth="yes"/>
    </contour>
  </outline>
</glyph>
<glyph name="d" format="2">
  <advance width="640"/>
  <unicode hex="0064"/>
  <anchor x="302" y="0" name="bottom"/>
  <anchor x="296" y="246" name="center"/>
  <anchor x="423" y="588" name="stroke"/>
  <anchor x="301" y="705" name="top"/>
  <anchor x="576" y="705" name="topright"/>
  <outline>
    <contour>
      <point x="21.345892786979675" y="88.0354995727539"/>
      <point x="138.3663330078125" y="-45.57014465332031"/>
      <point x="266.3663330078125" y="-45.57014465332031" type="curve" smooth="yes"/>
      <point x="336.9500732421875" y="-45.57014465332031"/>
      <point x="375.0534362792969" y="-23.943347930908203"/>
      <point x="403.0" y="29.347612380981445" type="curve"/>
      <point x="403.0" y="38.53594436645508" type="line"/>
      <point x="403.0" y="41.90499942779541"/>
      <point x="404.9179592402506" y="42.681670148632286"/>
      <point x="407.26213164500126" y="40.26187930164812" type="curve" smooth="yes"/>
      <point x="403.0" y="3.6615004539489746"/>
      <point x="453.0" y="-48.24172592163086"/>
      <point x="493.0" y="-48.24172592163086" type="curve" smooth="yes"/>
      <point x="533.0" y="-48.24172592163086"/>
      <point x="583.0" y="3.6615004539489746"/>
      <point x="583.0" y="44.6614990234375" type="curve" smooth="yes"/>
      <point x="583.0" y="661.5979614257812" type="line" smooth="yes"/>
      <point x="583.0" y="702.5979614257812"/>
      <point x="531.8409729003906" y="752.7570190429688"/>
      <point x="491.8409729003906" y="752.7570190429688" type="curve" smooth="yes"/>
      <point x="451.8409729003906" y="752.7570190429688"/>
      <point x="402.0" y="702.4669799804688"/>
      <point x="402.0" y="661.4669799804688" type="curve" smooth="yes"/>
      <point x="402.0" y="473.9695739746094" type="line"/>
      <point x="402.0" y="467.36957397460935"/>
      <point x="397.23467560992566" y="464.5095904031709"/>
      <point x="391.4103902442792" y="467.61405492696827" type="curve" smooth="yes"/>
      <point x="373.7559814453125" y="512.8161010742188"/>
      <point x="336.2037353515625" y="534.338623046875"/>
      <point x="266.2284393310547" y="534.338623046875" type="curve" smooth="yes"/>
      <point x="137.22843170166016" y="534.338623046875"/>
      <point x="21.345892786979675" y="402.0354919433594"/>
      <point x="21.345892786979675" y="245.03550720214844" type="curve" smooth="yes"/>
    </contour>
    <contour>
      <point x="396.5338134765625" y="138.9461212158203"/>
      <point x="382.0" y="130.7089385986328"/>
      <point x="308.0" y="130.7089385986328" type="curve" smooth="yes"/>
      <point x="233.0" y="130.7089385986328"/>
      <point x="219.46617126464844" y="138.9461212158203"/>
      <point x="219.46617126464844" y="244.9461212158203" type="curve" smooth="yes"/>
      <point x="219.46617126464844" y="350.9461364746094"/>
      <point x="233.0" y="358.4693298339844"/>
      <point x="308.0" y="358.4693298339844" type="curve" smooth="yes"/>
      <point x="382.0" y="358.4693298339844"/>
      <point x="396.5338134765625" y="350.9461364746094"/>
      <point x="396.5338134765625" y="244.9461212158203" type="curve" smooth="yes"/>
    </contour>
  </outline>
</glyph>
<glyph name="e" format="2">
  <advance width="582"/>
  <unicode hex="0065"/>
  <anchor x="284" y="0" name="bottom"/>
  <anchor x="371" y="0" name="ogonek"/>
  <anchor x="284" y="484" name="top"/>
  <outline>
    <contour>
      <point x="18.277257204055786" y="87.07010650634766"/>
      <point x="152.02032470703125" y="-41.01475143432617"/>
      <point x="318.02032470703125" y="-41.01475143432617" type="curve" smooth="yes"/>
      <point x="370.02032470703125" y="-41.01475143432617"/>
      <point x="485.3420104980469" y="-14.161223411560059"/>
      <point x="532.3419799804688" y="14.838776588439941" type="curve" smooth="yes"/>
      <point x="592.3419799804688" y="51.838775634765625"/>
      <point x="531.5429992675781" y="185.3206024169922"/>
      <point x="462.5429992675781" y="146.3206024169922" type="curve" smooth="yes"/>
      <point x="423.5429992675781" y="124.32059478759766"/>
      <point x="369.484619140625" y="115.61482238769531"/>
      <point x="335.484619140625" y="115.61482238769531" type="curve" smooth="yes"/>
      <point x="290.2158508300781" y="115.61482238769531"/>
      <point x="271.8961181640625" y="111.56758880615234"/>
      <point x="263.6358642578125" y="118.88147735595703" type="curve" smooth="yes"/>
      <point x="255.51730346679688" y="126.0699234008789"/>
      <point x="257.11610412597656" y="144.23309326171875"/>
      <point x="252.3970184326172" y="188.0" type="curve"/>
      <point x="489.53912353515625" y="188.0" type="line" smooth="yes"/>
      <point x="520.5391235351562" y="188.0"/>
      <point x="569.2195434570312" y="225.4203338623047"/>
      <point x="569.2195434570312" y="249.4203338623047" type="curve" smooth="yes"/>
      <point x="569.2195434570312" y="401.42034912109375"/>
      <point x="442.5027160644531" y="539.9374389648438"/>
      <point x="303.5027160644531" y="539.9374389648438" type="curve" smooth="yes"/>
      <point x="160.50271606445312" y="539.9374389648438"/>
      <point x="18.277257204055786" y="394.0700988769531"/>
      <point x="18.277257204055786" y="243.07009887695312" type="curve" smooth="yes"/>
    </contour>
    <contour>
      <point x="259.1244354248047" y="316.0" type="line"/>
      <point x="252.5244354248047" y="316.0"/>
      <point x="247.6862332204216" y="321.37069671800964"/>
      <point x="248.37287497062005" y="327.93488159557705" type="curve" smooth="yes"/>
      <point x="252.18199157714844" y="355.8089294433594"/>
      <point x="248.31690979003906" y="370.0343017578125"/>
      <point x="253.23667907714844" y="374.43206787109375" type="curve" smooth="yes"/>
      <point x="257.93650817871094" y="378.63323974609375"/>
      <point x="270.6532897949219" y="373.8658752441406"/>
      <point x="306.8242492675781" y="373.8658752441406" type="curve" smooth="yes"/>
      <point x="341.354248046875" y="373.8658752441406"/>
      <point x="353.7950439453125" y="379.4872131347656"/>
      <point x="357.9859313964844" y="375.7806396484375" type="curve" smooth="yes"/>
      <point x="362.384521484375" y="371.890380859375"/>
      <point x="357.69525146484375" y="357.7247619628906"/>
      <point x="359.9186096191406" y="316.0" type="curve"/>
    </contour>
  </outline>
</glyph>
<glyph name="f" format="2">
  <advance width="404"/>
  <unicode hex="0066"/>
  <anchor x="161" y="0" name="bottom"/>
  <anchor x="161" y="705" name="top"/>
  <outline>
    <contour>
      <point x="90.0" y="3.5309576988220215"/>
      <point x="141.16026306152344" y="-48.0762939453125"/>
      <point x="181.16026306152344" y="-48.0762939453125" type="curve" smooth="yes"/>
      <point x="222.16026306152344" y="-48.0762939453125"/>
      <point x="271.0" y="3.6615004539489746"/>
      <point x="271.0" y="44.6614990234375" type="curve" smooth="yes"/>
      <point x="271.0" y="355.0" type="line"/>
      <point x="271.0" y="361.6"/>
      <point x="276.4" y="367.0"/>
      <point x="283.0" y="367.0" type="curve" smooth="yes"/>
      <point x="339.09405517578125" y="367.0" type="line" smooth="yes"/>
      <point x="371.09405517578125" y="367.0"/>
      <point x="418.88128662109375" y="412.0"/>
      <point x="418.88128662109375" y="442.0" type="curve" smooth="yes"/>
      <point x="418.88128662109375" y="472.0"/>
      <point x="371.09405517578125" y="517.0"/>
      <point x="339.09405517578125" y="517.0" type="curve" smooth="yes"/>
      <point x="283.5556182861328" y="517.0" type="line"/>
      <point x="276.9556182861328" y="517.0"/>
      <point x="275.8448838174995" y="520.2805794002629"/>
      <point x="281.0873194669477" y="524.2901764450287" type="curve" smooth="yes"/>
      <point x="275.0135955810547" y="569.3181762695312"/>
      <point x="295.7192687988281" y="583.2943115234375"/>
      <point x="364.1170349121094" y="587.794189453125" type="curve" smooth="yes"/>
      <point x="397.6042175292969" y="590.1860961914062" type="line" smooth="yes"/>
      <point x="448.6042175292969" y="594.1860961914062"/>
      <point x="446.291259765625" y="744.2521362304688"/>
      <point x="378.291259765625" y="738.2521362304688" type="curve" smooth="yes"/>
      <point x="306.904052734375" y="731.9532470703125" type="line" smooth="yes"/>
      <point x="175.90403747558594" y="719.9532470703125"/>
      <point x="90.0" y="638.0900268554688"/>
      <point x="90.0" y="501.0900573730469" type="curve"/>
      <point x="90.0" y="510.6360229492187" type="line"/>
      <point x="90.0" y="514.1362103271484"/>
      <point x="87.13621032714843" y="517.0"/>
      <point x="83.63602294921876" y="517.0" type="curve" smooth="yes"/>
      <point x="60.90595245361328" y="517.0" type="line" smooth="yes"/>
      <point x="28.90595054626465" y="517.0"/>
      <point x="-18.881282806396484" y="472.0"/>
      <point x="-18.881282806396484" y="442.0" type="curve" smooth="yes"/>
      <point x="-18.881282806396484" y="412.0"/>
      <point x="28.90595054626465" y="367.0"/>
      <point x="60.90595245361328" y="367.0" type="curve" smooth="yes"/>
      <point x="78.36238098144531" y="367.0" type="line"/>
      <point x="84.7630714416504" y="367.0"/>
      <point x="90.0" y="361.76307144165037"/>
      <point x="90.0" y="355.3623809814453" type="curve" smooth="yes"/>
      <point x="90.0" y="44.53095626831055" type="line" smooth="yes"/>
    </contour>
  </outline>
</glyph>
<glyph name="g" format="2">
  <advance width="644"/>
  <unicode hex="0067"/>
  <anchor x="303" y="484" name="top"/>
  <outline>
    <contour>
      <point x="133.80513763427734" y="-197.61630249023438"/>
      <point x="249.8357391357422" y="-220.454345703125"/>
      <point x="321.83575439453125" y="-220.454345703125" type="curve" smooth="yes"/>
      <point x="481.83575439453125" y="-220.454345703125"/>
      <point x="587.0" y="-121.83541107177734"/>
      <point x="587.0" y="37.16459274291992" type="curve" smooth="yes"/>
      <point x="587.0" y="445.46697998046875" type="line" smooth="yes"/>
      <point x="587.0" y="486.46697998046875"/>
      <point x="537.0" y="536.9185791015625"/>
      <point x="497.0" y="536.9185791015625" type="curve" smooth="yes"/>
      <point x="458.0" y="536.9185791015625"/>
      <point x="407.0" y="486.46697998046875"/>
      <point x="407.0" y="445.46697998046875" type="curve"/>
      <point x="407.0" y="454.29442138671874" type="line"/>
      <point x="407.0" y="457.5311499023437"/>
      <point x="404.66899705260755" y="461.43618788575867"/>
      <point x="401.819993450239" y="462.9722835720852" type="curve" smooth="yes"/>
      <point x="379.8112487792969" y="512.752685546875"/>
      <point x="341.06146240234375" y="534.109619140625"/>
      <point x="269.8812561035156" y="534.109619140625" type="curve" smooth="yes"/>
      <point x="137.88125610351562" y="534.109619140625"/>
      <point x="20.418167263269424" y="402.0383605957031"/>
      <point x="20.418167263269424" y="256.0383605957031" type="curve" smooth="yes"/>
      <point x="20.418167263269424" y="110.0383529663086"/>
      <point x="138.0122299194336" y="-23.323806762695312"/>
      <point x="270.01222229003906" y="-23.323806762695312" type="curve" smooth="yes"/>
      <point x="340.6601867675781" y="-23.323806762695312"/>
      <point x="381.49725341796875" y="-1.2010067701339722"/>
      <point x="409.0" y="53.65311050415039" type="curve"/>
      <point x="409.0" y="45.9110107421875" type="line" smooth="yes"/>
      <point x="409.0" y="-40.0889892578125"/>
      <point x="383.5243835449219" y="-64.29312896728516"/>
      <point x="294.5243835449219" y="-64.29312896728516" type="curve" smooth="yes"/>
      <point x="256.5243835449219" y="-64.29312896728516"/>
      <point x="193.78501892089844" y="-56.267452239990234"/>
      <point x="134.78501892089844" y="-27.267454147338867" type="curve" smooth="yes"/>
      <point x="83.7850227355957" y="-2.267453193664551"/>
      <point x="15.805134773254395" y="-137.61630249023438"/>
      <point x="78.80513381958008" y="-169.61630249023438" type="curve" smooth="yes"/>
    </contour>
    <contour>
      <point x="399.2790832519531" y="163.9390106201172"/>
      <point x="387.0" y="150.36294555664062"/>
      <point x="310.0" y="150.36294555664062" type="curve" smooth="yes"/>
      <point x="233.0" y="150.36294555664062"/>
      <point x="220.72091674804688" y="163.9390106201172"/>
      <point x="220.72091674804688" y="255.9390106201172" type="curve" smooth="yes"/>
      <point x="220.72091674804688" y="347.9389953613281"/>
      <point x="233.0" y="360.8064880371094"/>
      <point x="310.0" y="360.8064880371094" type="curve" smooth="yes"/>
      <point x="387.0" y="360.8064880371094"/>
      <point x="399.2790832519531" y="347.9389953613281"/>
      <point x="399.2790832519531" y="255.9390106201172" type="curve" smooth="yes"/>
    </contour>
  </outline>
</glyph>
<glyph name="h" format="2">
  <advance width="625"/>
  <unicode hex="0068"/>
  <anchor x="294" y="0" name="bottom"/>
  <anchor x="294" y="248" name="center"/>
  <anchor x="303" y="352" name="dot"/>
  <anchor x="178" y="588" name="stroke"/>
  <anchor x="294" y="705" name="top"/>
  <anchor x="220" y="705" name="topright"/>
  <outline>
    <contour>
      <point x="57.0" y="3.6615004539489746"/>
      <point x="106.83973693847656" y="-48.0762939453125"/>
      <point x="146.83973693847656" y="-48.0762939453125" type="curve" smooth="yes"/>
      <point x="187.83973693847656" y="-48.0762939453125"/>
      <point x="238.0" y="3.5309576988220215"/>
      <point x="238.0" y="44.53095626831055" type="curve" smooth="yes"/>
      <point x="238.0" y="263.79998779296875" type="line" smooth="yes"/>
      <point x="238.0" y="339.79998779296875"/>
      <point x="255.26365661621094" y="358.57684326171875"/>
      <point x="328.263671875" y="358.57684326171875" type="curve" smooth="yes"/>
      <point x="388.263671875" y="358.57684326171875"/>
      <point x="390.0" y="358.10797119140625"/>
      <point x="390.0" y="282.10797119140625" type="curve" smooth="yes"/>
      <point x="390.0" y="44.53095626831055" type="line" smooth="yes"/>
      <point x="390.0" y="3.5309576988220215"/>
      <point x="441.1602478027344" y="-48.0762939453125"/>
      <point x="481.1602478027344" y="-48.0762939453125" type="curve" smooth="yes"/>
      <point x="521.1602478027344" y="-48.0762939453125"/>
      <point x="571.0" y="3.6615004539489746"/>
      <point x="571.0" y="44.6614990234375" type="curve" smooth="yes"/>
      <point x="571.0" y="308.39044189453125" type="line" smooth="yes"/>
      <point x="571.0" y="443.39044189453125"/>
      <point x="493.9206237792969" y="533.8814697265625"/>
      <point x="376.9206237792969" y="533.8814697265625" type="curve" smooth="yes"/>
      <point x="308.78399658203125" y="533.8814697265625"/>
      <point x="271.3972930908203" y="516.2791137695312"/>
      <point x="238.0" y="463.59326171875" type="curve"/>
      <point x="238.0" y="661.5979614257812" type="line" smooth="yes"/>
      <point x="238.0" y="702.5979614257812"/>
      <point x="186.84097290039062" y="752.7570190429688"/>
      <point x="146.84097290039062" y="752.7570190429688" type="curve" smooth="yes"/>
      <point x="106.84097290039062" y="752.7570190429688"/>
      <point x="57.0" y="702.4669799804688"/>
      <point x="57.0" y="661.4669799804688" type="curve" smooth="yes"/>
      <point x="57.0" y="44.6614990234375" type="line" smooth="yes"/>
    </contour>
  </outline>
</glyph>
<glyph name="i" format="2">
  <advance width="295"/>
  <unicode hex="0069"/>
  <anchor x="127" y="0" name="bottom"/>
  <anchor x="164" y="0" name="ogonek"/>
  <outline>
    <contour>
      <point x="57.0" y="7.1514739990234375"/>
      <point x="106.83507537841797" y="-48.3773193359375"/>
      <point x="146.83507537841797" y="-48.3773193359375" type="curve" smooth="yes"/>
      <point x="187.8350830078125" y="-48.3773193359375"/>
      <point x="238.0" y="7.0229172706604"/>
      <point x="238.0" y="50.022918701171875" type="curve" smooth="yes"/>
      <point x="238.0" y="438.9770812988281" type="line" smooth="yes"/>
      <point x="238.0" y="482.9770812988281"/>
      <point x="186.8350830078125" y="537.3773193359375"/>
      <point x="146.83507537841797" y="537.3773193359375" type="curve" smooth="yes"/>
      <point x="106.83507537841797" y="537.3773193359375"/>
      <point x="57.0" y="482.8485412597656"/>
      <point x="57.0" y="438.8485412597656" type="curve" smooth="yes"/>
      <point x="57.0" y="50.15147399902344" type="line" smooth="yes"/>
    </contour>
    <contour>
      <point x="30.93363094329834" y="613.0"/>
      <point x="100.0" y="551.4813232421875"/>
      <point x="147.0" y="551.4813232421875" type="curve" smooth="yes"/>
      <point x="195.0" y="551.4813232421875"/>
      <point x="263.0663757324219" y="613.0"/>
      <point x="263.0663757324219" y="655.0" type="curve" smooth="yes"/>
      <point x="263.0663757324219" y="698.0"/>
      <point x="195.0" y="758.5186767578125"/>
      <point x="147.0" y="758.5186767578125" type="curve" smooth="yes"/>
      <point x="100.0" y="758.5186767578125"/>
      <point x="30.93363094329834" y="698.0"/>
      <point x="30.93363094329834" y="655.0" type="curve" smooth="yes"/>
    </contour>
  </outline>
</glyph>
<glyph name="j" format="2">
  <advance width="299"/>
  <unicode hex="006A"/>
  <outline>
    <contour>
      <point x="-81.78640747070312" y="-94.81097412109375"/>
      <point x="-64.34369659423828" y="-250.68763732910156"/>
      <point x="9.656304359436035" y="-244.68763732910156" type="curve" smooth="yes"/>
      <point x="138.65630340576172" y="-234.68763732910156"/>
      <point x="242.0" y="-136.42660522460938"/>
      <point x="242.0" y="-7.426607131958008" type="curve" smooth="yes"/>
      <point x="242.0" y="445.46697998046875" type="line" smooth="yes"/>
      <point x="242.0" y="486.46697998046875"/>
      <point x="192.15902709960938" y="536.7570190429688"/>
      <point x="152.15902709960938" y="536.7570190429688" type="curve" smooth="yes"/>
      <point x="112.15902709960938" y="536.7570190429688"/>
      <point x="61.0" y="486.5979919433594"/>
      <point x="61.0" y="445.5979919433594" type="curve" smooth="yes"/>
      <point x="61.0" y="4.137432098388672" type="line" smooth="yes"/>
      <point x="61.0" y="-54.86256790161133"/>
      <point x="32.213595390319824" y="-84.81097412109375"/>
      <point x="-27.78640365600586" y="-89.81097412109375" type="curve" smooth="yes"/>
    </contour>
    <contour>
      <point x="34.93363094329834" y="613.0"/>
      <point x="104.0" y="551.4813232421875"/>
      <point x="151.0" y="551.4813232421875" type="curve" smooth="yes"/>
      <point x="199.0" y="551.4813232421875"/>
      <point x="267.0663757324219" y="613.0"/>
      <point x="267.0663757324219" y="655.0" type="curve" smooth="yes"/>
      <point x="267.0663757324219" y="698.0"/>
      <point x="199.0" y="758.5186767578125"/>
      <point x="151.0" y="758.5186767578125" type="curve" smooth="yes"/>
      <point x="104.0" y="758.5186767578125"/>
      <point x="34.93363094329834" y="698.0"/>
      <point x="34.93363094329834" y="655.0" type="curve" smooth="yes"/>
    </contour>
  </outline>
</glyph>
<glyph name="k" format="2">
  <advance width="576"/>
  <unicode hex="006B"/>
  <anchor x="268" y="0" name="bottom"/>
  <anchor x="294" y="705" name="top"/>
  <outline>
    <contour>
      <point x="57.0" y="3.6615004539489746"/>
      <point x="106.83973693847656" y="-48.0762939453125"/>
      <point x="146.83973693847656" y="-48.0762939453125" type="curve" smooth="yes"/>
      <point x="187.83973693847656" y="-48.0762939453125"/>
      <point x="238.0" y="3.5309576988220215"/>
      <point x="238.0" y="44.53095626831055" type="curve" smooth="yes"/>
      <point x="238.0" y="138.2860870361328" type="line"/>
      <point x="238.0" y="144.8860870361328"/>
      <point x="241.7316281835408" y="146.38288948799308"/>
      <point x="246.29250707453514" y="141.61231470693343" type="curve" smooth="yes"/>
      <point x="368.78704833984375" y="13.485832214355469" type="line" smooth="yes"/>
      <point x="395.78704833984375" y="-15.514167785644531"/>
      <point x="441.9787292480469" y="-46.914573669433594"/>
      <point x="479.9787292480469" y="-46.914573669433594" type="curve" smooth="yes"/>
      <point x="525.9787292480469" y="-46.914573669433594"/>
      <point x="574.2373657226562" y="41.334598541259766"/>
      <point x="538.2373657226562" y="80.3345947265625" type="curve" smooth="yes"/>
      <point x="384.8618898022565" y="245.7552952808159" type="line"/>
      <point x="380.3745188070115" y="250.59507849404292"/>
      <point x="380.4133043041489" y="258.47840595528083"/>
      <point x="384.948079795895" y="263.2738007502334" type="curve" smooth="yes"/>
      <point x="520.8424377441406" y="406.9781799316406" type="line" smooth="yes"/>
      <point x="555.8424072265625" y="443.9781799316406"/>
      <point x="517.8211669921875" y="536.6292114257812"/>
      <point x="466.8211669921875" y="536.6292114257812" type="curve" smooth="yes"/>
      <point x="431.8211669921875" y="536.6292114257812"/>
      <point x="385.6641845703125" y="504.4108581542969"/>
      <point x="359.6641845703125" y="477.4108581542969" type="curve" smooth="yes"/>
      <point x="246.25709892090248" y="357.8179294006345" type="line"/>
      <point x="241.71569451440612" y="353.02881194366444"/>
      <point x="238.0" y="354.51044311523435"/>
      <point x="238.0" y="361.1104431152344" type="curve" smooth="yes"/>
      <point x="238.0" y="661.5979614257812" type="line" smooth="yes"/>
      <point x="238.0" y="702.5979614257812"/>
      <point x="186.84097290039062" y="752.7570190429688"/>
      <point x="146.84097290039062" y="752.7570190429688" type="curve" smooth="yes"/>
      <point x="106.84097290039062" y="752.7570190429688"/>
      <point x="57.0" y="702.4669799804688"/>
      <point x="57.0" y="661.4669799804688" type="curve" smooth="yes"/>
      <point x="57.0" y="44.6614990234375" type="line" smooth="yes"/>
    </contour>
  </outline>
</glyph>
<glyph name="l" format="2">
  <advance width="359"/>
  <unicode hex="006C"/>
  <anchor x="192" y="0" name="bottom"/>
  <anchor x="137" y="357" name="center"/>
  <anchor x="322" y="352" name="dot"/>
  <anchor x="127" y="705" name="top"/>
  <anchor x="230" y="705" name="topright"/>
  <outline>
    <contour>
      <point x="57.0" y="43.3172492980957"/>
      <point x="129.2575454711914" y="-38.88730239868164"/>
      <point x="240.25753784179688" y="-38.88730239868164" type="curve" smooth="yes"/>
      <point x="254.25753784179688" y="-38.88730239868164"/>
      <point x="295.5283203125" y="-36.05445861816406"/>
      <point x="309.5283203125" y="-34.05445861816406" type="curve" smooth="yes"/>
      <point x="340.5283203125" y="-30.054458618164062"/>
      <point x="371.0870361328125" y="12.115062713623047"/>
      <point x="371.0870361328125" y="46.11506271362305" type="curve" smooth="yes"/>
      <point x="371.0870361328125" y="84.11505889892578"/>
      <point x="349.35015869140625" y="126.19410705566406"/>
      <point x="330.35015869140625" y="124.19410705566406" type="curve" smooth="yes"/>
      <point x="321.35015869140625" y="123.19410705566406"/>
      <point x="308.3493347167969" y="121.9181900024414"/>
      <point x="297.3493347167969" y="121.9181900024414" type="curve" smooth="yes"/>
      <point x="249.34934997558594" y="121.9181900024414"/>
      <point x="238.0" y="132.1374053955078"/>
      <point x="238.0" y="193.1374053955078" type="curve" smooth="yes"/>
      <point x="238.0" y="661.5979614257812" type="line" smooth="yes"/>
      <point x="238.0" y="702.5979614257812"/>
      <point x="186.84097290039062" y="752.7570190429688"/>
      <point x="146.84097290039062" y="752.7570190429688" type="curve" smooth="yes"/>
      <point x="106.84097290039062" y="752.7570190429688"/>
      <point x="57.0" y="702.4669799804688"/>
      <point x="57.0" y="661.4669799804688" type="curve" smooth="yes"/>
      <point x="57.0" y="166.31724548339844" type="line" smooth="yes"/>
    </contour>
  </outline>
</glyph>
<glyph name="m" format="2">
  <advance width="917"/>
  <unicode hex="006D"/>
  <anchor x="440" y="0" name="bottom"/>
  <anchor x="440" y="484" name="top"/>
  <outline>
    <contour>
      <point x="59.0" y="3.6615004539489746"/>
      <point x="108.83973693847656" y="-48.0762939453125"/>
      <point x="148.83973693847656" y="-48.0762939453125" type="curve" smooth="yes"/>
      <point x="189.83973693847656" y="-48.0762939453125"/>
      <point x="240.0" y="3.5309576988220215"/>
      <point x="240.0" y="44.53095626831055" type="curve" smooth="yes"/>
      <point x="240.0" y="261.1046142578125" type="line" smooth="yes"/>
      <point x="240.0" y="342.1046142578125"/>
      <point x="250.042236328125" y="355.25213623046875"/>
      <point x="316.042236328125" y="355.25213623046875" type="curve" smooth="yes"/>
      <point x="342.0036315917969" y="355.25213623046875"/>
      <point x="355.3020324707031" y="355.9796447753906"/>
      <point x="362.08685302734375" y="349.6856689453125" type="curve" smooth="yes"/>
      <point x="370.1986083984375" y="342.1607666015625"/>
      <point x="369.0" y="324.59942626953125"/>
      <point x="369.0" y="283.7591552734375" type="curve" smooth="yes"/>
      <point x="369.0" y="44.53095626831055" type="line" smooth="yes"/>
      <point x="369.0" y="3.5309576988220215"/>
      <point x="420.1602478027344" y="-48.0762939453125"/>
      <point x="460.1602478027344" y="-48.0762939453125" type="curve" smooth="yes"/>
      <point x="500.1602478027344" y="-48.0762939453125"/>
      <point x="550.0" y="3.6615004539489746"/>
      <point x="550.0" y="44.6614990234375" type="curve" smooth="yes"/>
      <point x="550.0" y="261.1046142578125" type="line" smooth="yes"/>
      <point x="550.0" y="342.1046142578125"/>
      <point x="561.1815185546875" y="355.42462158203125"/>
      <point x="626.1815185546875" y="355.42462158203125" type="curve" smooth="yes"/>
      <point x="652.6948852539062" y="355.42462158203125"/>
      <point x="666.2145385742188" y="356.1020812988281"/>
      <point x="673.07958984375" y="349.6733703613281" type="curve" smooth="yes"/>
      <point x="681.2323608398438" y="342.0387878417969"/>
      <point x="680.0" y="324.3821105957031"/>
      <point x="680.0" y="283.6666564941406" type="curve" smooth="yes"/>
      <point x="680.0" y="44.6614990234375" type="line" smooth="yes"/>
      <point x="680.0" y="3.6615004539489746"/>
      <point x="729.8397216796875" y="-48.0762939453125"/>
      <point x="769.8397216796875" y="-48.0762939453125" type="curve" smooth="yes"/>
      <point x="809.8397216796875" y="-48.0762939453125"/>
      <point x="861.0" y="3.5309576988220215"/>
      <point x="861.0" y="44.53095626831055" type="curve" smooth="yes"/>
      <point x="861.0" y="308.0205993652344" type="line" smooth="yes"/>
      <point x="861.0" y="444.0205993652344"/>
      <point x="785.4998779296875" y="535.211669921875"/>
      <point x="674.4998779296875" y="535.211669921875" type="curve" smooth="yes"/>
      <point x="601.792724609375" y="535.211669921875"/>
      <point x="535.9060668945312" y="495.6181945800781"/>
      <point x="505.2445068359375" y="436.443603515625" type="curve"/>
      <point x="482.05072021484375" y="500.8918151855469"/>
      <point x="432.69537353515625" y="531.7708740234375"/>
      <point x="361.2188415527344" y="531.7708740234375" type="curve" smooth="yes"/>
      <point x="292.7942810058594" y="531.7708740234375"/>
      <point x="266.5417938232422" y="515.2112426757812"/>
      <point x="237.0" y="462.23455810546875" type="curve"/>
      <point x="237.0" y="452.09441528320315" type="line"/>
      <point x="237.0" y="448.37636291503907"/>
      <point x="234.88392076870892" y="447.51977960079955"/>
      <point x="232.29760170824207" y="450.19089680711534" type="curve" smooth="yes"/>
      <point x="237.0" y="486.3343200683594"/>
      <point x="187.0" y="537.2523803710938"/>
      <point x="148.0" y="537.2523803710938" type="curve" smooth="yes"/>
      <point x="109.0" y="537.2523803710938"/>
      <point x="59.0" y="486.3343200683594"/>
      <point x="59.0" y="445.3343200683594" type="curve" smooth="yes"/>
      <point x="59.0" y="44.6614990234375" type="line" smooth="yes"/>
    </contour>
  </outline>
</glyph>
<glyph name="n" format="2">
  <advance width="625"/>
  <unicode hex="006E"/>
  <anchor x="294" y="0" name="bottom"/>
  <anchor x="294" y="484" name="top"/>
  <outline>
    <contour>
      <point x="57.0" y="3.6615004539489746"/>
      <point x="106.83973693847656" y="-48.0762939453125"/>
      <point x="146.83973693847656" y="-48.0762939453125" type="curve" smooth="yes"/>
      <point x="187.83973693847656" y="-48.0762939453125"/>
      <point x="238.0" y="3.5309576988220215"/>
      <point x="238.0" y="44.53095626831055" type="curve" smooth="yes"/>
      <point x="238.0" y="263.79998779296875" type="line" smooth="yes"/>
      <point x="238.0" y="339.79998779296875"/>
      <point x="255.26365661621094" y="358.57684326171875"/>
      <point x="328.263671875" y="358.57684326171875" type="curve" smooth="yes"/>
      <point x="388.263671875" y="358.57684326171875"/>
      <point x="390.0" y="358.10797119140625"/>
      <point x="390.0" y="282.10797119140625" type="curve" smooth="yes"/>
      <point x="390.0" y="44.53095626831055" type="line" smooth="yes"/>
      <point x="390.0" y="3.5309576988220215"/>
      <point x="441.1602478027344" y="-48.0762939453125"/>
      <point x="481.1602478027344" y="-48.0762939453125" type="curve" smooth="yes"/>
      <point x="521.1602478027344" y="-48.0762939453125"/>
      <point x="571.0" y="3.6615004539489746"/>
      <point x="571.0" y="44.6614990234375" type="curve" smooth="yes"/>
      <point x="571.0" y="308.39044189453125" type="line" smooth="yes"/>
      <point x="571.0" y="444.39044189453125"/>
      <point x="493.6767578125" y="534.164794921875"/>
      <point x="376.6767578125" y="534.164794921875" type="curve" smooth="yes"/>
      <point x="306.45159912109375" y="534.164794921875"/>
      <point x="267.8221435546875" y="515.3704833984375"/>
      <point x="235.0" y="459.5306396484375" type="curve"/>
      <point x="235.0" y="451.0128479003906" type="line"/>
      <point x="235.0" y="447.88965759277346"/>
      <point x="233.22247846697712" y="447.1701215454583"/>
      <point x="231.04995214883806" y="449.413878906357" type="curve" smooth="yes"/>
      <point x="235.0" y="486.3343200683594"/>
      <point x="185.0" y="537.2523803710938"/>
      <point x="146.0" y="537.2523803710938" type="curve" smooth="yes"/>
      <point x="107.0" y="537.2523803710938"/>
      <point x="57.0" y="486.3343200683594"/>
      <point x="57.0" y="445.3343200683594" type="curve" smooth="yes"/>
      <point x="57.0" y="44.6614990234375" type="line" smooth="yes"/>
    </contour>
  </outline>
</glyph>
